<svg xmlns="http://www.w3.org/2000/svg" class="svgIcon engagementHero" viewBox="0 0 192 184">
	<g>
		<polygon fill="#579e1c" points="112.3,13.6 114.1,11.6 111.4,11.4 110.1,9 109,11.5 106.4,12.1 108.4,13.8 108.1,16.5 110.4,15.1 
			112.9,16.2 	"/>
		<polygon fill="#579e1c" points="94.7,87.5 86.1,73.4 80.4,77.4 94.4,88.2 	"/>
		<path fill="#579e1c" d="M102.1,15.4c0.8,2.3,2,2.3,2.9,2l-1.4-5.2C102.6,12.2,101.2,12.7,102.1,15.4z"/>
		<path fill="#579e1c" d="M118.8,14c0.3-3.1-1.5-3-2.4-2.8l-0.4,5.3C117,16.8,118.6,16.8,118.8,14z"/>
		<path fill="#579e1c" d="M0,0v184h192V0H0z M15.9,112.9l32.3-21.1L9,79.2l35.7-8L17,55.2h31.2l-21.5-23l35.7,7.5l-12-23.3l24,16.4V9
			l10.1,23.9C21,59.1,71.2,122,71.2,122l-33.3,24l15.7-36.3L15.9,112.9z M48.2,169.4l9.6-25.5H72l6.6-23.2l3.8-3.6l6.1-14.6l2.6-6.3
			l-3.9-3.6l2.7-3.3l-19.7-13l12.1-9.2l6.1-0.4c0.6-1.8-0.5-3.6-1.4-4.9c-2.7,0-5.9-1-9.2-4.6c-9.2-9.6,3.6-15.5,8.2-8.8h6.5
			l-3.2,2.7l5.6,7.1c0,0-1.4,1.5-3.6,2.5l5.3,5.3l0.9-0.1l13.9-9V37.8l-4.1-2.9l2-3h1.5l0.5-0.7l-5.5,1v-1.8l3-1l-0.9-2.2l1.2-0.2
			c3.7-2.7-2.2-3.8-2.2-3.8l-1.1-3.8c-1.5,0.5-3.8,0.4-5.2-3.6c-1.8-5,1.3-5.4,2.7-5.3L102.1,7c5.8-7,14.9-2.6,14.9-2.6l-0.4,4.9
			c1.3-0.4,4.6-1,4.1,4.5c-0.5,4.8-3.2,5-4.8,4.7l-0.4,4.6c-2.1,2.3,0.9,3.2,0.9,3.2h1.6l-0.9,1.8h2.3v1.6l-3.2,0.6l-0.3,1l1.3,1.6
			l-3.1,4l2.5,20.8l-13.5,13l6.8,16.5l1.5,15.3l-0.8,41.4H131l11.7,18.8C142.7,162.8,115.1,192,48.2,169.4z M177.5,107.2l-31.4,3.4
			l18,19.4l-26.6-1.7l14.6,19.2L123,130.9c39.4-48.8,1.7-88,1.7-88L141,16.5l-6.6,33.5l24.3-17.2l-16,26l27.7-6.3l-23.1,21.4
			l35.7,5.1l-34,14.3L177.5,107.2z"/>
		<polygon fill="#579e1c" points="103,119.7 103,102.5 96.8,102.5 78.4,143.9 104.7,143.9 100.9,122.4 	"/>
	</g>
</svg>

