<svg xmlns="http://www.w3.org/2000/svg" class="svgIcon achievement" viewBox="0 0 83 83">
	<g>
		<polygon fill="#561093" points="49.3,7.6 50.1,6.8 48.9,6.7 48.4,5.6 47.9,6.7 46.7,7 47.6,7.7 47.5,8.9 48.5,8.3 49.6,8.8 	"/>
		<polygon fill="#561093" points="41.6,40 37.8,33.8 35.4,35.6 41.5,40.3 	"/>
		<path fill="#561093" d="M52.2,7.8c0.1-1.4-0.7-1.3-1-1.2L51,8.9C51.4,9,52.1,9,52.2,7.8z"/>
		<path fill="#561093" d="M44.9,8.4c0.3,1,0.9,1,1.3,0.9L45.5,7C45.1,7,44.5,7.2,44.9,8.4z"/>
		<path fill="#561093" d="M41.1,0C18.3,0,0,18.5,0,41.2C0,64,18.3,83,41.1,83C63.9,83,83,64,83,41.2C83,18.5,63.9,0,41.1,0z M7.1,51.1l14.1-9.2
			L4.1,36.3l15.6-3.5l-12.1-7h13.6l-9.4-10l15.6,3.3L22.2,8.9l10.5,7.2V5.6l4.4,10.4c-27.8,11.5-5.8,39-5.8,39L16.7,65.6l6.9-15.9
			L7.1,51.1z M21.3,75.8l4.2-11.2h6.2l2.9-10.2l1.6-1.6l2.7-6.4l1.1-2.7l0,0l-1.7-1.6l1.2-1.5l-8.6-5.7l5.3-4l2.7-0.2
			c0.2-0.8-0.2-1.6-0.6-2.1c-1.2,0-2.6-0.4-4-2c-4-4.2,1.6-6.8,3.6-3.8h2.8l-1.4,1.2l2.4,3.1c0,0-0.6,0.6-1.6,1.1l2.3,2.3l0.4,0
			l6.1-4v-8.5L47,16.9l0.9-1.3h0.7l0.2-0.3l-2.4,0.4V15l1.3-0.4l-0.4-1l0.5-0.1c1.6-1.2-1-1.7-1-1.7l-0.5-1.7
			c-0.7,0.2-1.7,0.2-2.3-1.6c-0.8-2.2,0.6-2.4,1.2-2.3l-0.4-1.5c2.5-3.1,6.5-1.1,6.5-1.1l-0.2,2.2c0.6-0.2,2-0.4,1.8,2
			c-0.2,2.1-1.4,2.2-2.1,2l-0.2,2c-0.9,1,0.4,1.4,0.4,1.4h0.7L51.4,14h1v0.7L51,14.9l-0.1,0.4l0.5,0.7L50,17.8l1.1,9.1l-5.9,5.7
			l3,7.2l0.6,6.7l-0.3,18.1h9l5.1,8.2C62.6,72.9,50.5,85.7,21.3,75.8z M72,58.6l-11.6-0.8l6.4,8.4L54,59c17.2-21.4,0.8-38.5,0.8-38.5
			l7.1-11.6L59,23.6l10.6-7.5l-7,11.4l12.1-2.7l-10.1,9.4l15.6,2.2l-14.9,6.2l12.5,6l-13.8,1.5L72,58.6z"/>
		<polygon fill="#561093" points="45.2,54 45.2,46.5 42.6,46.5 34.5,64.7 46,64.7 44.3,55.2 	"/>
	</g>
</svg>

