<svg xmlns="http://www.w3.org/2000/svg" class="svgIcon calendar" viewBox="0 0 48 48">
	<path stroke="none" d="M18,3c0-1.7-1.3-3-3-3s-3,1.3-3,3v3h6V3z"/>
	<path stroke="none" d="M36,3c0-1.7-1.3-3-3-3s-3,1.3-3,3v3h6V3z"/>
	<path stroke="none" d="M0,43c0,2.2,1.8,4,4,4h40c2.2,0,4-1.8,4-4V16H0V43z M33,22c0-0.6,0.4-1,1-1h8c0.6,0,1,0.4,1,1v3c0,0.6-0.4,1-1,1h-8
		c-0.6,0-1-0.4-1-1V22z M33,30c0-0.6,0.4-1,1-1h8c0.6,0,1,0.4,1,1v3c0,0.6-0.4,1-1,1h-8c-0.6,0-1-0.4-1-1V30z M33,38
		c0-0.6,0.4-1,1-1h8c0.6,0,1,0.4,1,1v3c0,0.6-0.4,1-1,1h-8c-0.6,0-1-0.4-1-1V38z M19,22c0-0.6,0.4-1,1-1h8c0.6,0,1,0.4,1,1v3
		c0,0.6-0.4,1-1,1h-8c-0.6,0-1-0.4-1-1V22z M19,30c0-0.6,0.4-1,1-1h8c0.6,0,1,0.4,1,1v3c0,0.6-0.4,1-1,1h-8c-0.6,0-1-0.4-1-1V30z
		 M19,38c0-0.6,0.4-1,1-1h8c0.6,0,1,0.4,1,1v3c0,0.6-0.4,1-1,1h-8c-0.6,0-1-0.4-1-1V38z M5,22c0-0.6,0.4-1,1-1h8c0.6,0,1,0.4,1,1v3
		c0,0.6-0.4,1-1,1H6c-0.6,0-1-0.4-1-1V22z M5,30c0-0.6,0.4-1,1-1h8c0.6,0,1,0.4,1,1v3c0,0.6-0.4,1-1,1H6c-0.6,0-1-0.4-1-1V30z M5,38
		c0-0.6,0.4-1,1-1h8c0.6,0,1,0.4,1,1v3c0,0.6-0.4,1-1,1H6c-0.6,0-1-0.4-1-1V38z"/>
	<path stroke="none" d="M44,6h-8v3c0,1.7-1.3,3-3,3s-3-1.3-3-3V6H18v3c0,1.7-1.3,3-3,3s-3-1.3-3-3V6H4c-2.2,0-4,1.8-4,4v4h48v-4
		C48,7.8,46.2,6,44,6z"/>
</svg>

