<svg xmlns="http://www.w3.org/2000/svg" class="svgIcon criticalThinking" viewBox="0 0 83 83">
	<g>
		<polygon fill="#3F82FB" points="18.7,50.8 26.9,50.8 18.7,28.7 	"/>
		<polygon fill="#3F82FB" points="64.9,43.6 64.9,22.1 57.6,43.6 	"/>
		<polygon fill="#3F82FB" points="16.7,50.8 16.7,29.2 9.5,50.8 	"/>
		<polygon fill="#3F82FB" points="66.9,43.6 75,43.6 66.9,21.6 	"/>
		<path fill="#3F82FB" d="M41.8,0C19,0,0,18.5,0,41.3S19,83,41.8,83C64.5,83,83,64.1,83,41.3S64.5,0,41.8,0z M77.3,44.2c0,0.4-0.3,0.7-0.6,0.9
			c-0.1,0-0.2,0.1-0.3,0.1c0,0-0.1,0-0.1,0c-3.4,2.7-11.4,7.5-19.9,0c-0.1,0-0.2,0-0.3,0c-0.4-0.1-0.7-0.5-0.7-0.9
			c-0.2-0.2-0.4-0.4-0.6-0.6h0.7l8.6-25.5c-0.8-0.1-1.6-0.3-2.5-0.7c-3.2-1.2-11.7-0.4-16.4,0.1v0.6L44,19.5V64l7.4,1.5l0.5,3.4
			l9.3,1.8l2,1.8H42.8h-2.1H20.3l2-1.8l9.3-1.8l0.5-3.4L39,64V19.5l-0.4-1C34,19.3,25.4,21,22.5,23.1c-1.1,0.9-2.2,1.4-3.1,1.7
			l9.6,26h0.7c0,0-0.2,0.2-0.6,0.6c0,0.4-0.3,0.7-0.6,0.9c-0.1,0-0.2,0.1-0.3,0.1c0,0-0.1,0-0.1,0c-3.4,2.7-11.4,7.5-19.9,0
			c-0.1,0-0.2,0-0.3,0c-0.4-0.1-0.7-0.5-0.7-0.9C7,51.2,6.8,51,6.6,50.8h0.7l9-26.7c-0.3-0.5-0.5-1.2-0.3-2.1
			c0.5-3.3,3.2-4.9,4.9-2.8s-2,2.9-1.9,1.6c0,0-0.8-2.3-1.7,1.1c0,0.2-0.1,0.3-0.1,0.5c0,0,0,0,0.1,0c0,0,0,0,0.1,0c0,0,0,0,0.1,0
			c0.1,0,0.1,0,0.2,0c0.1,0,0.1,0,0.2,0c0,0,0,0,0.1,0c0.1,0,0.1,0,0.2,0.1c0,0,0.1,0,0.1,0c0.1,0,0.1,0.1,0.2,0.1c0,0,0.1,0,0.1,0.1
			c0.1,0.1,0.2,0.2,0.2,0.3c0,0,0,0,0,0l0.1,0.3c0.5-0.3,1.1-0.7,1.9-1c0,0,8.7-4.3,17.8-5.5v-0.8l1.1-1.8l-1.8-1.1l2.4-4.2h0.6h2.1
			h0.6l2.4,4.2L44.1,14l1,1.6c8.9-1.3,18.1,0.3,18.1,0.3c0.6,0.1,1.1,0.2,1.6,0.3l0.2-0.5c0,0,0,0,0-0.1c0,0,0-0.1,0.1-0.1
			c0-0.1,0.1-0.1,0.1-0.2c0,0,0.1-0.1,0.1-0.1c0.1,0,0.1-0.1,0.2-0.1c0,0,0,0,0.1,0c0,0,0,0,0.1,0c0.1,0,0.1,0,0.2,0
			c0.1,0,0.1,0,0.2,0c0,0,0,0,0.1,0c0.1,0,0.1,0,0.1,0.1c0,0,0.1,0,0.1,0.1c0,0,0.1,0,0.1,0c-0.1-0.1-0.2-0.3-0.3-0.5
			c-1.9-3-1.9-0.6-1.9-0.6c0.5,1.3-3.2,1.5-2.2-1s4-1.7,5.5,1.3c0.6,1.2,0.5,2.1,0,2.8l9.8,26.4h0.7C77.9,43.6,77.7,43.8,77.3,44.2z"
			/>
	</g>
</svg>

