<svg xmlns="http://www.w3.org/2000/svg" class="svgIcon engagementHero" viewBox="0 0 192 184">
	<path fill="#f35525" d="M167.4,177.7l-15.6-64.8l40.2,31.5v-12.9l-49.2-51.3L192,94.8V75.2l-54.6-19.5l54.6-7.6v-7.3
		c-12.4,6.3-49.2,7.3-49.2,7.3l49.2-8.3v-7.4l-58.2,14.3L171.6,7H192V0H0v7.9h31.9l20.3,43.8L0,33.2v15.4c17.6-2.2,46.9,7.6,46.9,7.6
		L0,49.4v5.8l52.2,5.4L0,80.3v25.1l48.5-16.6L0,141.4v23.6l56.1-64.5l-22.4,77.2H0v6.3h192v-6.3H167.4z M2.6,86.5l41.1-11.9
		C34.5,83,2.6,86.5,2.6,86.5z M27.9,120.9l21.9-27.8C44.8,105.7,27.9,120.9,27.9,120.9z M166.8,114.4c0,0-17.7-7.3-24-18.7
		L166.8,114.4z M191.1,86.5L141,68.8C160.1,66.6,191.1,86.5,191.1,86.5z M125.1,36.1l21.2-17.9C140.7,30.3,125.1,36.1,125.1,36.1z
		 M123.1,7.5h28.7l-28.7,19.2V7.5z M121,7.9l-1.4,19.2C119.5,27.2,116.8,16.1,121,7.9z M123.7,44.4c0,0,1.7,10.1,1.2,22.6
		c2.7-2.9,6.6-5.1,8.4,2.4c2.6,10.8-6.6,20.8-11.8,19.2c-2.7,8.7-7.3,16.7-15.1,21.7c-1.3,15.7,7.7,18,7.7,18
		c-14.8,12.1-33.8,1.4-33.8,1.4c6.6-5.7,7.8-14.1,8-18.5c-6.2-3.3-14.3-9.9-19.4-22.9c-5,2.9-15.2-7.6-12.5-18.9
		c1.7-7.2,5.3-5.5,8-2.8c-0.4-6.2-0.2-13.3,0.7-21.2C65.2,45.4,98.8,14.4,123.7,44.4z M91.7,11.3c4,4.2,0,15,0,15V11.3z M80.4,7.9
		l-3,18.5L63.2,7.9H80.4z M48.5,11.3l13.2,24.8C61.7,36.1,47.4,23.5,48.5,11.3z M45.1,177.7l6.9-40l19.6-6.8c0,0,33.5,18.2,48-2.8
		l19.5,5.9l8.8,43.6H45.1z"/>
	<path fill="#f35525" d="M0,0v184h192V0H0z M186,178H6V6h180V178z"/>
</svg>

