<svg xmlns="http://www.w3.org/2000/svg" class="svgIcon engagement" viewBox="0 0 83 83">
	<path fill="#FF6D00" d="M41.8,0C19,0,0,18.5,0,41.3C0,64.1,19,83,41.8,83S83,64.1,83,41.3C83,18.5,64.5,0,41.8,0z M56.8,27.6h3V29h-3V27.6z
		 M24.2,27.6h3V29h-3V27.6z M27.7,77.3c-14.5-7-23.6-24.6-23.6-24.6l5-2.6c4.9,0.8,5.5-5.1,5.5-6.9l-4.4-3.4L10,36.7
		c-1.2,0.3-2.3-1.3-2-4.3c0.2-2.2,1.1-1.8,1.7-1l-0.3-5c4.8-10.6,12.7-1.3,12.7-1.3l0.1,6.1c0.6-0.8,1.4-1.4,1.8,0.9
		c0.5,3-0.4,4.7-1.7,4.4l0,3.7L19,43.6c-0.1,9.7,7.6,5.9,7.6,5.9l3.1,4.1L27.7,77.3z M36.3,29h-6.8v-1.4h6.8V29z M45.4,29h-6.8v-1.4
		h6.8V29z M47.7,27.6h6.8V29h-6.8V27.6z M56.3,77.3l-2.1-23.8l3.1-4.1c0,0,7.7,3.8,7.6-5.9l-3.3-3.4l0-3.7c-1.3,0.3-2.3-1.4-1.7-4.4
		c0.4-2.2,1.2-1.7,1.8-0.9l0.1-6.1c0,0,7.9-9.4,12.7,1.3l-0.3,5c0.7-0.8,1.5-1.2,1.7,1c0.3,2.9-0.8,4.6-2,4.3l-0.2,3.1l-4.4,3.4
		c0.1,1.8,0.6,7.7,5.5,6.9l5,2.6C79.9,52.7,70.8,70.3,56.3,77.3z"/>
</svg>

