<svg xmlns="http://www.w3.org/2000/svg" class="svgIcon fillInTheBlanks" viewBox="0 0 24 24">
	<path d="M14,0h-4C4.5,0,0,4.5,0,10v4c0,5.5,4.5,10,10,10h4c5.5,0,10-4.5,10-10v-4C24,4.5,19.5,0,14,0z M5,8c0-0.6,0.4-1,1-1h2c0.6,0,1,0.4,1,1v2c0,0.6-0.4,1-1,1H6c-0.6,0-1-0.4-1-1V8z M13,16c0,0.6-0.4,1-1,1H6c-0.6,0-1-0.4-1-1v-2c0-0.6,0.4-1,1-1h6c0.6,0,1,0.4,1,1V16z M19,16c0,0.6-0.4,1-1,1h-2c-0.6,0-1-0.4-1-1v-2c0-0.6,0.4-1,1-1h2c0.6,0,1,0.4,1,1V16z M19,10c0,0.6-0.4,1-1,1h-6c-0.6,0-1-0.4-1-1V8c0-0.6,0.4-1,1-1h6c0.6,0,1,0.4,1,1V10z"/>
	<rect x="6" y="14" width="6" height="2"/>
</svg>

