<svg xmlns="http://www.w3.org/2000/svg" class="svgIcon flocab-logo" viewBox="0 0 181 40">
	<g>
		<path fill="#FFCF4A" d="M27.3,17.9l4.3,0.9c12.2,2.9,12.5-3,12.5-3C47.8,7.1,52,9.4,52,9.4c5.6,2.5,8.9,2.1,10.8,1.1
			c2.8-2.7,1.1-6.2,1.1-6.2c-0.4-0.5-0.5-0.1-0.5,0.1c0,0,0.8,5-4.1,3.6c-1.6-0.6-3.9-2-5.2-2.9c-0.2-0.1-0.3-0.2-0.4-0.3l-1.4-0.8
			C52.2,4,52,4,51.9,4c-0.5-0.2-0.9-0.4-1.4-0.6c-5.1-0.5-7.3,3.8-7.3,3.8c-3.1,4.8-4.7,3.5-4.7,3.5c-3.1-1-5.9-2-11.2,0.7
			S17.7,12,17.7,12C7.1,7.9,2.4,11.1,0.6,13.3c1.3,3.6,4.8,6.2,8.9,6.2c2.2,0,4.2-0.7,5.8-2c0.1,0,0.1-0.1,0.1-0.1c0,0,0,0,0,0
			c0,0,0.1-0.1,0.1-0.1c3.8-3.4,11.5,0.5,11.5,0.5C27.1,17.9,27.2,17.9,27.3,17.9z"/>
		<g>
			<path fill="#FFE477" d="M51.7,11.2c1.8,0.6,3.2,0.9,4.5,1.1c1.5,0.2,3.5,0.1,4.9-0.6c2-1.1,2.8-2.5,3.1-3.7c-1.4,2.6-6.5,3-12.5,0
				c-4.7-2.4-7.6,3.7-8.9,7.4c-0.8,2.3-3.6,2.9-3.6,2.9c2-1.9,0.8-3.7,0.8-3.7c-1.2,3.1-4.7,3.6-7.9,3.2c-3.5-0.4-9.5-1.5-9.6-1.5
				c2.4,0.6,4.5,1.6,4.5,1.6c15,6.3,17.8,0.7,19-2.7c0.3-0.8,0.6-1.7,0.7-2C47.3,11.8,48.9,10.3,51.7,11.2z"/>
			<path fill="#FFE477" d="M4.5,18.2C6,19,7.6,19.5,9.4,19.5c2.2,0,4.2-0.7,5.8-2c0.1,0,0.1-0.1,0.1-0.1c0,0,0,0,0,0
				c0,0,0.1-0.1,0.1-0.1c0.4-0.3,0.8-0.6,1.2-0.8c-5.5-1.2-8.6,0-8.6,0l0.8-1.1C4.2,15.6,4.5,18.2,4.5,18.2z"/>
		</g>
		<path fill="#FDA920" d="M52.3,4.1C52.2,4,52,4,51.9,3.9c-6.6-3.4-9.8,2.7-9.8,2.7c-1.5,2.9-6.7,2.2-7.6,1.6c0,0,0,0,0,0
			c-0.2-0.1-0.3-0.2-0.5-0.4c-0.3-0.3-0.5-0.7-0.6-0.9c-2.3-0.1-6.1,0.2-11,2.3c-8.2,3.5-11.4-9-22.5,1c0,1.8,0.5,3.4,1.4,4.8
			c0,0,2-5.5,13.6-1.7c0,0,9.2,2.2,15.5,0.9c0,0-4-1.5-0.1-2.6c5.6-1.5,8.4,0.6,5.6,2.1c0,0,4.4,1.6,6.7-3.8c2.5-5.7,5.5-6.9,10.8-5
			L52.3,4.1z"/>
		<g>
			<path fill="#FF8A20" d="M34.2,2.7c-2.3-0.1-6.6,0.4-10.2,3c-3.6,2.6-7-0.4-9.1-1.6C12.8,3,6.5-1.2,0.7,6.4C0.3,7.5,0,8.8,0,10.1
				c0,0.3,0,0.6,0,0.9l0.2,0.7c0,0,3.8-7.8,16.1-1.4c0,0,3.7,1.9,7.4,0.1c4.3-2,7.6-2.4,12.4-1.8c-0.7-0.1-1.3-0.3-1.5-0.4
				c0,0,0,0,0,0c-0.2-0.1-0.3-0.2-0.5-0.4c-0.6-0.6-0.7-1.2-0.6-1.6c0.1-2.1,2.9-2.4,4.4-2.2c0.9,0.1,1,0,1-0.1
				C38.1,3.6,36,2.8,34.2,2.7z"/>
			<polygon fill="#FF8A20" points="37.8,8.7 37.8,8.7 37.8,8.7 		"/>
		</g>
		<path fill="#FC6100" d="M0.1,8.7c0.7-4.6,4.6-8.1,9.3-8.1c1.7,0,3.3,0.4,4.6,1.2l0,0c1.7,0.8,5.5,4.9,9.3,2.4c0,0,7.5-5.7,15.5-0.4
			c0,0,0.3,0.3-0.2,0.3c0,0-5.1-3-11.8,2.1c-5.8,4.5-11.2,0-11.2,0S6.3-1.3,0.1,8.7z"/>
	</g>
	<g>
		<path fill="#202135" d="M166,39v-3H22.3c-2.1,0-4.5-1.1-6.3-5l-1.5,1c0,5.3,6,7,8.5,7H166z"/>
	</g>
	<g>
		<path fill="#202135" d="M15.2,8.8c0-0.1-0.1-0.3-0.1-0.4c0,0,0,0,0,0c-0.1,0-0.2-0.1-0.2-0.2c0-0.1,0-0.1,0-0.2
			c-0.1-0.3-0.3-0.6-0.5-0.9c0,0.2-0.2,0.4-0.4,0.4c-0.2,0-0.4-0.2-0.4-0.5c0-0.2,0.2-0.4,0.4-0.4c0,0,0,0,0.1,0
			c-0.2-0.3-0.4-0.6-0.7-0.8c0,0,0,0.1,0,0.1c0,0.2-0.1,0.4-0.4,0.4c-0.2,0-0.4-0.2-0.4-0.4c0-0.2,0.2-0.4,0.4-0.4
			c-0.3-0.2-0.5-0.4-0.8-0.6c0,0.1-0.1,0.1-0.2,0.1C12.1,5.2,12,5.1,12,5c0,0,0-0.1,0-0.1c-1.4-0.7-3.1-1-4.7-0.5
			c-3.4,1-5.5,4.5-4.5,8c0.6,2.1,2.2,3.7,4.1,4.4l5.9,16c0.2,0.7,0.9,1,1.5,0.9l2.5-0.7c0.7-0.2,1-0.9,0.8-1.5L14,14.7
			C15.3,13.1,15.8,10.9,15.2,8.8z M14.9,10.3c0-0.2,0.1-0.3,0.2-0.2c0.1,0,0.2,0.1,0.2,0.3c0,0.2-0.1,0.3-0.2,0.2
			C15,10.5,14.9,10.4,14.9,10.3z M9.9,4.9c0-0.2,0.1-0.3,0.3-0.3c0.1,0,0.3,0.2,0.3,0.3c0,0.2-0.1,0.3-0.3,0.3
			C10,5.2,9.9,5.1,9.9,4.9z M8,4.9c0-0.2,0.1-0.3,0.2-0.2c0.1,0,0.2,0.1,0.2,0.3c0,0.1-0.1,0.2-0.2,0.2C8.1,5.1,8,5,8,4.9z M7.1,6
			c0-0.2,0.1-0.3,0.2-0.3c0.1,0,0.2,0.1,0.2,0.3c0,0.1-0.1,0.2-0.2,0.2C7.2,6.2,7.1,6.1,7.1,6z M7.3,7.7c0.2,0,0.4,0.2,0.4,0.5
			c0,0.3-0.2,0.5-0.4,0.4c-0.2,0-0.4-0.2-0.4-0.5C6.9,7.9,7.1,7.7,7.3,7.7z M6.1,7c0-0.1,0.1-0.2,0.2-0.2c0.1,0,0.2,0.1,0.2,0.2
			c0,0.2-0.1,0.3-0.2,0.2C6.2,7.2,6.1,7.1,6.1,7z M6.9,10.3c0-0.2,0.2-0.4,0.4-0.4c0.2,0,0.4,0.2,0.4,0.4c0,0.2-0.1,0.4-0.4,0.4
			C7,10.7,6.9,10.5,6.9,10.3z M9.5,12.4c0,0.2-0.2,0.4-0.4,0.4c-0.2,0-0.4-0.2-0.4-0.4C8.8,12.2,9,12,9.2,12
			C9.4,12,9.5,12.2,9.5,12.4z M10,13.3c0.1,0,0.2,0.1,0.2,0.3c0,0.1-0.1,0.2-0.2,0.2c-0.1,0-0.2-0.1-0.2-0.2
			C9.9,13.4,9.9,13.3,10,13.3z M11.6,12.5c0,0.3-0.2,0.5-0.5,0.5c-0.3,0-0.5-0.3-0.5-0.5c0-0.3,0.2-0.6,0.5-0.5
			C11.4,11.9,11.6,12.2,11.6,12.5z M12.1,13.3c0.1,0,0.2,0.1,0.2,0.3c0,0.1-0.1,0.2-0.2,0.2c-0.1,0-0.2-0.1-0.2-0.2
			C11.9,13.4,12,13.3,12.1,13.3z M7.4,12.4c0,0.1-0.1,0.2-0.2,0.2c-0.1,0-0.2-0.1-0.2-0.2c0-0.2,0.1-0.3,0.2-0.3
			C7.3,12.2,7.4,12.3,7.4,12.4z M6.1,9.2C6.1,9.1,6.2,9,6.3,9c0.1,0,0.2,0.1,0.2,0.2c0,0.2-0.1,0.3-0.2,0.3C6.2,9.5,6.1,9.4,6.1,9.2z
			 M13.4,12.4c0,0.2-0.1,0.3-0.3,0.3c-0.2,0-0.3-0.1-0.3-0.3c0-0.2,0.1-0.3,0.3-0.3C13.3,12.1,13.4,12.3,13.4,12.4z M12.7,11
			c-0.3,0.2,0.1,1-0.6,1.1c-0.8,0-0.3-1.2-1.1-1c-0.6,0.1-0.1,1.2-1.1,0.9c-0.5-0.2-0.1-1-0.8-1.1c-0.2,0-0.4,0-0.5,0
			c0,0.6-0.2,1.2-0.7,0.8c-0.2-0.2,0-0.8,0.1-0.9c0.2,0,0.4,0,0.6,0c0-0.3,0.1-0.7-0.1-0.9C8.3,9.6,7.3,9.9,7.7,8.8
			c0.1-0.3,0.4-0.1,0.6-0.2c0.1,0,0.2-0.2,0.2-0.4c0.3-0.8-0.2-0.6-0.6-0.8C7.7,7.4,7.8,6.9,8,6.7l0.1,0c0.8-0.4,0.4,1.2,1.3,0.8
			c0.4-0.1,0.3-0.6,0.2-1c-0.1,0-0.4,0-0.6,0C8.7,6.4,8.8,5.7,9,5.6c0,0,0.2-0.1,0.4,0c0.5,0.2-0.1,1.1,1,0.9c0.5-0.1,0.2-1,0.8-1
			c0.5,0,0.5,0.4,0.5,0.9c0.2,0.1,0.5,0,0.8,0.1l0.1,0.2c0.1,0.3,0,0.7,0.2,0.8c0.2,0.2,0.5,0.1,0.7,0.2c0.2,0.1,0.1,0.8,0.1,1.1
			c0.2,0,0.5-0.1,0.7,0.1c0.1,0.1,0.2,0.4,0.2,0.6c-0.1,0.4-0.6,0.4-0.9,0.4c0-0.4,0-0.6,0-0.9c-0.4-0.2-1.1,0-0.7,0.6
			c0,0.1,0,0.2,0.1,0.3c0.4,0.2,0.5-0.3,0.5,0.2c0,0.2,0,0.4,0,0.6c-0.1,0.1-0.1,0.3-0.3,0.3C13.1,10.9,12.9,10.9,12.7,11z
			 M13.8,11.4c0-0.2,0.1-0.3,0.3-0.3c0.1,0,0.3,0.2,0.3,0.3c0,0.2-0.1,0.3-0.3,0.3C13.9,11.7,13.8,11.5,13.8,11.4z"/>
		<g>
			<path fill="#202135" d="M10.1,10.2c-0.1,0-0.2,0.1-0.2,0.2c0,0.1,0.1,0.2,0.2,0.2c0.1,0,0.2-0.1,0.2-0.2
				C10.3,10.3,10.2,10.2,10.1,10.2z"/>
			<path fill="#202135" d="M11.1,6.6c-0.2,0-0.4,0.1-0.4,0.4c0,0.2,0.1,0.4,0.4,0.4c0.2,0,0.4-0.2,0.4-0.4
				C11.5,6.8,11.3,6.6,11.1,6.6z"/>
			<path fill="#202135" d="M9.1,9C8.9,9,8.8,9.2,8.8,9.3c0,0.1,0.1,0.3,0.3,0.3c0.1,0,0.3-0.1,0.3-0.3C9.3,9.2,9.2,9,9.1,9z"/>
			<path fill="#202135" d="M10.1,8C9.9,8,9.9,8.1,9.9,8.2c0,0.1,0.1,0.2,0.2,0.2c0.1,0,0.2-0.1,0.2-0.2C10.3,8.1,10.2,8,10.1,8z"/>
			<path fill="#202135" d="M12.1,8.4c0.1,0,0.3-0.1,0.3-0.3c0-0.2-0.1-0.3-0.3-0.3c-0.1,0-0.3,0.1-0.3,0.3C11.8,8.3,12,8.4,12.1,8.4z
				"/>
			<path fill="#202135" d="M12.1,10c-0.2,0-0.4,0.2-0.4,0.4c0,0.2,0.2,0.4,0.4,0.4c0.2,0,0.4-0.2,0.4-0.4C12.4,10.2,12.3,10,12.1,10z
				"/>
		</g>
	</g>
	<path fill="#202135" d="M73.5,28.1L73.5,28.1c-0.6,0.5-1.3,0.9-2.6,0.9c-1.8,0-2.9-1.5-2.9-3.9c0-2.6,1.2-4.1,3-4.1
		c1.3,0,3,0.5,3,0.5c1.3,0,2-0.2,2-1.3v-2c-1.2-0.6-3.5-1.1-5.6-1.1c-5.6,0-8.4,2.8-8.4,8c0,5.4,2.6,8,8,8c2.7,0,4.9-0.7,6-1.4v-1.2
		C76,28.7,75.2,28.1,73.5,28.1z"/>
	<path fill="#202135" d="M100,18.9c1.1-1.2,3.2-1.9,5.2-1.9c2.9,0,5.7,1.7,5.7,7.6c0,5.9-2.8,8.4-6.5,8.4c-2.1,0-3.6-0.5-4.6-1.8
		c-0.5,1.1-1.2,1.7-2,1.7H94V12h4c1,0,2,1.1,2,3V18.9z M100,22v6.1c0.4,0.2,1.4,0.9,2,0.9c1.3,0,2.5-0.7,2.5-3.8
		c0-2.9-1.2-4.2-2.5-4.2C100.5,21,100.4,21.9,100,22z"/>
	<path fill="#202135" d="M126,17h-4v9c0,0,0.3,2-1,2c-0.5,0-1.1,0-1.5,0c-0.9,0-1.5-1-1.5-2c0,0,0-5.2,0-7c0-1,0.1-2-1.5-2
		c-3.6,0-4.5,0-4.5,0v11.3c0,3.7,2.1,4.7,4.6,4.7c2.4,0,4-1,5.3-2.3c0,1.3,0.8,2.3,1.8,2.3h4.3V20C128,18.1,127,17,126,17z"/>
	<path fill="#202135" d="M160,23.1v9.8h-6V17h4c1,0,1.5,0.6,1.8,2.6c1.1-1.6,2.4-2.5,4.2-2.5c0.4,0,0.7,0,0.9,0.1v5.3h-0.6
		C162.5,22.6,160.9,22.8,160,23.1z"/>
	<path fill="#202135" d="M40,12c1,0,2,1.1,2,3v18h-6V12H40z"/>
	<path fill="#202135" d="M43.2,25.2c0-5,3.6-8.2,8.7-8.2c5.1,0,8.7,3.2,8.7,8.2c0,5-3.6,7.8-8.7,7.8C46.9,33,43.2,30.1,43.2,25.2z
		 M54,25.2c0-2.8-0.8-3.9-2.1-3.9c-1.3,0-2.1,1.2-2.1,3.9c0,2.8,0.8,3.9,2.1,3.9C53.3,29.1,54,27.9,54,25.2z"/>
	<path fill="#202135" d="M25.2,12"/>
	<path fill="#202135" d="M35,12v2.7c0,1.9-0.5,2.3-3.3,2.3l0,0H28v4h5v2.3c0,1.9-0.5,2.7-3.2,2.7H28v7h-7V17c0-2.6,0.2-5,2.3-5L35,12
		z"/>
	<path fill="#202135" d="M178,17h-3v9.5c0,1-0.6,1.5-1.4,1.5c-0.8,0-1.6-0.5-1.6-1.4c0,0,0-4.2,0-6.7c0-1.9-0.4-3-2-3
		c-1,0-3.9,0-3.9,0v10.3c0,1.7,0.5,3.1,1.5,4.1c1,1.1,2.3,1.6,3.8,1.6c1,0,2.1-0.3,3.2-0.9c-0.6,2.1-1.5,2.7-3.5,2.7
		c-1.6,0-3.1,0.5-3.2,2.2V40c1.6,0,4.1,0,5.2,0c1.1,0,3.6-0.3,5.4-2.3c1.6-1.6,2.3-3.7,2.3-6.3V20C181,18.1,180,17,178,17z"/>
	<path fill="#202135" d="M134,12c0.9,0,2,1.2,2,3v18h-6V12H134z"/>
	<path fill="#202135" d="M84.7,17c-3,0-5.3,0.6-6.7,1.1l0.5,1.9c-0.1,1.6,2,1,2.5,1c0.9,0,5-1,5,2.5c0,0-2.1-0.5-3.2-0.5
		c-3.6,0-5.8,2.2-5.8,5.5c0,3.1,2,4.5,4.6,4.5c1.9,0,3.3-0.4,4.4-1.5c0.3,0.9,0.8,1.5,1.9,1.5H92V22.8C92,18.6,89.9,17,84.7,17z
		 M84,30c-1.1,0-1.5-0.1-1.5-2c0-1.1,0.6-1.5,1.5-1.5c1,0,2-0.1,2,1.5C86,30.1,85.1,30,84,30z"/>
	<path fill="#202135" d="M144.7,17c-3,0-5.3,0.6-6.7,1.1l0.5,1.9c-0.1,1.6,2,1,2.5,1c0.9,0,5-1,5,2.5c0,0-2.1-0.5-3.2-0.5
		c-3.6,0-5.8,2.2-5.8,5.5c0,3.1,2,4.5,4.6,4.5c1.9,0,3.3-0.4,4.4-1.5c0.3,0.9,0.8,1.5,1.9,1.5h4.1V22.8C152,18.6,149.9,17,144.7,17z
		 M144,30c-1.1,0-1.5-0.1-1.5-2c0-1.1,0.6-1.5,1.5-1.5c1,0,2-0.1,2,1.5C146,30.1,145.1,30,144,30z"/>
</svg>