<svg xmlns="http://www.w3.org/2000/svg" class="svgIcon focus" viewBox="0 0 83 83">
	<path fill="#ECC000" d="M41.2,0C18.5,0,0,18.5,0,41.3C0,64.1,18.5,83,41.2,83C64,83,83,64.1,83,41.3C83,18.5,64,0,41.2,0z M41,22.6h1.6v0.9v4.8H41
		V22.6z M7.4,33.8L6.8,20.1l2.5-0.5l1.1,13.7L7.4,33.8z M27.1,30.4L11.2,32l-0.4-11.3l16.4,1.9V30.4z M67.1,46.9
		c-1.7,6.8-3.9,16.2-3.8,22c0,0-3.8,9.3-18.7,8l4.1-27.5l-13.5,6l-3.8-25.2l-2.4-0.7l0.2-0.6L27.8,29v-5.8l3.1,0.1v-0.7h2.2l0.4-1.1
		h2.8l0.7,2.1l3.3,0.1v4.1L38.1,28l0.4,1.5l-3.6,2.2l5.5,16.6l9.6-7l4.2-1.4l1.1-6.1c-3.9,1.9-8.6,2.7-8.6,2.7l1.2-9.3l-2.9-0.3
		l4.4-7.3l-5.8-0.9l3.7-2.4l-6.1-3l10.1-0.5l-3-4l9.7,5l-1.2-3.3c12.8,6.6,5.9,16.2,4.1,18.4c0.2,2.2,0.7,6.2,2.2,8.2l1.3-0.4
		l4.9,2.4l10.9,9.6l-1.8,5.1L67.1,46.9z"/>
</svg>

