<svg xmlns="http://www.w3.org/2000/svg" class="svgIcon google" viewBox="0 0 16 17">
	<style type="text/css">
		.st0{fill:#FFFFFF;}
		.st1{fill:#EA4335;}
		.st2{fill:#FBBC05;}
		.st3{fill:#4285F4;}
		.st4{fill:#34A853;}
	</style>
	<g>
		<path class="st0" d="M5.5,0.5c-2,0.7-3.7,2.2-4.6,4.1C0.5,5.2,0.3,5.8,0.2,6.6c-0.4,1.8-0.1,3.7,0.7,5.3c0.5,1.1,1.3,2,2.2,2.7
			C4,15.3,5,15.8,6,16.1c1.4,0.4,2.8,0.4,4.2,0c1.2-0.3,2.4-0.9,3.3-1.7c1-0.9,1.7-2.1,2.1-3.4c0.4-1.4,0.5-2.9,0.2-4.3
			c-2.6,0-5.1,0-7.7,0c0,1.1,0,2.1,0,3.2c1.5,0,3,0,4.5,0c-0.2,1-0.8,1.9-1.6,2.5c-0.5,0.4-1.2,0.6-1.8,0.7c-0.6,0.1-1.3,0.1-1.9,0
			c-0.7-0.1-1.3-0.4-1.8-0.8c-0.9-0.6-1.5-1.5-1.9-2.5c-0.3-1-0.4-2.2,0-3.2c0.2-0.7,0.6-1.4,1.2-1.9C5.4,4,6.2,3.5,7.2,3.3
			C8,3.1,8.8,3.2,9.6,3.4c0.7,0.2,1.3,0.6,1.8,1c0.5-0.5,1-1,1.5-1.5c0.3-0.3,0.5-0.5,0.8-0.8C12.9,1.4,12,0.9,11,0.5
			C9.2-0.1,7.3-0.2,5.5,0.5z"/>
		<g>
			<path class="st1" d="M5.5,0.5c1.8-0.6,3.7-0.6,5.5,0c1,0.4,1.9,0.9,2.6,1.6c-0.3,0.3-0.5,0.5-0.8,0.8c-0.5,0.5-1,1-1.5,1.5
				c-0.5-0.5-1.1-0.8-1.8-1C8.8,3.2,8,3.1,7.2,3.3C6.3,3.5,5.4,4,4.7,4.7C4.2,5.2,3.8,5.9,3.5,6.6C2.7,5.9,1.8,5.2,0.9,4.5
				C1.8,2.6,3.5,1.1,5.5,0.5z"/>
		</g>
		<g>
			<path class="st2" d="M0.2,6.6c0.1-0.7,0.4-1.4,0.7-2.1c0.9,0.7,1.8,1.4,2.7,2.1c-0.4,1-0.4,2.2,0,3.2c-0.9,0.7-1.8,1.4-2.7,2.1
				C0.1,10.2-0.2,8.3,0.2,6.6z"/>
		</g>
		<g>
			<path class="st3" d="M8.2,6.6c2.6,0,5.1,0,7.7,0c0.3,1.4,0.2,2.9-0.2,4.3c-0.4,1.3-1.1,2.5-2.1,3.4c-0.9-0.7-1.7-1.3-2.6-2
				c0.9-0.6,1.5-1.5,1.6-2.5c-1.5,0-3,0-4.5,0C8.2,8.8,8.2,7.7,8.2,6.6z"/>
		</g>
		<g>
			<path class="st4" d="M0.9,11.8c0.9-0.7,1.8-1.4,2.7-2.1c0.3,1,1,1.9,1.9,2.5C6,12.6,6.6,12.9,7.2,13c0.6,0.1,1.3,0.1,1.9,0
				c0.6-0.1,1.3-0.3,1.8-0.7c0.9,0.7,1.7,1.3,2.6,2c-0.9,0.9-2.1,1.5-3.3,1.7c-1.4,0.3-2.8,0.3-4.2,0c-1.1-0.3-2.1-0.8-3-1.5
				C2.2,13.8,1.4,12.9,0.9,11.8z"/>
		</g>
	</g>
</svg>

