<svg xmlns="http://www.w3.org/2000/svg" class="svgIcon handDrawnArrow" viewBox="0 0 48 48">
	<path d="M43.6,35.9l-9-13c-0.6-0.9-1.9-1.1-2.8-0.5s-1.1,1.9-0.5,2.8l6,8.7c-0.6,0-1.3-0.1-2-0.1c-0.5,0-1-0.1-1.5-0.1
		c-0.5-0.1-1.1-0.2-1.7-0.2c-0.6-0.1-1.2-0.2-1.8-0.3c-0.6-0.1-1.3-0.2-1.9-0.4c-0.6-0.2-1.3-0.4-2-0.6c-0.7-0.2-1.3-0.5-2-0.8
		c-0.6-0.3-1.3-0.6-2-1c-0.6-0.4-1.3-0.7-1.9-1.2c-0.6-0.4-1.3-0.8-1.8-1.3L17.9,27L17,26.2c-0.6-0.5-1-1.1-1.5-1.7
		c-0.4-0.6-0.9-1.2-1.3-1.8c-0.9-1.2-1.5-2.6-2.1-3.9c-1.1-2.7-1.8-5.4-2.2-7.7C9.5,8.7,9.4,6.7,9.4,5.3c0-0.7,0-1.2,0-1.6
		c0-0.3,0-0.5,0-0.5l0-0.1C9.6,2.3,9,1.6,8.2,1.5C7.3,1.4,6.6,2,6.5,2.8c0,0,0,0.2-0.1,0.6c0,0.4-0.1,1-0.1,1.8c0,1.5,0,3.7,0.3,6.2
		C7,14,7.7,17,8.9,20c0.6,1.5,1.4,3.1,2.3,4.5c0.4,0.8,1,1.4,1.5,2.2c0.6,0.7,1.1,1.4,1.7,2l0.9,1l1,0.9c0.6,0.6,1.4,1.1,2.1,1.6
		c0.7,0.5,1.5,0.9,2.2,1.4c0.7,0.4,1.5,0.8,2.2,1.2c0.8,0.3,1.5,0.6,2.2,0.9c0.7,0.3,1.5,0.5,2.2,0.7c0.7,0.2,1.4,0.4,2.1,0.5
		c0.7,0.2,1.3,0.3,2,0.4c0.6,0.1,1.3,0.2,1.8,0.3c0.6,0.1,1.1,0.1,1.7,0.2c0.7,0.1,1.4,0.1,1.9,0.2l-8,5.3c-0.9,0.6-1.2,1.9-0.6,2.8
		c0.4,0.6,1,0.9,1.7,0.9c0.4,0,0.8-0.1,1.1-0.3l12-8c0.4-0.3,0.8-0.8,0.9-1.3S44,36.3,43.6,35.9z"/>
</svg>

