<svg xmlns="http://www.w3.org/2000/svg" class="svgIcon inPracticeHero" viewBox="0 0 192 184">
	<path fill="#6C4B84" d="M0,0v184h192V0H0z M7,178l57.7-40l120,10l-40.1,30H7z M186,178h-33l33-26V178z M186,130.5l-7.7-11.5v24
	c-10.8-0.6-60.9-5-60.9-5l3.5-21.1l-27.1-9.7L83.7,92.4l4.2-45.3l-3.7-1.2L79,26l2.8-2.2l3,9.5l-2-15.4l3.4-0.8l2.2,14.3L89.4,14h3
	l1.1,17.4l3.3-15.7h2.5l-1.1,21.5l4-6.4l2.2,0.9l-5,13.1L93,49.6l2.8,40.5l19.1,4.6c17,6.4,20.1-1.5,20.5-7
	c-4.2-0.5-8.1-1.1-11.5-2.2l3.3-10.1l-5.3,9.8l-9.6-2.8c0,0,15.7-31.6,15.7-46.8c0,0-0.8-9.5,6.2-11c0,0-3.9-1.4-7.6,4.7
	c0,0,3.4-14.3,14.3-7c0,0,26.1-13.2,31.6,14.3l-3.9-2.5l6.2,8.1l-5-1.1c0,0,4.8,32.4,12.9,43.3l-14.6,2.2l-4.2-10.3l2,11.8
	c0,0-4.2,0.3-10.2,0.4c2.6,13.2,24.5,7.2,24.5,7.2l5.8,9.9V130.5z"/>
</svg>

