<svg xmlns="http://www.w3.org/2000/svg" class="svgIcon interactiveLyrics" viewBox="0 0 24 24">
	<path d="M14,0h-4C4.5,0,0,4.5,0,10v4c0,5.5,4.5,10,10,10h4c5.5,0,10-4.5,10-10v-4C24,4.5,19.5,0,14,0z M18.1,12.2c0,0.4-0.1,0.9-0.3,1.4c-0.2,0.5-0.6,0.9-1,1.2c-0.4,0.3-0.8,0.4-1,0.4c-0.5,0.1-0.8,0.1-0.8,0.1v-2.6c0,0,0.2,0,0.3,0c0.1,0,0.2,0,0.2,0c0,0,0,0,0.1-0.1c0.1-0.2,0.2-0.9,0.2-1.6c0-0.6-0.2-1.2-0.5-1.5c-0.1-0.1-0.2-0.1-0.2-0.2c0,0,0,0,0,0l-0.3,0c-0.2,0-0.4-0.1-0.6-0.1C13.8,9.1,13.1,8.1,13,8v7v2c0,1.1-0.9,2-2,2H9c-1.1,0-2-0.9-2-2v-2c0-1.1,0.9-2,2-2h2V4.2C11,4.1,11,4,11,4h2h1c0,0,0.1,0.7,0.2,1.2C14.4,5.7,15,6.6,15,6.7c0,0,0,0,0,0l0,0l0.3,0c0.6,0.1,0.8,0.3,1.2,0.5c0.3,0.2,0.5,0.4,0.7,0.7c0.7,1,1,2.1,1,3.1C18.2,11.4,18.2,11.8,18.1,12.2z"/>
</svg>

