<svg xmlns="http://www.w3.org/2000/svg" class="svgIcon interaction" viewBox="0 0 27 35">
	<path fill="#181828" d="M9.1,16.9c0.5-0.3,0.7-0.9,0.4-1.3c-0.3-0.6-0.5-1.3-0.5-2C9,11,11,9,13.5,9s4.5,2,4.5,4.5c0,0.4-0.1,0.8-0.2,1.2
		c-0.1,0.5,0.2,1.1,0.7,1.2c0.5,0.1,1.1-0.2,1.2-0.7c0.2-0.6,0.2-1.2,0.2-1.8C20,9.9,17.1,7,13.5,7S7,9.9,7,13.5c0,1,0.2,2,0.7,3
		C7.9,16.8,8.2,17,8.6,17C8.8,17,8.9,17,9.1,16.9z"/>
	<path fill="#181828" d="M13.5,0C6.1,0,0,6.1,0,13.5c0,3.4,1.3,6.7,3.6,9.2C3.8,22.9,4.1,23,4.3,23c0.2,0,0.5-0.1,0.7-0.3c0.4-0.4,0.4-1,0.1-1.4
		c-2-2.1-3.1-4.9-3.1-7.8C2,7.2,7.2,2,13.5,2S25,7.2,25,13.5v0.2c0,1.1,0,2.1-0.3,3c-0.2,0.5,0.2,1.1,0.7,1.2
		c0.5,0.2,1.1-0.1,1.2-0.7c0.3-1.2,0.3-2.4,0.3-3.5v-0.2C27,6.1,20.9,0,13.5,0z"/>
	<path fill="#181828" d="M23,20c-1,0-1,0-1,1l-0.2,1h-0.6L21,20c0-1,0-1-1-1s-1,0-1,1l-0.2,2h-0.4L18,19c0-1,0-1-1-1s-1,0-1,1l-0.4,3h-0.1
		c-0.2,0-0.3,0-0.5,0v-8c0-0.6-0.4-2-1-2h-1c-0.6,0-1,1.4-1,2v7.8l-1.4-1.4c-0.6-0.6-1.5-0.6-2.1,0c-0.6,0.6-0.6,1.5,0,2.1L11,27
		c0,0,0,0,0.1,0c0.2,1.4,0.9,2.5,2,3.2L14,35h7l0.9-4.7c0.9-0.6,1.5-1.4,1.8-2.5C24,27.6,24,27.3,24,27v-0.5V22v-1
		C24,20,24,20,23,20z"/>
</svg>