<svg xmlns="http://www.w3.org/2000/svg" class="svgIcon participation" viewBox="0 0 79 105">
	<path fill="#A71C0E" d="M63.4,34l0.6-9.3l-8.7-1.6l-1.5,5.5c-0.6-0.2-1.2-0.5-1.9-0.7L50.5,2.8h-8.1l-0.1-2.7h-9.6l-0.2,6.1l-0.2-3.1l-10.4,1
		l0.4,6.5l-9.5,3l3.5,19.8C6.4,40.7,0,52.3,0,65.4c0,21.8,17.7,39.5,39.5,39.5S79,87.2,79,65.4C79,52.6,72.9,41.2,63.4,34z M34.1,1.5
		h6.8L42.3,35c-3.3,0-6.3,0.5-8.7,1L34.1,1.5z M31,4.7l1.9,31.5c-3.1,0.8-5.5,1.8-7,2.6L23.4,5.4L31,4.7z M59.9,64.6l-10.8,5.7
		l7.1,25.7c-16.8,10-27.7,1-27.7,1l2-25.9l-12.4-5.6L20,46.7l-5.6-32l6.8-2.2L25.4,39c-1,0.5-1.4,0.9-1.4,0.9v3.9
		c0.5-0.7,1.2-1.4,1.9-1.9l0.3-0.2c1.9-1.5,4.4-2.6,6.9-3.4l0.5-0.2c3.1-0.9,6.4-1.4,8.8-1.7l0.3,0c2.4-0.2,4-0.2,4-0.2L45.3,35
		c-0.9,0-1.7-0.1-2.6-0.1l1.1-30.8h5.3l2.1,36.9c-3.3,0.8-18.8,5.5-10.3,20.9c0,0-6-15.4,11-18.2v-2.8l4.5-16.1l6.1,1.1L59.9,64.6z"
		/>
</svg>

