<svg xmlns="http://www.w3.org/2000/svg" class="svgIcon print" viewBox="0 0 24 24">
	<path d="M21,6H3C1.4,6,0,7.3,0,9v7c0,1.7,1.3,3,3,3h2v4c0,0.5,0.5,1,1,1h12c0.5,0,1-0.5,1-1v-4h2c1.7,0,3-1.3,3-3V9
		C24,7.3,22.7,6,21,6z M17,22H7v-6h10V22z M21,16c0,0.6-0.4,1-1,1h-1v-2c0-0.6-0.4-1-1-1H6c-0.6,0-1,0.4-1,1v2H4c-0.6,0-1-0.4-1-1
		v-3c0-0.6,0.4-1,1-1h16c0.6,0,1,0.4,1,1V16z"/>
	<path d="M19,2c0-1.1-0.9-2-2-2H7C5.9,0,5,0.9,5,2v2h14V2z"/>
	<rect x="8" y="20" width="8" height="1"/>
	<rect x="8" y="18" width="8" height="1"/>
</svg>

