<svg xmlns="http://www.w3.org/2000/svg" class="svgIcon resources" viewBox="0 0 24 24">
	<path d="M21,0H7C5.9,0,5,0.9,5,2v15c0,1.1,0.9,2,2,2h14c1.1,0,2-0.9,2-2V2C23,0.9,22.1,0,21,0z M21,17H7V2h14V17z"/>
	<path d="M8.4,8.2l2.9,1.8c0.2,0.1,0.3,0.5,0.3,0.7l-1.1,3.1c-0.1,0.3,0,0.3,0.2,0.2l2.9-2.1c0.2-0.2,0.6-0.2,0.8,0l2.9,2.2
		c0.2,0.2,0.3,0.1,0.2-0.2l-1.1-3.3c-0.1-0.3,0-0.6,0.3-0.7l2.9-1.8C19.8,8.1,19.8,8,19.5,8h-3.6c-0.3,0-0.6-0.3-0.7-0.5L14.2,4
		c-0.1-0.3-0.2-0.3-0.3,0l-1.1,3.5C12.7,7.7,12.4,8,12.1,8H8.5C8.2,8,8.2,8.1,8.4,8.2z"/>
	<path d="M15,22H2V7h1V5H2C0.9,5,0,5.9,0,7v15c0,1.1,0.9,2,2,2h13c1.1,0,2-0.9,2-2v-1h-2V22z"/>
</svg>

