<svg xmlns="http://www.w3.org/2000/svg" class="svgIcon retention" viewBox="0 0 83 83">
	<g>
		<path fill="#579E1B" d="M62.2,29.5c0-8.7-7.1-15.8-15.8-15.8s-15.8,7.1-15.8,15.8s7.1,15.8,15.8,15.8S62.2,38.2,62.2,29.5z M55.1,37H38v-2h17.1V37
			z M55.1,34H38v-2h17.1V34z M55.1,31H38v-2h17.1V31z M55.1,28H38v-2h2.2c-0.1-0.8-0.5-6.9,6.2-6.9c0,0,7-0.8,7.1,6.9h1.6V28z"/>
		<path fill="#579E1B" d="M41.8,0C19,0,0,18.5,0,41.2C0,64,19,83,41.8,83C64.5,83,83,64,83,41.2C83,18.5,64.5,0,41.8,0z M63.4,73.2
			c0,0-23.5,12.3-41.4,0c0,0,12.5,5.4,13-10.5c-8.5,1.2-16,0.6-16,0.6l2-20.4h-4.8l7-13.2l-2-1.1l2.6-9.4h-7.5l9.5-4L19.2,13
			l16.1-3.3l-3.5-1.7C50.5,3.9,61.4,14,63.9,22.2c1.5,4.8,1.5,9,1.5,9c1.1,7.7-3.5,17.4-3.5,17.4c-3.2,5.2-8.3,7.4-12,9.5
			C49.3,62.4,48.8,68.8,63.4,73.2z"/>
		<path fill="#579E1B" d="M46.6,21.2c-3.2,0-4.1,2.7-4.4,4.8h9.3C51.5,21,46.6,21.2,46.6,21.2z"/>
	</g>
</svg>

