<svg xmlns="http://www.w3.org/2000/svg" class="svgIcon support" viewBox="0 0 72 44">
	<style type="text/css">
		.st0{fill:#285DC7;}
		.st1{fill:#153F82;}
		.st2{fill:#0B3168;}
		.st3{fill:#93817C;}
		.st4{fill:#B5B8BA;}
	</style>
	<g>
		<polygon class="st0" points="72,19.8 72,33.9 56.3,41.4 17.3,33.5 16.7,19.8 49.4,19.3 	"/>
		<polygon class="st1" points="43.2,5.5 45.9,0 61,0 61,7 58.3,7 58.4,2 47.2,1.9 45.3,6.3 	"/>
		<polygon class="st0" points="21.8,9.1 34.3,2.9 69.4,4.7 72,19.8 60.5,14.4 	"/>
		<polygon class="st2" points="30.9,22.9 30.2,22.9 31.7,26.9 39.9,28.4 40.6,28.4 41.5,24.4 39.9,24.1 39.4,25.4 32.1,24.4 	"/>
		<polygon class="st1" points="72,19.8 63.3,12.3 69.6,4.8 69.2,4.5 62.9,12 62.8,11.9 21.8,9.1 30.3,14.8 16.7,19.8 54.7,24.8 
			54.7,24.7 56.1,41.4 56.6,41.4 55.2,24.6 	"/>
		<polygon class="st2" points="35.5,12.1 40.1,6.8 47,7.2 47.5,8.2 44.7,13.8 36.4,12.9 	"/>
	</g>
	<path class="st3" d="M3.2,41.4l3.7,1.7c0,0,2.9-1,4.3-2.8l23.3,0.7c0,0,5.9,6.4,10.6,0.3l-1.2-3l-3,0.4L39.6,40l-3-2.3l2.2-2.2
		l2.5,2l4-0.4c0,0-2.4-4.9-4.9-5.9l-7.6,6L9.5,37.2l-2.5,1.4l-2.5-1.5l-0.4-2l1.8-1.2L9,35.6L7.8,33l-4.1-1.2l-2,3.1L3.2,41.4z"/>
	<path class="st4" d="M41.2,35.5l2.5-0.1c-4.4-10-9-1.2-9-1.2L11,33.9c-2.1-5.2-11.1-7.3-9.9,2.8c1.3,10.1,9.3,2.5,9.3,2.5l22.3-0.2
		c6.6,9.6,11-0.6,11-0.6l-3.4-0.2l-2.3,2.1L35,37.5l3.5-3.4L41.2,35.5z M7.9,37.1l-2.5,1.5l-2.5-1.4l0-2.9l2.5-1.5l2.5,1.4L7.9,37.1z
		"/>
	<g>
		<path class="st3" d="M11,38.1l0.2-3.1l0.2,0L33,35.1L32.9,38h-0.2L11,38.1z M11.6,35.3l-0.2,2.4l21.2-0.1l0.1-2.2L11.6,35.3z"/>
	</g>
</svg>

