<svg xmlns="http://www.w3.org/2000/svg" class="svgIcon wir" viewBox="0 0 177 24">
	<style type="text/css">
		.st0{fill:#181828;}
		.st1{fill:#A0A2A5;}
		.st2{fill:#898B8C;}
		.st3{fill:#666666;}
		.st4{fill:url(#SVGID_1_);}
		.st5{fill:url(#SVGID_2_);}
		.st6{fill:url(#SVGID_3_);}
		.st7{fill:url(#SVGID_4_);}
		.st8{fill:url(#SVGID_5_);}
		.st9{fill:url(#SVGID_6_);}
		.st10{fill:url(#SVGID_7_);}
		.st11{fill:url(#SVGID_8_);}
		.st12{fill:url(#SVGID_9_);}
		.st13{fill:url(#SVGID_10_);}
		.st14{fill:url(#SVGID_11_);}
		.st15{fill:url(#SVGID_12_);}
		.st16{fill:url(#SVGID_13_);}
		.st17{fill:url(#SVGID_14_);}
		.st18{fill:url(#SVGID_15_);}
		.st19{fill:url(#SVGID_16_);}
		.st20{fill:url(#SVGID_17_);}
		.st21{fill:url(#SVGID_18_);}
		.st22{fill:#FFFFFF;}
	</style>
	<path class="st0" d="M10.5,0h6l2,7.3l2-7.3h6l-4,11l1.5,5l5.5-16H37l-9,24h-6l-3.5-8.8L15,24H9L0,0h7.5L13,16l1.5-5L10.5,0z"/>
	<path class="st0" d="M53,18v6H36V0h17v6H43v3h8v5h-8v4H53z"/>
	<path class="st0" d="M71,18v6H54V0h17v6H61v3h8v5h-8v4H71z"/>
	<path class="st0" d="M72,24V0h7v9l7.5-9h7.3l-8.6,10.6L94.4,24H87l-6.5-9.8L79,16.6V24H72z"/>
	<path class="st0" d="M114,24V0h11.2c1.2,0,2.2,0.2,3.2,0.7c1,0.5,1.8,1.1,2.5,1.9c0.7,0.8,1.2,1.6,1.6,2.6c0.4,1,0.5,2,0.5,3
		c0,1.4-0.2,2.7-0.8,3.8c-0.6,1.2-1.4,2.2-2.5,2.9l5.3,9h-7.3l-4.5-8H121v8H114z M121,11h3c1,0,2,0,2-2.5c0-2.4-1-2.5-2-2.5h-3V11z"
		/>
	<path class="st0" d="M134.1,24L142,0h7l8,24h-7l-1.3-5h-6.3l-1.4,5H134.1z M145.6,6.8l-2.3,8.2h4.5L145.6,6.8z"/>
	<path class="st0" d="M158,24V0h10c3.8,0,5,1.2,6,2c2.1,1.8,3,3.3,3,6.2c0,2.8-1.4,4.4-3,5.8c-1.7,1.5-3,2-5.8,2H165v8H158z M165,11
		h3c1,0,2,0.1,2-2.5c0-2.5-1-2.5-2-2.5h-3V11z"/>
	<circle class="st1" cx="101.5" cy="11.5" r="11.5"/>
	<g>
		<g>
			<path class="st2" d="M95.1,19.6c0,0,0-0.2-0.3-0.1c-0.2,0.1-0.2,0.1-0.2,0.1s-0.1,0.1-0.1,0.1c-0.1,0-0.3-0.2-0.3-0.2v-0.3l0-0.3
				l0-0.3l-0.1-0.3l0.1-0.2l0-0.3l0.5-0.3l0.5,0l0.4,0.1l0.4-0.2l0.2-0.2c0,0,0.1,0,0.2,0c0.1,0,0.1,0.1,0.2,0.1c0.1,0,0.3,0.1,0.3,0
				c0.1,0,1,0.1,1.1,0.1c0.1,0,0.3,0,0.4,0c0.1,0,0.3,0.2,0.3,0.2s-0.1,0.1,0,0.2c0,0.1,0.2,0.2,0.3,0.2c0.1,0,0.2,0.1,0.3,0.1
				c0.1,0,0.2-0.1,0.3-0.1c0.1,0,0.2-0.2,0.3-0.1c0.1,0.1,0.1,0.2,0.2,0.2c0,0.1,0.1,0.2,0.2,0.1c0.1,0,0.2,0,0.3-0.1
				c0.1-0.1,0.2-0.2,0.2-0.2c0.1,0.1,0.2,0.2,0.2,0.3c0,0.1,0,0.2,0.1,0.3c0,0.1,0.2,0.3,0.2,0.3c0,0.1,0,0.2,0.1,0.2
				c0.1,0,0.2,0.1,0.3,0.1c0.1,0,0.2,0.2,0.1,0.3c0,0.1,0,0.3,0,0.3c0,0.1,0.1,0.2,0.2,0.3c0.1,0.1,0.1,0.1,0.1,0.2
				c0,0.2,0,0.2,0,0.3c0.1,0.1,0.1,0.2,0.1,0.3c0,0.2-0.2,0.5-0.2,0.5l-0.6,0.1c0,0-0.2,0.1-0.2,0.1c0,0.1-0.1,0.2-0.2,0.1
				c-0.1,0-0.3-0.2-0.4-0.3c-0.1,0-0.4-0.1-0.4-0.1c-0.1,0-0.5,0-0.5,0l-0.3,0.1c0,0-0.2,0.2-0.1,0.3c0.1,0.1,0.3,0.2,0.4,0.3
				c0.1,0.1,0.1,0.2,0.1,0.2c0,0.1-0.3,0.1-0.3,0.1h-0.5c0,0-0.5,0-0.6,0c-0.1,0-0.3-0.1-0.3-0.1c-0.1,0-0.3,0-0.3,0l-0.3,0l-0.4-0.1
				l-0.8-0.3l-0.1-0.1l-0.1-0.3c0,0-0.1-0.2-0.2-0.1c-0.1,0-0.2,0-0.3,0c-0.1,0-0.1-0.3-0.1-0.3c0-0.1,0.2-0.2,0.2-0.2s0-0.1-0.1-0.2
				c-0.1,0-0.1-0.2-0.1-0.2s0.2-0.1,0.3,0c0.1,0,0.2,0.1,0.3,0.1c0.1,0.1,0.2,0,0.3,0c0.1,0,0.2,0,0.2-0.1c0-0.1,0.1-0.1,0.1-0.1
				s0-0.1,0-0.2c-0.1-0.1-0.2-0.1-0.4-0.1c-0.1-0.1-0.1-0.1-0.2-0.2c-0.1-0.1-0.1-0.2-0.2-0.3c-0.1-0.1-0.1,0-0.3-0.1
				c-0.1,0-0.5-0.1-0.5-0.1H95.1z"/>
			<path class="st2" d="M91.4,13.6c0.1,0,0.4,0,0.4,0l0.5-0.2c0,0,0.2-0.4,0.2-0.5c0-0.1,0-0.2,0-0.3c0-0.1,0-0.2,0-0.3
				c0.1-0.1,0.3-0.2,0.3-0.2c0.1,0,0.4-0.1,0.4-0.1s0.2,0,0.4,0.1c0.2,0.1,0.2,0.1,0.4,0.1c0.2,0,0.4,0,0.5-0.1
				C94.7,12.1,95,12,95,12c0-0.1,0.2-0.1,0.2-0.2c0-0.1,0.2-0.2,0.2-0.3c0-0.1,0.1-0.3,0-0.3c-0.1-0.1-0.2-0.1-0.2-0.2
				c0-0.1,0.1-0.1,0.1-0.2c0-0.1-0.1-0.4-0.3-0.4c-0.1,0-0.3-0.1-0.4-0.1c-0.1,0-0.3,0-0.4,0c-0.1,0-0.3-0.1-0.3-0.2
				c0-0.1,0-0.2-0.1-0.3c-0.1,0-0.1-0.2-0.3-0.2c-0.1,0-0.3-0.1-0.4,0c0,0.1-0.1,0.3-0.1,0.3c-0.1,0-0.2-0.1-0.2-0.2
				c0-0.1,0-0.1-0.2-0.2c-0.1,0-0.4,0-0.5,0c-0.1,0.1-0.1,0.2-0.1,0.2s0.1,0.2,0,0.3c-0.1,0.1-0.2,0.2-0.3,0.3
				c-0.1,0.1-0.3,0.2-0.3,0.2c-0.1,0-0.1,0-0.1-0.2c0-0.2-0.1-0.3-0.2-0.2c-0.1,0.1-0.3,0.3-0.3,0.4c0,0.1,0.2,0.3,0.2,0.3
				c0,0.1,0.1,0.2,0.1,0.3c-0.1,0.1-0.1,0.1-0.2,0.2c-0.1,0.1-0.2,0.1-0.3,0.3c-0.1,0.1,0,0.3,0.1,0.4c0.1,0.1,0.2,0.2,0.2,0.3
				c0,0.1-0.1,0.1-0.2,0.2c-0.1,0.1-0.2,0.1-0.1,0.2c0.1,0.2,0.2,0.2,0.3,0.3c0.1,0.1,0.3,0.1,0.2,0.2c0,0.1-0.1,0.1-0.1,0.2
				c0,0.1,0,0.1,0,0.1L91.4,13.6z"/>
			<path class="st2" d="M90.5,9.7c0,0,0.1,0,0.3-0.2C91,9.2,91,9.2,91,9.2l0.1,0l0.2,0.1l0,0.1l0.2,0.1c0,0,0.1,0.1,0.1,0.2
				c0,0.1-0.2,0.1-0.1,0.2c0.1,0.1,0.3,0.1,0.3,0.1h0.1c0,0,0.3-0.3,0.2-0.3c-0.1,0-0.1-0.3-0.1-0.3c0-0.1,0.1-0.2,0.1-0.3
				c0-0.1,0.1-0.2,0.2-0.2c0.1,0,0.2-0.1,0.2-0.2c0-0.1-0.2-0.2-0.2-0.2s-0.1-0.1,0-0.1c0.1,0,0.2-0.1,0.2-0.1s0.1-0.2,0-0.2
				c-0.1,0-0.3,0-0.4,0.1c-0.1,0-0.3,0.2-0.4,0.2c-0.1,0.1-0.3,0.1-0.4,0.2c-0.1,0.1-0.3,0.1-0.3,0.2c0,0.1,0,0.3,0,0.3
				C91,8.9,90.9,9,90.8,9c-0.1,0.1-0.1,0.1-0.2,0.2C90.7,9.3,90.5,9.7,90.5,9.7z"/>
			<path class="st2" d="M94.6,7.8c0,0.1-0.2,0.3-0.2,0.3l-0.3,0.3l0.2,0c0,0,0.1,0,0.2-0.1c0-0.1,0.2-0.2,0.2-0.3
				c0-0.1,0.1-0.1,0.1-0.2C94.9,7.7,95,7.7,95,7.7l0.1,0l0.1,0.1L95.4,8c0,0,0.2,0,0.2,0c0.1,0,0.2,0,0.2,0l0.2,0.1c0,0,0,0,0.1,0
				c0.1,0,0.1-0.1,0.1-0.2c0-0.1,0-0.2-0.1-0.3C96.1,7.5,96,7.4,96,7.3c-0.1,0-0.2-0.1-0.2-0.2c0-0.1,0-0.1-0.1-0.2
				c-0.1-0.1-0.3-0.2-0.3-0.2c-0.1,0.1-0.2,0.3-0.1,0.4c0,0.1,0,0.2,0,0.2c-0.1,0.1-0.2,0.1-0.3,0.1c-0.1,0-0.1,0.1-0.2,0
				c-0.1,0-0.1-0.2-0.2-0.2c-0.1,0-0.4,0-0.3,0.1c0,0.1,0.2,0.1,0.2,0.1l0.2,0.1L94.6,7.8z"/>
			<path class="st2" d="M94.1,6.5L94,6.6l0.1,0.1c0,0.1,0.1,0.1,0.1,0.1s0.1,0,0.1-0.1c0-0.1-0.1,0,0-0.1c0.1-0.1,0.2,0,0.2,0
				s0.1,0,0.1,0c0.1,0,0.1,0,0.1,0l-0.1-0.1l-0.2,0l-0.1,0l-0.2,0l0-0.1C94.2,6.5,94.1,6.5,94.1,6.5z"/>
			<path class="st2" d="M95.2,5.5c0,0,0,0-0.1,0.1l0.1,0l0,0.1l-0.1,0.1L95.1,6l0,0.1l-0.1,0.1c0,0-0.1,0-0.2,0.1c-0.1,0,0,0-0.1,0
				c-0.1,0-0.1,0,0-0.2l0.2,0l0.1-0.2L95,5.8c0,0,0,0,0-0.1c0-0.1,0,0.1,0-0.2c0-0.3,0.1-0.1,0.2-0.2L95.2,5.5z"/>
			<path class="st2" d="M110.2,7.4c-0.1,0,0.2,0.1-0.5-0.2c-0.7-0.3,0.1,0.2-0.3-0.1c-0.4-0.2-0.2-0.2-0.4-0.2c-0.1,0-0.3,0-0.3,0
				c0,0.1,0,0.4,0.1,0.4c0.1,0,0.3,0.3,0.3,0.3s-0.4,0.3-0.4,0.3c-0.1,0-0.4,0.2-0.5,0.2c-0.1,0-0.2,0.2-0.3,0.2
				c-0.1,0-0.2,0.1-0.3,0.2c-0.1,0-0.3,0.2-0.3,0.4c0,0.2-0.1,0.6,0,0.7c0.1,0.2,0.2,0.3,0.2,0.4c0,0.1-0.1,0.2-0.1,0.3
				c0.1,0.1,0.2,0.2,0.4,0.1c0.2-0.1,0.2-0.2,0.3-0.2c0.1,0,0.2,0.1,0.2,0.2c0.1,0.1-0.1,0.2,0.1,0.3c0.2,0,0.3,0.1,0.3,0.2
				c0,0.1,0,0.3,0,0.4c-0.1,0.1-0.2,0.2-0.3,0.3c-0.1,0-0.3-0.1-0.4,0.1c-0.1,0.2,0,0.3,0,0.4c-0.1,0.1-0.3,0.3-0.5,0.3
				c-0.1,0-0.4,0.1-0.4,0.2c-0.1,0.1-0.3,0.2-0.2,0.3c0,0.2,0,0.3,0,0.4c0,0.1-0.2,0.1-0.1,0.3c0.1,0.2,0.4,0.2,0.4,0.3
				c0,0.2-0.2,0.3-0.3,0.3c-0.1,0.1-0.2,0.2-0.1,0.3c0,0.1,0.1,0.4,0.2,0.5c0,0.1,0.2,0.3,0.2,0.3c0,0.1,0.2,0.2,0.2,0.3
				c0,0.1,0,0.2,0.2,0.2c0.1,0,0.5-0.2,0.5-0.2s0.2-0.2,0.3-0.3c0.1-0.1,0.6-0.4,0.7-0.5c0.1-0.1,0.2-0.2,0.3-0.2
				c0.1,0,0.2,0,0.3-0.1c0-0.1,0.2-0.3,0.2-0.4c0-0.1,0-0.3,0-0.3c0-0.1,0-0.1,0-0.2c0-0.1,0.2-0.4,0.3-0.4c0.1-0.1,0.2-0.1,0.2-0.2
				c0-0.1,0.2-0.1,0.2-0.2c0-0.1,0.1-0.4,0.2-0.5c0.1-0.1,0.5-0.3,0.5-0.3l0.1,0.1c0,0,0.1-0.1,0.3,0c0.1,0.1,0.2,0.2,0.3,0.1
				c0.1,0,0.1-0.1,0.2-0.1c0.1,0,0.1-0.1,0.2-0.2c0-0.1,0-0.2,0.1-0.3c0-0.2,0.2-0.1,0.2-0.3c0-0.2,0-0.3,0-0.3s0-1.4-0.9-3.2
				l-0.4-0.1c0,0-0.1,0.2-0.2,0.2s-0.3-0.1-0.3-0.2c0-0.1-0.1-0.2-0.1-0.2c0-0.1-0.2-0.2-0.2-0.2L110.2,7.4z"/>
			<path class="st2" d="M107.9,3c0,0,1.6,1.3,2.4,2.8c0,0,0,0.1,0,0.2C110.3,6,110.1,6,110,6c-0.1-0.1-0.4-0.5-0.4-0.5l-0.4-0.3
				c0,0-0.4-0.2-0.5-0.2c-0.1,0.1-0.2,0.1-0.3,0.1c-0.1-0.1,0-0.3-0.2-0.4c-0.2-0.1-0.4-0.2-0.4-0.1c-0.1,0.2-0.3,0.5,0,0.5
				c0.3,0,0.1,0.2,0.4,0.1c0.3,0,0.4,0.1,0.5,0.1c0.1,0,0.3,0,0.4,0.2c0.1,0.2,0.2,0.2,0.2,0.4c0,0.2-0.3,0.1,0,0.2
				c0.3,0.1,0.4,0.1,0.3,0.2c-0.1,0.2-0.1,0.3-0.2,0.3c-0.1,0-0.7-0.4-0.7-0.4s-0.1,0-0.1,0.1c0,0.1,0,0.3,0,0.3l-0.2,0.2
				c0,0-0.3-0.1-0.4-0.2c-0.1-0.1-0.6-0.2-0.7-0.2c-0.1,0-0.6-0.1-0.6-0.1l-0.7-0.1c0,0-0.4,0.3-0.4,0.4c0,0.1-0.4,0.3-0.4,0.2
				c0-0.1-0.2-0.2-0.3-0.3c-0.1-0.1-2.2-1.2-2.3-1.2c-0.1,0-1.3-0.3-1.3-0.3s-2.5-0.4-2.6-0.3c0,0.1-0.7-0.3-0.9-0.2
				C97.3,4.6,97,4.7,97,4.7l-0.6,0.2c0,0-0.3-0.1-0.4-0.2c0-0.1-0.1-0.3,0-0.4c0.1-0.1,0.2-0.3,0.3-0.5c0.1-0.1,0.4-0.3,0.5-0.4
				c0.1-0.1,0.4-0.2,0.4-0.3c0-0.1-0.1-0.3-0.2-0.3c-0.1,0-0.4,0.1-0.4,0.1L96.2,3c0,0-0.1-0.2-0.2-0.1c-0.1,0.1-0.3,0.2-0.3,0.3
				c0,0.1-0.1,0.2-0.2,0.3c-0.1,0.1-0.2,0.1-0.2,0.2c0,0.1,0,0.3-0.1,0.3c-0.1-0.1-0.2-0.3-0.2-0.4c0-0.1,0.1-0.2,0.1-0.2l0.2,0
				l0.2-0.2l0.1-0.2l-0.2-0.1h-0.2l-0.2,0l-0.2-0.2l0.2-0.2l0.2-0.2l-0.2-0.1c0,0-0.2,0.1-0.2,0c0-0.1-0.1,0.1,0-0.1
				c0.1-0.2,0.2-0.3,0.2-0.3l0.8-0.5c0,0,2.6-1.3,7.3-0.5C102.9,0.8,105.3,1.1,107.9,3z"/>
			<path class="st2" d="M94.2,3.3c0,0,0.1-0.2,0.3,0c0.2,0.2,0,0,0.1,0.1c0.2,0.1,0.2,0.3,0.2,0.3l-0.1,0.2l-0.2,0l-0.1-0.1
				c0-0.1-0.1-0.2-0.1-0.2l-0.2,0.1l-0.2,0L94,3.5L94.2,3.3z"/>
			<path class="st2" d="M93.6,8.7c0.1,0.1,0.5,0.2,0.5,0.2L94.2,9l0.1,0.2L93.6,8.7z"/>
		</g>
	</g>
	<g>
		<path class="st3" d="M104.8,0.9c0,0,2.1,0.5,4.1,2.2l0.4,0.3c0,0,0.1,0.3,0.1,0.4c0.1,0.1,0.2,0.3,0.3,0.3c0.1,0.1,0.1,0.3,0.1,0.3
			l-0.1,0.2l-0.2-0.1L109,4.2l-0.4-0.3l-0.1-0.3l-0.2-0.4L108,3l-0.3-0.3c0,0-0.1-0.3-0.1-0.3c-0.1,0-0.4,0-0.4,0L107,2.1l-0.3-0.2
			c0,0-0.2-0.2-0.3-0.2c-0.1,0-0.4,0.1-0.4,0.1l-0.3-0.2l-0.2-0.3l-0.2-0.1l-0.1,0.1c0,0,0.1,0.3,0.2,0.3c0.1,0.1,0.2,0.2,0.2,0.3
			c0,0.1,0,0.3,0.1,0.3c0.1,0,0.3-0.1,0.4,0c0.1,0.1,0,0.1,0.2,0.3c0.2,0.1,0.3,0.2,0.4,0.3c0.1,0.1,0.3,0.2,0.3,0.3
			c0,0.1,0.3,0.2,0.3,0.2s0.2,0,0.3,0.1c0.1,0.1,0.1,0.2,0.2,0.3c0,0.1,0.1,0.1,0.1,0.2c0,0.1-0.1,0-0.2-0.1
			c-0.1-0.1-0.2-0.2-0.2-0.2s-0.1,0.3,0,0.3c0,0,0.1,0,0.1,0.1c0.1,0.1,0.1,0.1,0.1,0.1s0.2,0,0.1,0.1c-0.1,0.1-0.2,0.2-0.2,0.2
			l-0.2,0L106.9,4c0,0-0.1-0.2,0.1-0.1c0.1,0,0.2,0.1,0.2,0.1L107,3.7l-0.1-0.1c0,0-0.1-0.1,0-0.2c0.1-0.1,0-0.2-0.1-0.3
			c-0.1,0-0.2,0.1-0.2,0.1c0,0.1,0.1,0.3,0.1,0.3l0,0.2h-0.2c0,0-0.1-0.2-0.1-0.3c0-0.1,0.1-0.3,0.1-0.4c0-0.1,0-0.2,0-0.2l-0.1-0.1
			L106,2.5l-0.3-0.2l-0.2,0.1c0,0-0.1,0.2,0.1,0.2c0.1,0,0.2,0.2,0.2,0.2c0,0.1,0.1,0.3,0,0.3c-0.1,0-0.3,0.1-0.3,0
			c0-0.1-0.2-0.4-0.2-0.4l0.1-0.2c0,0-0.1-0.1-0.2-0.1c-0.1-0.1-0.2-0.2-0.1-0.3c0.1-0.1,0.1-0.1,0.2-0.2c0-0.1-0.1-0.2-0.1-0.2
			l-0.3-0.1c0,0-0.3-0.2-0.3-0.3c0-0.1,0.1-0.2,0.2-0.3c0.1-0.1,0.1-0.1,0.1-0.1l-0.1-0.2L104.8,0.9z"/>
		<path class="st3" d="M102.6,1.2c-0.1,0-0.6,0.1-0.3,0.2c0.3,0.1,0.1,0.2,0.2,0.2c0.1,0,0.1,0,0.1,0l0.2-0.2l0.1,0.2
			c-0.3,0.1-0.4,0-0.3,0.1c0.2,0.1,0.3,0.1,0.3,0.1l0.1,0.1c0,0-0.1,0.2-0.2,0.1c-0.1-0.1-0.4-0.1-0.4-0.1S102.4,2,102.5,2
			c0.2,0,0.2,0.1,0.3,0.1c0.2,0,0.2,0.1,0.3,0.1c0.1,0,0.2,0.1,0.2,0.1s0.3,0.1,0.3,0.1c0.1,0,0.1,0,0.1,0s0.1-0.2,0.1-0.2
			c0.1,0,0.1-0.1,0.1-0.1l-0.1-0.2l-0.2-0.2l-0.2-0.1l-0.1-0.1l-0.1-0.2L103,1.3h-0.2L102.6,1.2z"/>
		<g>
			<path class="st3" d="M104.4,2.2C104.4,2.2,104.4,2.2,104.4,2.2C104.4,2.2,104.4,2.2,104.4,2.2z"/>
			<path class="st3" d="M104.4,2.2C104.4,2.2,104.4,2.2,104.4,2.2C104.4,2.2,104.4,2.2,104.4,2.2z"/>
			<path class="st3" d="M105.9,16.2C105.9,16.2,105.8,16.2,105.9,16.2C105.8,16.2,105.9,16.2,105.9,16.2z"/>
			<path class="st3" d="M109.6,6.5c-0.2-0.1-0.3,0-0.3,0s-0.1,0.1-0.2,0c-0.1-0.1,0-0.2,0-0.2l0.2-0.1c0,0,0-0.1-0.2-0.2
				c-0.2-0.1-0.4-0.2-0.4-0.2l-0.2-0.3c0,0-0.2-0.2-0.2-0.3c0-0.1-0.3-0.3-0.3-0.3s-0.1,0.1-0.1,0.2c0,0.1-0.1,0.1-0.1,0.1L107.5,5
				l-0.2-0.2c0,0-0.1,0-0.1-0.1c-0.1-0.1-0.4-0.1-0.4-0.1s-0.1-0.1-0.2-0.2c-0.1-0.1-0.2-0.1-0.2,0.2c0,0.3,0,0.4,0.1,0.5
				c0.1,0.1,0.3,0.3,0.2,0.4c-0.1,0.1-0.2,0.2-0.2,0.3c0,0.2,0.1,0.2,0.1,0.3c0,0.2,0.1,0.4,0,0.5c-0.1,0.1-0.2,0.2-0.3,0.1
				c-0.1-0.1-0.2-0.2-0.2-0.2s-0.3-0.1-0.3-0.2c0-0.1,0-0.5,0-0.5s-0.1-0.2-0.1-0.2c-0.1,0-0.5-0.1-0.5-0.1l-0.2-0.2
				c0,0-0.1-0.2-0.2-0.2c-0.1,0-0.2-0.2-0.2-0.2L104.4,5l-0.1-0.3l-0.1-0.2c0,0-0.2,0-0.2-0.1c0-0.1,0.2-0.2,0.2-0.3
				c0.1-0.1,0.3-0.2,0.3-0.3c0-0.1,0.1-0.2,0.2-0.3c0.1-0.1,0.1-0.1,0.1-0.1l0.1-0.3L104.9,3c0,0-0.2-0.1-0.2-0.2c0-0.1,0-0.1,0-0.1
				s-0.1-0.2-0.2-0.3c-0.1-0.1-0.2-0.2-0.2-0.2L104.1,2c0,0-0.3-0.2-0.1,0.1c0.3,0.3,0.2,0,0.2,0.2c0.1,0.2,0.1,0.2,0.1,0.2
				c0.1,0.2,0.1,0.3,0.1,0.3s-0.3,0.2-0.3,0.2c-0.1-0.1-0.4-0.2-0.4-0.2c-0.1,0-0.3-0.1-0.3-0.1l-0.3,0.1L103,2.6l-0.2-0.1l-0.1-0.2
				l-0.2,0l-0.1-0.1l-0.3-0.4l-0.4-0.1c0,0-0.3,0-0.2-0.1c0.1-0.1-0.2-0.2-0.2-0.2L101,1.8l-0.4-0.3l-0.1-0.3L100.3,1L99.9,1
				l-0.5,0.1c0,0-0.2,0-0.3,0c-0.1,0-0.3,0.2-0.3,0.2l-0.2-0.2c0,0-0.1-0.1,0-0.1c0.1-0.1,0.3-0.3,0.3-0.3l-0.7,0.1l-0.4,0.2
				l-0.2,0.2c0,0,0.1,0.1,0.3,0.1c0.1-0.1,0.3-0.1,0.3-0.1l0.2,0l0.1,0.1l-0.1,0.2l-0.3,0.1c0,0-0.2,0-0.3,0.1
				c-0.1,0-0.2,0.1-0.3,0.2C97.4,1.9,97.4,2,97.4,2s-0.1,0.1,0,0.2c0.1,0,0.2,0.1,0.3,0.1c0.1-0.1,0.2-0.1,0.3-0.1
				c0.1-0.1,0.3,0,0.3,0s0.2,0.1,0.2,0.2c0.1,0.1,0.1,0.2,0.2,0.2c0.1,0,0.2,0,0.2,0.1C99,2.8,99,3,99,3l-0.1,0.2
				c0,0,0.2,0.2,0.1,0.3c-0.1,0.1-0.2,0.2-0.2,0.3c0,0.1,0,0.2,0.1,0.3c0,0.1-0.1,0.1-0.1,0.2c-0.1,0.1,0,0.3,0,0.3L99,4.8
				c0,0,0.1,0.1,0.1,0.3c0,0.2,0,0.4,0,0.4c-0.1-0.3-0.2-0.3-0.3-0.4c-0.1-0.1-0.1-0.1-0.1-0.1l-0.2,0.2l0.2,0.2l0.2,0.2l0,0.2
				c-0.1-0.1-0.2-0.3-0.2-0.3c-0.1,0-0.1,0.1-0.1,0.1l0.1,0.2l-0.1,0.2L98.4,6l-0.3,0.4L98,6.8c0,0-0.1,0.3-0.2,0.4
				c0,0.1-0.1,0.5-0.1,0.6c0,0.1,0.1,0.4,0.1,0.5c0,0.1,0.1,0.3,0.1,0.3c0.1,0.1,0.2,0.2,0.2,0.2l0.1,0.4l0,0.4l0.2,0.4l0.1,0.2
				l-0.1,0.1l-0.1,0.1l0.2,0.2l0.1,0.2c0,0,0.1,0.2,0.1,0.3c0,0.1,0.1,0.3,0.2,0.4c0.1,0.1,0.2,0.3,0.2,0.3L99,11.2
				c0,0-0.1-0.3-0.1-0.3c0-0.1-0.1-0.3-0.1-0.3l-0.2-0.1c0,0,0-0.1,0.1-0.2c0.1-0.1,0-0.3,0-0.3c-0.2-0.2-0.2-0.3-0.2-0.4
				c0-0.1,0.1-0.1,0.2-0.1c0.1,0,0.2,0.1,0.2,0.2c0,0.1,0.2,0.2,0.1,0.3c0,0.1-0.1,0.1,0,0.3c0.1,0.2,0.2,0.3,0.2,0.4
				c0.1,0.2,0.2,0.3,0.2,0.4c0,0.1-0.1,0.1,0,0.2c0.1,0.1,0.2,0.2,0.2,0.3c0.1,0.1,0.3,0.2,0.3,0.3c0,0.1,0.1,0.3,0.1,0.3
				c0,0.1,0,0.2,0,0.3c0,0.1-0.1,0.2-0.1,0.3c0,0.1,0,0.1,0.1,0.2c0.1,0.1,0.2,0.2,0.2,0.3c0,0.1,0.3,0.2,0.4,0.2
				c0.1,0,0.2,0.3,0.4,0.3c0.2,0,0.3,0.3,0.4,0.3c0.1,0,0.2,0.1,0.3,0.2c0.1,0,0.3,0.1,0.3,0.1h0.3c0,0,0.3,0.1,0.4,0.1
				c0.1,0,0.2,0.1,0.3,0.2c0.1,0.1,0.2,0.3,0.3,0.3c0.1,0,0.3,0.2,0.4,0.2c0.1,0,0.3,0.1,0.3,0.1s0.1,0.1,0.2,0.2
				c0.1,0.1,0.3,0.2,0.3,0.2s0.2,0,0.2,0.1c0.1,0.1,0.1,0.1,0.2,0.2c0,0.1,0,0.1,0,0.1l-0.3-0.1l-0.1,0c0,0,0,0.2,0.1,0.2
				c0.1,0,0.3,0.1,0.3,0.1s0.1,0.1,0.2,0.2c0.1,0.1,0.2,0.1,0.2,0.2c0.1,0.1,0.2,0.1,0.3,0.1c0.1,0,0.2,0,0.2,0s0.1-0.1,0.2-0.1
				c0.1,0,0.1,0,0.1,0s0,0,0,0c0,0,0,0,0,0c0,0,0,0,0,0c0,0,0,0,0,0c0,0,0,0,0,0c0,0,0,0,0,0c0.2,0.1,0.3,0.1,0.3,0.1l0-0.3l-0.2-0.1
				h-0.3l-0.2,0.1l-0.2,0l-0.2-0.1c0,0,0-0.1,0-0.1c0-0.1,0-0.2,0-0.2s0-0.1,0-0.2c0-0.1-0.1-0.1,0-0.2c0.1-0.1-0.1,0,0.1-0.1
				c0.1-0.2,0.1-0.2,0.1-0.2l-0.2-0.2l-0.1-0.1l-0.1-0.1l-0.4,0l-0.3,0.1l-0.3,0l-0.1-0.2l0.1-0.2l0.1-0.1l0.1-0.2l0.2-0.1
				c0.1,0,0.1-0.3,0.1-0.3s0-0.1,0.1-0.2c0-0.1,0-0.2,0-0.2l-0.3,0.1l-0.2,0.1l-0.2,0.2l-0.3,0.2l-0.3,0.1l-0.4,0l-0.3-0.2
				c0,0-0.1-0.3-0.2-0.4c0-0.1-0.1-0.1-0.2-0.2c-0.1-0.1-0.2-0.2-0.2-0.2s-0.1-0.2-0.1-0.3c0.1-0.1,0.1-0.1,0.1-0.2
				c0.1-0.1,0.1-0.2,0.1-0.2s-0.1-0.1-0.1-0.2s0-0.1,0.1-0.1c0.1-0.1,0.2-0.2,0.2-0.2s-0.1-0.1-0.1-0.2c0-0.1,0-0.2,0.1-0.2
				c0.1-0.1,0.2,0,0.3-0.1c0.2-0.1,0.4-0.1,0.4-0.1h0.3c0,0,0.2-0.1,0.3,0c0.1,0.1,0.3,0.2,0.4,0.2c0.1,0,0.2,0.1,0.3-0.1
				c0.1-0.1,0.2-0.2,0.3-0.2c0.1,0,0.3,0.1,0.4,0.1c0.2,0.1,0.3,0.2,0.4,0.2c0.1,0,0.3,0,0.3,0s0,0.2,0.1,0.3
				c0.1,0.1,0.2,0.3,0.3,0.4c0.1,0.1,0.1,0.2,0.1,0.3c0,0.1,0.1,0.2,0.1,0.2s0.1,0,0.2-0.1c0-0.1-0.1-0.3-0.1-0.5
				c-0.1-0.2-0.1-0.3-0.1-0.4c-0.1-0.1-0.1-0.2-0.1-0.3c0-0.1,0-0.1,0.1-0.2c0.1-0.1,0.2-0.2,0.3-0.2c0.1-0.1,0.3-0.1,0.3-0.1
				c0-0.1,0.1-0.2,0.1-0.2s0.1-0.3,0.1-0.3c0-0.1,0-0.3,0-0.3s0-0.4,0.1-0.4c0.1-0.1,0.2-0.1,0.2-0.1s0.2,0,0.1,0.1
				c0,0.1,0.3-0.3,0.3-0.3s0-0.1,0.1-0.2c0.1-0.1,0-0.2,0.2-0.3c0.2-0.1,0.3,0,0.3-0.1c0-0.1,0-0.2,0-0.3c0-0.1,0.1-0.2,0.1-0.2
				l0.2-0.1l0.3-0.3c0,0,0-0.2-0.1-0.3c-0.1-0.1-0.1-0.2-0.1-0.2s0-0.2-0.1-0.2c-0.1,0.1-0.2,0.3-0.3,0.4c-0.1,0.1-0.2,0.3-0.2,0.1
				c0-0.1,0-0.3,0.1-0.4c0.1-0.1,0.2-0.2,0.2-0.2s0.1-0.2,0.2-0.2c0.1,0,0.3,0.1,0.3,0.1c0.1,0,0.1,0.1,0.2,0
				c0.1-0.1,0.2-0.1,0.2-0.1l0.1-0.2C109.5,6.8,109.7,6.6,109.6,6.5z M101.3,2.4l0.2,0.1l0.2,0l0.2,0.1l-0.1,0.1h-0.2l-0.3-0.1
				C100.9,2.5,101.3,2.4,101.3,2.4z M102.4,3.4c-0.1,0.1-0.2,0.2-0.3,0.2c-0.1,0-0.3,0-0.4,0c-0.1,0-0.4,0-0.4,0
				c-0.1-0.1-0.1-0.2-0.1-0.2c0.1,0,0.1,0,0.3-0.1c0.2-0.1-0.1-0.2,0.1-0.2c0.2,0,0.1,0,0.2,0c0.1,0,0.1,0.2,0.1,0.2s0.2,0,0.3-0.1
				c0.1,0,0.2,0,0.2,0S102.5,3.3,102.4,3.4z M103.7,6.3l-0.1-0.1L103.5,6l-0.2-0.2l-0.1-0.2l0.3-0.1c0,0,0,0,0,0.2l0.1,0.2l0.1,0.2
				L103.7,6.3z M107.4,8.5c0.1,0.1-0.2,0.3-0.2,0.3H107l-0.2,0.1h-0.2c0,0-0.1-0.1-0.2-0.1c-0.1,0-0.1,0-0.1,0.1c0,0.1,0,0.2,0,0.2
				s-0.2,0-0.3,0c-0.1,0-0.1-0.1-0.2-0.2c0-0.1,0.1-0.2,0.1-0.3c0-0.1-0.1-0.2-0.1-0.2s-0.2-0.2-0.3-0.2c-0.1,0-0.2,0-0.3,0.1
				c-0.1,0.1,0.1,0.2,0.1,0.3c0,0.1-0.2,0.3-0.2,0.3s-0.1-0.2-0.2-0.3c-0.1-0.1-0.1-0.2-0.1-0.3c0-0.1,0.1-0.2,0.1-0.2
				c0.1-0.1-0.1-0.3-0.1-0.3s0,0-0.1,0c-0.1,0-0.2,0-0.3,0c-0.1,0.1-0.4-0.1-0.4-0.1s0,0,0.2-0.2c0.2-0.2-0.2,0.2,0.4-0.1
				c0.5-0.4,0.3-0.1,0.4-0.2c0,0,0.1,0.1,0.3,0.2c0,0,0.1,0.1,0.1,0.3c0,0.1,0,0-0.1,0.1c-0.1,0.1-0.1,0.3-0.1,0.3l0.2,0.1h0.3l0.2,0
				c0,0,0.3-0.1,0.4-0.1c0.1,0,0.2,0.1,0.2,0.1s0,0.2-0.2,0.2c-0.1,0.1-0.1,0.1-0.2,0.1c-0.1,0.1,0.1,0.3,0.1,0.3s0,0,0.1-0.1
				c0.1-0.1,0.1-0.1,0.2,0c0.1,0,0,0.2,0.1,0.2c0.1,0,0.1,0,0.1,0s0.1-0.1,0.2-0.2c0.1-0.1,0.2-0.1,0.4-0.1
				C107.5,8.4,107.3,8.4,107.4,8.5z"/>
			<path class="st3" d="M104.4,2.2C104.4,2.2,104.4,2.2,104.4,2.2C104.4,2.2,104.4,2.2,104.4,2.2z"/>
			<path class="st3" d="M104.4,2.2C104.4,2.2,104.4,2.2,104.4,2.2C104.4,2.2,104.4,2.2,104.4,2.2z"/>
			<path class="st3" d="M103,5.3c0,0.1-0.3-0.3,0,0.3c0.3,0.6,0.2,0,0.3,0.3c0,0,0,0,0,0c0-0.1-0.1-0.3-0.1-0.3L103,5.3z"/>
			<path class="st3" d="M103.3,6C103.3,6,103.3,6,103.3,6C103.3,6,103.3,6,103.3,6z"/>
			<path class="st3" d="M103.3,6.1C103.3,6.1,103.3,6.1,103.3,6.1C103.3,6.1,103.3,6.1,103.3,6.1z"/>
			<path class="st3" d="M103.3,6.1C103.3,6.1,103.3,6.1,103.3,6.1C103.3,6.1,103.3,6.1,103.3,6.1z"/>
			<path class="st3" d="M103.3,6.1C103.3,6.1,103.3,6.1,103.3,6.1C103.3,6.1,103.3,6.1,103.3,6.1z"/>
			<path class="st3" d="M103.3,6.1C103.3,6.1,103.3,6.1,103.3,6.1L103.3,6.1z"/>
			<path class="st3" d="M103.3,6C103.3,6,103.3,6.1,103.3,6C103.3,6.1,103.3,6,103.3,6z"/>
			<path class="st3" d="M103.3,6.1C103.3,6.1,103.3,6.1,103.3,6.1C103.3,6.1,103.3,6.1,103.3,6.1z"/>
			<path class="st3" d="M103.3,6C103.3,6,103.3,6,103.3,6C103.3,6,103.3,6,103.3,6z"/>
		</g>
	</g>
	<g>
		
			<radialGradient id="SVGID_1_" cx="809.8751" cy="1.2038" r="18.1505" gradientTransform="matrix(1 0 0 1 -715.4414 0)" gradientUnits="userSpaceOnUse">
			<stop  offset="0" style="stop-color:#FFE064"/>
			<stop  offset="0.2431" style="stop-color:#FFC63C"/>
			<stop  offset="0.5458" style="stop-color:#F79920"/>
			<stop  offset="0.836" style="stop-color:#F37524"/>
			<stop  offset="1" style="stop-color:#EF4D23"/>
		</radialGradient>
		<path class="st4" d="M104.3,0.5c0,0,2.1,0.5,4.1,2.2l0.4,0.3c0,0,0.1,0.3,0.1,0.4c0.1,0.1,0.2,0.3,0.3,0.3c0.1,0.1,0.1,0.3,0.1,0.3
			l-0.1,0.2L108.9,4l-0.4-0.3l-0.4-0.3l-0.1-0.3l-0.2-0.4l-0.3-0.3l-0.3-0.3c0,0-0.1-0.3-0.1-0.3c-0.1,0-0.4,0-0.4,0l-0.3-0.3
			l-0.3-0.2c0,0-0.2-0.2-0.3-0.2c-0.1,0-0.4,0.1-0.4,0.1L105,1.1l-0.2-0.3l-0.2-0.1l-0.1,0.1c0,0,0.1,0.3,0.2,0.3
			c0.1,0.1,0.2,0.2,0.2,0.3c0,0.1,0,0.3,0.1,0.3c0.1,0,0.3-0.1,0.4,0c0.1,0.1,0,0.1,0.2,0.3c0.2,0.1,0.3,0.2,0.4,0.3
			c0.1,0.1,0.3,0.2,0.3,0.3c0,0.1,0.3,0.2,0.3,0.2s0.2,0,0.3,0.1c0.1,0.1,0.1,0.2,0.2,0.3c0,0.1,0.1,0.1,0.1,0.2c0,0.1-0.1,0-0.2-0.1
			c-0.1-0.1-0.2-0.2-0.2-0.2s-0.1,0.3,0,0.3c0,0,0.1,0,0.1,0.1c0.1,0.1,0.1,0.1,0.1,0.1s0.2,0,0.1,0.1c-0.1,0.1-0.2,0.2-0.2,0.2
			l-0.2,0l-0.2-0.2c0,0-0.1-0.2,0.1-0.1c0.1,0,0.2,0.1,0.2,0.1l-0.3-0.3l-0.1-0.1c0,0-0.1-0.1,0-0.2c0.1-0.1,0-0.2-0.1-0.3
			c-0.1,0-0.2,0.1-0.2,0.1c0,0.1,0.1,0.3,0.1,0.3l0,0.2h-0.2c0,0-0.1-0.2-0.1-0.3c0-0.1,0.1-0.3,0.1-0.4c0-0.1,0-0.2,0-0.2l-0.1-0.1
			l-0.3-0.1l-0.3-0.2L105,2c0,0-0.1,0.2,0.1,0.2c0.1,0,0.2,0.2,0.2,0.2c0,0.1,0.1,0.3,0,0.3c-0.1,0-0.3,0.1-0.3,0
			c0-0.1-0.2-0.4-0.2-0.4l0.1-0.2c0,0-0.1-0.1-0.2-0.1c-0.1-0.1-0.2-0.2-0.1-0.3c0.1-0.1,0.1-0.1,0.2-0.2c0-0.1-0.1-0.2-0.1-0.2
			l-0.3-0.1c0,0-0.3-0.2-0.3-0.3c0-0.1,0.1-0.2,0.2-0.3c0.1-0.1,0.1-0.1,0.1-0.1l-0.1-0.2L104.3,0.5z"/>
		
			<radialGradient id="SVGID_2_" cx="809.8751" cy="1.2038" r="18.1505" gradientTransform="matrix(1 0 0 1 -715.4414 0)" gradientUnits="userSpaceOnUse">
			<stop  offset="0" style="stop-color:#FFE064"/>
			<stop  offset="0.2431" style="stop-color:#FFC63C"/>
			<stop  offset="0.5458" style="stop-color:#F79920"/>
			<stop  offset="0.836" style="stop-color:#F37524"/>
			<stop  offset="1" style="stop-color:#EF4D23"/>
		</radialGradient>
		<path class="st5" d="M102.1,0.8c-0.1,0-0.6,0.1-0.3,0.2c0.3,0.1,0.1,0.2,0.2,0.2c0.1,0,0.1,0,0.1,0l0.2-0.2l0.1,0.2
			c-0.3,0.1-0.4,0-0.3,0.1c0.2,0.1,0.3,0.1,0.3,0.1l0.1,0.1c0,0-0.1,0.2-0.2,0.1c-0.1-0.1-0.4-0.1-0.4-0.1s-0.2,0.1-0.1,0.2
			c0.2,0,0.2,0.1,0.3,0.1c0.2,0,0.2,0.1,0.3,0.1c0.1,0,0.2,0.1,0.2,0.1s0.3,0.1,0.3,0.1c0.1,0,0.1,0,0.1,0s0.1-0.2,0.1-0.2
			c0.1,0,0.1-0.1,0.1-0.1l-0.1-0.2l-0.2-0.2l-0.2-0.1l-0.1-0.1l-0.1-0.2l-0.1-0.1h-0.2L102.1,0.8z"/>
		<g>
			
				<radialGradient id="SVGID_3_" cx="809.8751" cy="1.2038" r="18.1505" gradientTransform="matrix(1 0 0 1 -715.4414 0)" gradientUnits="userSpaceOnUse">
				<stop  offset="0" style="stop-color:#FFE064"/>
				<stop  offset="0.2431" style="stop-color:#FFC63C"/>
				<stop  offset="0.5458" style="stop-color:#F79920"/>
				<stop  offset="0.836" style="stop-color:#F37524"/>
				<stop  offset="1" style="stop-color:#EF4D23"/>
			</radialGradient>
			<path class="st6" d="M103.8,1.8C103.8,1.8,103.8,1.8,103.8,1.8C103.8,1.8,103.8,1.8,103.8,1.8z"/>
			
				<radialGradient id="SVGID_4_" cx="809.8751" cy="1.2038" r="18.1505" gradientTransform="matrix(1 0 0 1 -715.4414 0)" gradientUnits="userSpaceOnUse">
				<stop  offset="0" style="stop-color:#FFE064"/>
				<stop  offset="0.2431" style="stop-color:#FFC63C"/>
				<stop  offset="0.5458" style="stop-color:#F79920"/>
				<stop  offset="0.836" style="stop-color:#F37524"/>
				<stop  offset="1" style="stop-color:#EF4D23"/>
			</radialGradient>
			<path class="st7" d="M103.8,1.8C103.8,1.8,103.8,1.8,103.8,1.8C103.8,1.8,103.8,1.8,103.8,1.8z"/>
			
				<radialGradient id="SVGID_5_" cx="809.8751" cy="1.2038" r="18.1505" gradientTransform="matrix(1 0 0 1 -715.4414 0)" gradientUnits="userSpaceOnUse">
				<stop  offset="0" style="stop-color:#FFE064"/>
				<stop  offset="0.2431" style="stop-color:#FFC63C"/>
				<stop  offset="0.5458" style="stop-color:#F79920"/>
				<stop  offset="0.836" style="stop-color:#F37524"/>
				<stop  offset="1" style="stop-color:#EF4D23"/>
			</radialGradient>
			<path class="st8" d="M105.3,15.8C105.3,15.8,105.3,15.8,105.3,15.8C105.3,15.8,105.3,15.8,105.3,15.8z"/>
			
				<radialGradient id="SVGID_6_" cx="809.8751" cy="1.2038" r="18.1505" gradientTransform="matrix(1 0 0 1 -715.4414 0)" gradientUnits="userSpaceOnUse">
				<stop  offset="0" style="stop-color:#FFE064"/>
				<stop  offset="0.2431" style="stop-color:#FFC63C"/>
				<stop  offset="0.5458" style="stop-color:#F79920"/>
				<stop  offset="0.836" style="stop-color:#F37524"/>
				<stop  offset="1" style="stop-color:#EF4D23"/>
			</radialGradient>
			<path class="st9" d="M109,6.1c-0.2-0.1-0.3,0-0.3,0s-0.1,0.1-0.2,0c-0.1-0.1,0-0.2,0-0.2l0.2-0.1c0,0,0-0.1-0.2-0.2
				c-0.2-0.1-0.4-0.2-0.4-0.2L108,5.2c0,0-0.2-0.2-0.2-0.3c0-0.1-0.3-0.3-0.3-0.3s-0.1,0.1-0.1,0.2c0,0.1-0.1,0.1-0.1,0.1L107,4.6
				l-0.2-0.2c0,0-0.1,0-0.1-0.1c-0.1-0.1-0.4-0.1-0.4-0.1s-0.1-0.1-0.2-0.2C106,4,105.9,4,106,4.2c0,0.3,0,0.4,0.1,0.5
				c0.1,0.1,0.3,0.3,0.2,0.4c-0.1,0.1-0.2,0.2-0.2,0.3c0,0.2,0.1,0.2,0.1,0.3c0,0.2,0.1,0.4,0,0.5c-0.1,0.1-0.2,0.2-0.3,0.1
				c-0.1-0.1-0.2-0.2-0.2-0.2s-0.3-0.1-0.3-0.2c0-0.1,0-0.5,0-0.5s-0.1-0.2-0.1-0.2c-0.1,0-0.5-0.1-0.5-0.1l-0.2-0.2
				c0,0-0.1-0.2-0.2-0.2c-0.1,0-0.2-0.2-0.2-0.2l-0.4-0.1l-0.1-0.3l-0.1-0.2c0,0-0.2,0-0.2-0.1c0-0.1,0.2-0.2,0.2-0.3
				c0.1-0.1,0.3-0.2,0.3-0.3c0-0.1,0.1-0.2,0.2-0.3c0.1-0.1,0.1-0.1,0.1-0.1l0.1-0.3l-0.1-0.2c0,0-0.2-0.1-0.2-0.2c0-0.1,0-0.1,0-0.1
				S104.1,2.1,104,2c-0.1-0.1-0.2-0.2-0.2-0.2l-0.3-0.3c0,0-0.3-0.2-0.1,0.1c0.3,0.3,0.2,0,0.2,0.2c0.1,0.2,0.1,0.2,0.1,0.2
				c0.1,0.2,0.1,0.3,0.1,0.3s-0.3,0.2-0.3,0.2c-0.1-0.1-0.4-0.2-0.4-0.2c-0.1,0-0.3-0.1-0.3-0.1l-0.3,0.1l-0.2-0.1l-0.2-0.1L102.2,2
				l-0.2,0l-0.1-0.1l-0.3-0.4l-0.4-0.1c0,0-0.3,0-0.2-0.1c0.1-0.1-0.2-0.2-0.2-0.2l-0.3,0.2L100.1,1L100,0.8l-0.3-0.2l-0.4,0.1
				l-0.5,0.1c0,0-0.2,0-0.3,0c-0.1,0-0.3,0.2-0.3,0.2L98,0.8c0,0-0.1-0.1,0-0.1c0.1-0.1,0.3-0.3,0.3-0.3l-0.7,0.1l-0.4,0.2L97,0.9
				c0,0,0.1,0.1,0.3,0.1c0.1-0.1,0.3-0.1,0.3-0.1l0.2,0L97.9,1l-0.1,0.2l-0.3,0.1c0,0-0.2,0-0.3,0.1c-0.1,0-0.2,0.1-0.3,0.2
				c-0.1,0.1-0.2,0.2-0.2,0.2s-0.1,0.1,0,0.2c0.1,0,0.2,0.1,0.3,0.1c0.1-0.1,0.2-0.1,0.3-0.1c0.1-0.1,0.3,0,0.3,0s0.2,0.1,0.2,0.2
				C98,2,98.1,2.1,98.1,2.1c0.1,0,0.2,0,0.2,0.1c0,0.1,0.1,0.4,0.1,0.4l-0.1,0.2c0,0,0.2,0.2,0.1,0.3c-0.1,0.1-0.2,0.2-0.2,0.3
				c0,0.1,0,0.2,0.1,0.3c0,0.1-0.1,0.1-0.1,0.2c-0.1,0.1,0,0.3,0,0.3l0.2,0.3c0,0,0.1,0.1,0.1,0.3c0,0.2,0,0.4,0,0.4
				c-0.1-0.3-0.2-0.3-0.3-0.4c-0.1-0.1-0.1-0.1-0.1-0.1L98,4.7l0.2,0.2L98.3,5l0,0.2c-0.1-0.1-0.2-0.3-0.2-0.3C98,4.9,98,5,98,5
				L98,5.2L98,5.4l-0.1,0.2l-0.3,0.4l-0.2,0.4c0,0-0.1,0.3-0.2,0.4c0,0.1-0.1,0.5-0.1,0.6c0,0.1,0.1,0.4,0.1,0.5
				c0,0.1,0.1,0.3,0.1,0.3c0.1,0.1,0.2,0.2,0.2,0.2l0.1,0.4l0,0.4l0.2,0.4L98,9.9L97.9,10l-0.1,0.1l0.2,0.2l0.1,0.2
				c0,0,0.1,0.2,0.1,0.3c0,0.1,0.1,0.3,0.2,0.4c0.1,0.1,0.2,0.3,0.2,0.3l-0.1-0.7c0,0-0.1-0.3-0.1-0.3c0-0.1-0.1-0.3-0.1-0.3
				l-0.2-0.1c0,0,0-0.1,0.1-0.2c0.1-0.1,0-0.3,0-0.3C98,9.5,98,9.4,98,9.3c0-0.1,0.1-0.1,0.2-0.1c0.1,0,0.2,0.1,0.2,0.2
				c0,0.1,0.2,0.2,0.1,0.3c0,0.1-0.1,0.1,0,0.3c0.1,0.2,0.2,0.3,0.2,0.4c0.1,0.2,0.2,0.3,0.2,0.4c0,0.1-0.1,0.1,0,0.2
				c0.1,0.1,0.2,0.2,0.2,0.3c0.1,0.1,0.3,0.2,0.3,0.3c0,0.1,0.1,0.3,0.1,0.3c0,0.1,0,0.2,0,0.3c0,0.1-0.1,0.2-0.1,0.3
				c0,0.1,0,0.1,0.1,0.2c0.1,0.1,0.2,0.2,0.2,0.3c0,0.1,0.3,0.2,0.4,0.2c0.1,0,0.2,0.3,0.4,0.3c0.2,0,0.3,0.3,0.4,0.3
				c0.1,0,0.2,0.1,0.3,0.2c0.1,0,0.3,0.1,0.3,0.1h0.3c0,0,0.3,0.1,0.4,0.1c0.1,0,0.2,0.1,0.3,0.2c0.1,0.1,0.2,0.3,0.3,0.3
				c0.1,0,0.3,0.2,0.4,0.2c0.1,0,0.3,0.1,0.3,0.1s0.1,0.1,0.2,0.2c0.1,0.1,0.3,0.2,0.3,0.2s0.2,0,0.2,0.1c0.1,0.1,0.1,0.1,0.2,0.2
				c0,0.1,0,0.1,0,0.1l-0.3-0.1l-0.1,0c0,0,0,0.2,0.1,0.2c0.1,0,0.3,0.1,0.3,0.1s0.1,0.1,0.2,0.2c0.1,0.1,0.2,0.1,0.2,0.2
				c0.1,0.1,0.2,0.1,0.3,0.1c0.1,0,0.2,0,0.2,0s0.1-0.1,0.2-0.1c0.1,0,0.1,0,0.1,0s0,0,0,0c0,0,0,0,0,0c0,0,0,0,0,0c0,0,0,0,0,0
				c0,0,0,0,0,0c0,0,0,0,0,0c0.2,0.1,0.3,0.1,0.3,0.1l0-0.3l-0.2-0.1h-0.3l-0.2,0.1l-0.2,0l-0.2-0.1c0,0,0-0.1,0-0.1
				c0-0.1,0-0.2,0-0.2s0-0.1,0-0.2c0-0.1-0.1-0.1,0-0.2c0.1-0.1-0.1,0,0.1-0.1c0.1-0.2,0.1-0.2,0.1-0.2l-0.2-0.2l-0.1-0.1l-0.1-0.1
				l-0.4,0l-0.3,0.1l-0.3,0l-0.1-0.2l0.1-0.2l0.1-0.1l0.1-0.2l0.2-0.1c0.1,0,0.1-0.3,0.1-0.3s0-0.1,0.1-0.2c0-0.1,0-0.2,0-0.2
				l-0.3,0.1l-0.2,0.1l-0.2,0.2l-0.3,0.2l-0.3,0.1l-0.4,0l-0.3-0.2c0,0-0.1-0.3-0.2-0.4c0-0.1-0.1-0.1-0.2-0.2
				c-0.1-0.1-0.2-0.2-0.2-0.2s-0.1-0.2-0.1-0.3c0.1-0.1,0.1-0.1,0.1-0.2c0.1-0.1,0.1-0.2,0.1-0.2s-0.1-0.1-0.1-0.2s0-0.1,0.1-0.1
				c0.1-0.1,0.2-0.2,0.2-0.2s-0.1-0.1-0.1-0.2c0-0.1,0-0.2,0.1-0.2c0.1-0.1,0.2,0,0.3-0.1c0.2-0.1,0.4-0.1,0.4-0.1h0.3
				c0,0,0.2-0.1,0.3,0c0.1,0.1,0.3,0.2,0.4,0.2c0.1,0,0.2,0.1,0.3-0.1c0.1-0.1,0.2-0.2,0.3-0.2c0.1,0,0.3,0.1,0.4,0.1
				c0.2,0.1,0.3,0.2,0.4,0.2c0.1,0,0.3,0,0.3,0s0,0.2,0.1,0.3c0.1,0.1,0.2,0.3,0.3,0.4c0.1,0.1,0.1,0.2,0.1,0.3
				c0,0.1,0.1,0.2,0.1,0.2s0.1,0,0.2-0.1c0-0.1-0.1-0.3-0.1-0.5c-0.1-0.2-0.1-0.3-0.1-0.4c-0.1-0.1-0.1-0.2-0.1-0.3
				c0-0.1,0-0.1,0.1-0.2c0.1-0.1,0.2-0.2,0.3-0.2c0.1-0.1,0.3-0.1,0.3-0.1c0-0.1,0.1-0.2,0.1-0.2s0.1-0.3,0.1-0.3c0-0.1,0-0.3,0-0.3
				s0-0.4,0.1-0.4c0.1-0.1,0.2-0.1,0.2-0.1s0.2,0,0.1,0.1c0,0.1,0.3-0.3,0.3-0.3s0-0.1,0.1-0.2c0.1-0.1,0-0.2,0.2-0.3
				c0.2-0.1,0.3,0,0.3-0.1c0-0.1,0-0.2,0-0.3c0-0.1,0.1-0.2,0.1-0.2l0.2-0.1l0.3-0.3c0,0,0-0.2-0.1-0.3c-0.1-0.1-0.1-0.2-0.1-0.2
				s0-0.2-0.1-0.2c-0.1,0.1-0.2,0.3-0.3,0.4c-0.1,0.1-0.2,0.3-0.2,0.1c0-0.1,0-0.3,0.1-0.4c0.1-0.1,0.2-0.2,0.2-0.2s0.1-0.2,0.2-0.2
				c0.1,0,0.3,0.1,0.3,0.1c0.1,0,0.1,0.1,0.2,0c0.1-0.1,0.2-0.1,0.2-0.1l0.1-0.2C108.9,6.4,109.1,6.2,109,6.1z M100.8,2L101,2l0.2,0
				l0.2,0.1l-0.1,0.1H101l-0.3-0.1C100.3,2.1,100.8,2,100.8,2z M101.9,3c-0.1,0.1-0.2,0.2-0.3,0.2c-0.1,0-0.3,0-0.4,0
				c-0.1,0-0.4,0-0.4,0c-0.1-0.1-0.1-0.2-0.1-0.2c0.1,0,0.1,0,0.3-0.1c0.2-0.1-0.1-0.2,0.1-0.2c0.2,0,0.1,0,0.2,0
				c0.1,0,0.1,0.2,0.1,0.2s0.2,0,0.3-0.1c0.1,0,0.2,0,0.2,0S102,2.9,101.9,3z M103.1,5.9L103,5.9l-0.1-0.3l-0.2-0.2l-0.1-0.2l0.3-0.1
				c0,0,0,0,0,0.2l0.1,0.2l0.1,0.2L103.1,5.9z M106.8,8.1c0.1,0.1-0.2,0.3-0.2,0.3h-0.2l-0.2,0.1H106c0,0-0.1-0.1-0.2-0.1
				c-0.1,0-0.1,0-0.1,0.1c0,0.1,0,0.2,0,0.2s-0.2,0-0.3,0c-0.1,0-0.1-0.1-0.2-0.2c0-0.1,0.1-0.2,0.1-0.3c0-0.1-0.1-0.2-0.1-0.2
				s-0.2-0.2-0.3-0.2c-0.1,0-0.2,0-0.3,0.1c-0.1,0.1,0.1,0.2,0.1,0.3c0,0.1-0.2,0.3-0.2,0.3s-0.1-0.2-0.2-0.3
				c-0.1-0.1-0.1-0.2-0.1-0.3c0-0.1,0.1-0.2,0.1-0.2c0.1-0.1-0.1-0.3-0.1-0.3s0,0-0.1,0c-0.1,0-0.2,0-0.3,0c-0.1,0.1-0.4-0.1-0.4-0.1
				s0,0,0.2-0.2c0.2-0.2-0.2,0.2,0.4-0.1c0.5-0.4,0.3-0.1,0.4-0.2c0,0,0.1,0.1,0.3,0.2c0,0,0.1,0.1,0.1,0.3c0,0.1,0,0-0.1,0.1
				c-0.1,0.1-0.1,0.3-0.1,0.3l0.2,0.1h0.3l0.2,0c0,0,0.3-0.1,0.4-0.1c0.1,0,0.2,0.1,0.2,0.1s0,0.2-0.2,0.2c-0.1,0.1-0.1,0.1-0.2,0.1
				c-0.1,0.1,0.1,0.3,0.1,0.3s0,0,0.1-0.1c0.1-0.1,0.1-0.1,0.2,0c0.1,0,0,0.2,0.1,0.2c0.1,0,0.1,0,0.1,0s0.1-0.1,0.2-0.2
				c0.1-0.1,0.2-0.1,0.4-0.1C106.9,8,106.7,8,106.8,8.1z"/>
			
				<radialGradient id="SVGID_7_" cx="809.8751" cy="1.2038" r="18.1505" gradientTransform="matrix(1 0 0 1 -715.4414 0)" gradientUnits="userSpaceOnUse">
				<stop  offset="0" style="stop-color:#FFE064"/>
				<stop  offset="0.2431" style="stop-color:#FFC63C"/>
				<stop  offset="0.5458" style="stop-color:#F79920"/>
				<stop  offset="0.836" style="stop-color:#F37524"/>
				<stop  offset="1" style="stop-color:#EF4D23"/>
			</radialGradient>
			<path class="st10" d="M103.8,1.8C103.8,1.8,103.8,1.8,103.8,1.8C103.8,1.8,103.8,1.8,103.8,1.8z"/>
			
				<radialGradient id="SVGID_8_" cx="809.8751" cy="1.2038" r="18.1505" gradientTransform="matrix(1 0 0 1 -715.4414 0)" gradientUnits="userSpaceOnUse">
				<stop  offset="0" style="stop-color:#FFE064"/>
				<stop  offset="0.2431" style="stop-color:#FFC63C"/>
				<stop  offset="0.5458" style="stop-color:#F79920"/>
				<stop  offset="0.836" style="stop-color:#F37524"/>
				<stop  offset="1" style="stop-color:#EF4D23"/>
			</radialGradient>
			<path class="st11" d="M103.9,1.8C103.9,1.8,103.8,1.8,103.9,1.8C103.9,1.8,103.9,1.8,103.9,1.8z"/>
			
				<radialGradient id="SVGID_9_" cx="809.8751" cy="1.2038" r="18.1505" gradientTransform="matrix(1 0 0 1 -715.4414 0)" gradientUnits="userSpaceOnUse">
				<stop  offset="0" style="stop-color:#FFE064"/>
				<stop  offset="0.2431" style="stop-color:#FFC63C"/>
				<stop  offset="0.5458" style="stop-color:#F79920"/>
				<stop  offset="0.836" style="stop-color:#F37524"/>
				<stop  offset="1" style="stop-color:#EF4D23"/>
			</radialGradient>
			<path class="st12" d="M102.4,4.9c0,0.1-0.3-0.3,0,0.3c0.3,0.6,0.2,0,0.3,0.3c0,0,0,0,0,0c0-0.1-0.1-0.3-0.1-0.3L102.4,4.9z"/>
			
				<radialGradient id="SVGID_10_" cx="818.1379" cy="5.6159" r="2.868499e-03" gradientTransform="matrix(1 0 0 1 -715.4414 0)" gradientUnits="userSpaceOnUse">
				<stop  offset="0" style="stop-color:#FFE064"/>
				<stop  offset="0.2431" style="stop-color:#FFC63C"/>
				<stop  offset="0.5458" style="stop-color:#F79920"/>
				<stop  offset="0.836" style="stop-color:#F37524"/>
				<stop  offset="1" style="stop-color:#EF4D23"/>
			</radialGradient>
			<path class="st13" d="M102.7,5.6C102.7,5.6,102.7,5.6,102.7,5.6C102.7,5.6,102.7,5.6,102.7,5.6z"/>
			
				<radialGradient id="SVGID_11_" cx="809.8751" cy="1.2038" r="18.1505" gradientTransform="matrix(1 0 0 1 -715.4414 0)" gradientUnits="userSpaceOnUse">
				<stop  offset="0" style="stop-color:#FFE064"/>
				<stop  offset="0.2431" style="stop-color:#FFC63C"/>
				<stop  offset="0.5458" style="stop-color:#F79920"/>
				<stop  offset="0.836" style="stop-color:#F37524"/>
				<stop  offset="1" style="stop-color:#EF4D23"/>
			</radialGradient>
			<path class="st14" d="M102.7,5.7C102.7,5.7,102.7,5.7,102.7,5.7C102.7,5.7,102.7,5.7,102.7,5.7z"/>
			
				<radialGradient id="SVGID_12_" cx="809.8751" cy="1.2038" r="18.1505" gradientTransform="matrix(1 0 0 1 -715.4414 0)" gradientUnits="userSpaceOnUse">
				<stop  offset="0" style="stop-color:#FFE064"/>
				<stop  offset="0.2431" style="stop-color:#FFC63C"/>
				<stop  offset="0.5458" style="stop-color:#F79920"/>
				<stop  offset="0.836" style="stop-color:#F37524"/>
				<stop  offset="1" style="stop-color:#EF4D23"/>
			</radialGradient>
			<path class="st15" d="M102.7,5.7C102.7,5.7,102.7,5.7,102.7,5.7C102.7,5.7,102.7,5.7,102.7,5.7z"/>
			
				<radialGradient id="SVGID_13_" cx="818.1567" cy="5.6923" r="1.972242e-03" gradientTransform="matrix(1 0 0 1 -715.4414 0)" gradientUnits="userSpaceOnUse">
				<stop  offset="0" style="stop-color:#FFE064"/>
				<stop  offset="0.2431" style="stop-color:#FFC63C"/>
				<stop  offset="0.5458" style="stop-color:#F79920"/>
				<stop  offset="0.836" style="stop-color:#F37524"/>
				<stop  offset="1" style="stop-color:#EF4D23"/>
			</radialGradient>
			<path class="st16" d="M102.7,5.7C102.7,5.7,102.7,5.7,102.7,5.7C102.7,5.7,102.7,5.7,102.7,5.7z"/>
			
				<radialGradient id="SVGID_14_" cx="818.1577" cy="5.6958" r="6.305239e-04" gradientTransform="matrix(1 0 0 1 -715.4414 0)" gradientUnits="userSpaceOnUse">
				<stop  offset="0" style="stop-color:#FFE064"/>
				<stop  offset="0.2431" style="stop-color:#FFC63C"/>
				<stop  offset="0.5458" style="stop-color:#F79920"/>
				<stop  offset="0.836" style="stop-color:#F37524"/>
				<stop  offset="1" style="stop-color:#EF4D23"/>
			</radialGradient>
			<path class="st17" d="M102.7,5.7C102.7,5.7,102.7,5.7,102.7,5.7L102.7,5.7z"/>
			
				<radialGradient id="SVGID_15_" cx="809.8751" cy="1.2038" r="18.1505" gradientTransform="matrix(1 0 0 1 -715.4414 0)" gradientUnits="userSpaceOnUse">
				<stop  offset="0" style="stop-color:#FFE064"/>
				<stop  offset="0.2431" style="stop-color:#FFC63C"/>
				<stop  offset="0.5458" style="stop-color:#F79920"/>
				<stop  offset="0.836" style="stop-color:#F37524"/>
				<stop  offset="1" style="stop-color:#EF4D23"/>
			</radialGradient>
			<path class="st18" d="M102.7,5.6C102.7,5.6,102.7,5.6,102.7,5.6C102.7,5.6,102.7,5.6,102.7,5.6z"/>
			
				<radialGradient id="SVGID_16_" cx="809.8751" cy="1.2038" r="18.1505" gradientTransform="matrix(1 0 0 1 -715.4414 0)" gradientUnits="userSpaceOnUse">
				<stop  offset="0" style="stop-color:#FFE064"/>
				<stop  offset="0.2431" style="stop-color:#FFC63C"/>
				<stop  offset="0.5458" style="stop-color:#F79920"/>
				<stop  offset="0.836" style="stop-color:#F37524"/>
				<stop  offset="1" style="stop-color:#EF4D23"/>
			</radialGradient>
			<path class="st19" d="M102.7,5.7C102.7,5.7,102.7,5.7,102.7,5.7C102.7,5.7,102.7,5.7,102.7,5.7z"/>
			
				<radialGradient id="SVGID_17_" cx="809.8751" cy="1.2038" r="18.1505" gradientTransform="matrix(1 0 0 1 -715.4414 0)" gradientUnits="userSpaceOnUse">
				<stop  offset="0" style="stop-color:#FFE064"/>
				<stop  offset="0.2431" style="stop-color:#FFC63C"/>
				<stop  offset="0.5458" style="stop-color:#F79920"/>
				<stop  offset="0.836" style="stop-color:#F37524"/>
				<stop  offset="1" style="stop-color:#EF4D23"/>
			</radialGradient>
			<path class="st20" d="M102.7,5.6C102.7,5.6,102.7,5.6,102.7,5.6C102.7,5.6,102.7,5.6,102.7,5.6z"/>
		</g>
		
			<radialGradient id="SVGID_18_" cx="810.0623" cy="1.2039" r="17.9875" gradientTransform="matrix(1 0 0 1 -715.4414 0)" gradientUnits="userSpaceOnUse">
			<stop  offset="0" style="stop-color:#FFE064"/>
			<stop  offset="0.2431" style="stop-color:#FFC63C"/>
			<stop  offset="0.5458" style="stop-color:#F79920"/>
			<stop  offset="0.836" style="stop-color:#F37524"/>
			<stop  offset="1" style="stop-color:#EF4D23"/>
		</radialGradient>
		<path class="st21" d="M105.8,15.9l-0.2,0.1l0.1,0.2l0,0.2l-0.1,0.1l0,0.2c0,0,0,0.2-0.1,0.2c-0.1,0-0.3,0-0.3,0s-0.2,0.2-0.3,0.3
			c-0.1,0.1-0.3,0.3-0.3,0.4c-0.1,0.1-0.2,0.2-0.2,0.2l0.2,0l0.1-0.1c0,0.2-0.2,0.3-0.2,0.3c-0.2,0.1-0.3,0-0.3,0.1
			c-0.1,0.1-0.1,0.3,0,0.4c0.1,0.1,0.1,0.3,0.2,0.2c0.1,0,0.2,0,0.2,0.1c0.1,0.1,0.2,0.2,0.2,0.3c0,0.1-0.1,0.1,0,0.3
			c0.1,0.2,0,0.3,0.2,0.3c0.2,0.1,0.2,0.2,0.3,0.2c0.2,0,0.3,0,0.3,0.1c0,0.1,0.2,0.2,0.2,0.3c-0.1,0.1-0.2,0.3-0.3,0.4
			c-0.1,0.1-0.5,0.3-0.5,0.3s-0.2,0.3-0.3,0.3c-0.1,0.1-0.3,0.3-0.4,0.4c-0.1,0-0.6,0.2-0.7,0.3c-0.1,0.1-0.4,0.1-0.4,0.2
			c0,0.1-0.2,0.1-0.3,0.2c-0.1,0.1-0.5,0.2-0.5,0.2s1.6-0.1,3.9-1.3c0,0,1.1-0.5,2.3-1.6c0,0,1.4-0.9,2.5-3.3l-0.2,0.2l-0.2-0.1
			c0,0-0.2,0.1-0.2,0.1c-0.1,0.1-0.2,0.2-0.2,0.2c-0.1,0.1-0.2,0.3-0.3,0.2c0-0.1,0.2-0.5,0.1-0.4c-0.2,0.2-0.3,0.3-0.4,0.3
			c-0.1,0.1-0.3,0.3-0.4,0.3c-0.1,0-0.3,0-0.3,0s0.2-0.1,0.3-0.2c0.1-0.1,0.2-0.2,0.3-0.2c0.1-0.1,0.2-0.1,0.3-0.2
			c0.1-0.1,0.2-0.2,0.2-0.3c0-0.1,0,0.1,0-0.1c0-0.2,0-0.3,0-0.3c-0.1-0.2-0.5-0.2-0.5-0.2c-0.1,0.1-0.4,0.1-0.4,0.1l-0.3-0.1
			c0,0,0-0.2,0.1-0.2c0.1-0.1,0.2-0.2,0.1-0.2c-0.1,0-0.4,0-0.4,0.1c-0.1,0.1-0.3,0.2-0.3,0.2c0-0.1-0.1-0.2,0-0.3
			c0.1-0.1,0.1-0.1-0.1-0.1c-0.1,0-0.4,0.1-0.4,0.1s-0.2,0.1-0.3,0.1c-0.1-0.1-0.3-0.2-0.4-0.2c-0.1,0-0.3,0-0.3,0.1
			c-0.1,0.1,0.1,0.1,0.1,0.2s0,0.3-0.2,0.3c-0.1,0-0.3-0.1-0.3-0.1c0-0.1-0.1-0.2,0.1-0.3c0.1-0.1,0.1-0.1,0.1-0.1s0-0.2-0.1-0.1
			c-0.2,0-0.5,0.1-0.5,0.1l-0.2,0.2L105.8,15.9z"/>
	</g>
	<g>
		<path class="st22" d="M95,17V6h2v11H95z"/>
		<path class="st22" d="M106.4,17l-5.4-7v7h-2V6h2.3l4.7,7V6h2v11H106.4z"/>
	</g>
</svg>
