<svg xmlns="http://www.w3.org/2000/svg" class="svgIcon wirJunior" viewBox="0 0 205 24">
	<style type="text/css">
		.st0{fill:url(#SVGID_1_);}
		.st1{fill:url(#SVGID_2_);}
		.st2{fill:url(#SVGID_3_);}
		.st3{fill:url(#SVGID_4_);}
		.st4{fill:url(#SVGID_5_);}
		.st5{fill:url(#SVGID_6_);}
		.st6{fill:#181828;}
		.st7{fill:#A0A2A5;}
		.st8{fill:#898B8C;}
		.st9{fill:#666666;}
		.st10{fill:url(#SVGID_7_);}
		.st11{fill:url(#SVGID_8_);}
		.st12{fill:url(#SVGID_9_);}
		.st13{fill:url(#SVGID_10_);}
		.st14{fill:url(#SVGID_11_);}
		.st15{fill:url(#SVGID_12_);}
		.st16{fill:url(#SVGID_13_);}
		.st17{fill:url(#SVGID_14_);}
		.st18{fill:url(#SVGID_15_);}
		.st19{fill:url(#SVGID_16_);}
		.st20{fill:url(#SVGID_17_);}
		.st21{fill:url(#SVGID_18_);}
		.st22{fill:url(#SVGID_19_);}
		.st23{fill:url(#SVGID_20_);}
		.st24{fill:url(#SVGID_21_);}
		.st25{fill:url(#SVGID_22_);}
		.st26{fill:url(#SVGID_23_);}
		.st27{fill:url(#SVGID_24_);}
		.st28{fill:#FFFFFF;}
	</style>
	<g>
		<linearGradient id="SVGID_1_" gradientUnits="userSpaceOnUse" x1="97.2526" y1="3.365130e-11" x2="97.2526" y2="24">
			<stop  offset="0" style="stop-color:#FEC64A"/>
			<stop  offset="0.3189" style="stop-color:#FBA939"/>
			<stop  offset="0.5458" style="stop-color:#FA9930"/>
			<stop  offset="0.836" style="stop-color:#FD762D"/>
			<stop  offset="1" style="stop-color:#F64B1E"/>
		</linearGradient>
		<path class="st0" d="M91.5,17c0.1,0,1.6,1,3.5,1c1.6,0,3-1.3,3-2c0-0.5,0-3.2,0-3.9V0h7v12.1c0,1.8-0.1,3.4-0.3,4.9
			c-0.2,1.5-0.6,2.7-1.3,3.8c-0.7,1-1.6,1.8-2.9,2.4c-1.3,0.6-3,0.9-5.1,0.9c-2,0-4.5-0.5-5.9-1.5L91.5,17z"/>
		<linearGradient id="SVGID_2_" gradientUnits="userSpaceOnUse" x1="117.5" y1="-4.711183e-10" x2="117.5" y2="24">
			<stop  offset="0" style="stop-color:#FEC64A"/>
			<stop  offset="0.3189" style="stop-color:#FBA939"/>
			<stop  offset="0.5458" style="stop-color:#FA9930"/>
			<stop  offset="0.836" style="stop-color:#FD762D"/>
			<stop  offset="1" style="stop-color:#F64B1E"/>
		</linearGradient>
		<path class="st1" d="M117.4,18.1c0.8,0,1.4-0.2,1.9-0.5c0.5-0.3,1-0.8,1.3-1.3c0.6-1.1,0.4-1.8,0.4-4.3c0-0.7,0-11.9,0-11.9h7v12.1
			c0,1.6-0.2,3.2-0.6,4.6c-0.4,1.4-1.1,2.7-2,3.7c-0.9,1-2,1.9-3.3,2.5c-1.3,0.6-2.9,1.1-4.7,1.1c-1.9,0-3.5-0.5-4.8-1.1
			c-1.3-0.6-2.4-1.5-3.3-2.5c-0.9-1.1-1.5-2.3-1.9-3.7c-0.4-1.4-0.4-2.9-0.4-4.5V0h7v12.2c0,1.5-0.2,3.4,0.2,4.1
			c0.3,0.5,0.8,1,1.3,1.3C116,17.9,116.7,18.1,117.4,18.1z"/>
		<linearGradient id="SVGID_3_" gradientUnits="userSpaceOnUse" x1="140.5" y1="-4.720278e-10" x2="140.5" y2="24">
			<stop  offset="0" style="stop-color:#FEC64A"/>
			<stop  offset="0.3189" style="stop-color:#FBA939"/>
			<stop  offset="0.5458" style="stop-color:#FA9930"/>
			<stop  offset="0.836" style="stop-color:#FD762D"/>
			<stop  offset="1" style="stop-color:#F64B1E"/>
		</linearGradient>
		<path class="st2" d="M137,12.1V24h-7V0h7l7,12.1V0.1h7V24h-7L137,12.1z"/>
		<linearGradient id="SVGID_4_" gradientUnits="userSpaceOnUse" x1="156.5" y1="-1.573426e-10" x2="156.5" y2="24">
			<stop  offset="0" style="stop-color:#FEC64A"/>
			<stop  offset="0.3189" style="stop-color:#FBA939"/>
			<stop  offset="0.5458" style="stop-color:#FA9930"/>
			<stop  offset="0.836" style="stop-color:#FD762D"/>
			<stop  offset="1" style="stop-color:#F64B1E"/>
		</linearGradient>
		<path class="st3" d="M153,24V0h7v24H153z"/>
		<linearGradient id="SVGID_5_" gradientUnits="userSpaceOnUse" x1="172" y1="2.728484e-12" x2="172" y2="23.8341">
			<stop  offset="0" style="stop-color:#FEC64A"/>
			<stop  offset="0.3189" style="stop-color:#FBA939"/>
			<stop  offset="0.5458" style="stop-color:#FA9930"/>
			<stop  offset="0.836" style="stop-color:#FD762D"/>
			<stop  offset="1" style="stop-color:#F64B1E"/>
		</linearGradient>
		<path class="st4" d="M171.9,23.8c-1.6,0-3.1-0.3-4.5-1c-1.3-0.7-2.5-1.6-3.5-2.7c-1-1.1-1.7-2.4-2.2-3.8c-0.5-1.4-0.8-2.9-0.8-4.4
			c0-1.5,0.3-3,0.8-4.5c0.5-1.4,1.3-2.7,2.3-3.8c1-1.1,2.2-2,3.5-2.6c1.3-0.7,2.8-1,4.4-1c1.6,0,3.1,0.3,4.5,1
			c1.3,0.7,2.5,1.6,3.5,2.7c1,1.1,1.7,2.4,2.2,3.8c0.5,1.4,0.8,2.9,0.8,4.4c0,1.5-0.3,3-0.8,4.5c-0.5,1.4-1.3,2.7-2.3,3.8
			c-1,1.1-2.1,2-3.5,2.6C175,23.5,173.6,23.8,171.9,23.8z M167.4,11.9c0,0.8,0.1,1.6,0.3,2.3s0.5,1.4,0.9,2c0.4,0.6,0.9,1,1.5,1.4
			c0.6,0.4,1.3,0.5,2,0.5c0.8,0,1.5-0.2,2.1-0.5c0.6-0.4,1.1-0.8,1.4-1.4s0.6-1.3,0.8-2c0.2-0.8,0.3-1.5,0.3-2.3
			c0-0.8-0.1-1.6-0.3-2.3c-0.2-0.7-0.5-1.4-0.9-2c-0.4-0.6-0.9-1-1.4-1.4c-0.6-0.3-1.3-0.5-2-0.5c-0.8,0-1.5,0.2-2.1,0.5
			c-0.6,0.4-1,0.8-1.4,1.4c-0.4,0.6-0.7,1.2-0.8,2C167.5,10.4,167.4,11.1,167.4,11.9z"/>
		<linearGradient id="SVGID_6_" gradientUnits="userSpaceOnUse" x1="194.3115" y1="-4.629328e-10" x2="194.3115" y2="24">
			<stop  offset="0" style="stop-color:#FEC64A"/>
			<stop  offset="0.3189" style="stop-color:#FBA939"/>
			<stop  offset="0.5458" style="stop-color:#FA9930"/>
			<stop  offset="0.836" style="stop-color:#FD762D"/>
			<stop  offset="1" style="stop-color:#F64B1E"/>
		</linearGradient>
		<path class="st5" d="M184,24V0h10.8c1.1,0,2.2,0.4,3.2,0.8c1,0.5,1.8,1.1,2.5,1.9c0.7,0.8,1.2,1.6,1.6,2.6c0.4,1,0.8,2,0.8,3
			c0,1.4-0.5,2.6-1.1,3.8c-0.6,1.2-1.4,2.1-2.5,2.9l5.3,9h-7.3l-4.5-8h-2v8H184z M190.9,11h3.6c0.4,0,0.8-0.4,1.1-0.9
			c0.3-0.4,0.5-1.1,0.5-1.9c0-0.8-0.2-1.4-0.6-1.9C195.2,6,194.8,6,194.4,6h-3.4V11z"/>
		<path class="st6" d="M5,6h2.5L9,9l1.5-3H13l-2,5l0.5,2.4l3-7.4H18l-4.5,11h-3L9,13.2L7.5,17h-3L0,6h3.5l3,7.5L7,11L5,6z"/>
		<path class="st6" d="M24,14v3h-7V6h7v3h-4v1h3v3h-3v1H24z"/>
		<path class="st6" d="M32,14v3h-7V6h7v3h-4v1h3v3h-3v1H32z"/>
		<path class="st6" d="M33,17V6h3v4.7L39,6h3.3l-3.9,4.9l4.1,6.1H39l-2.2-4.2L36,13.8V17H33z"/>
		<g>
			<path class="st6" d="M59,17V6h5.1c0.5,0,3.9,0.1,3.9,4c0,2.2-1.4,2.7-1.8,3.1l2.4,3.9h-3.3l-2-3H62v3H59z M62,11h2
				c0.2,0,0.8,0,0.8-1c0-1-0.6-1-0.8-1h-2V11z"/>
			<path class="st6" d="M68,17l4-11h3l4,11h-3.5L75,15h-3l-0.5,2H68z M73.5,9.4L72.2,13h2.5L73.5,9.4z"/>
			<path class="st6" d="M79,17V6h4.9c0.5,0,4.1,0,4.1,4c0,4-3.5,4-4.1,4H82v3H79z M82,11h2c0.2,0,0.8,0,0.8-1c0-1-0.6-1-0.8-1h-2V11z"/>
		</g>
		<g>
			<circle class="st7" cx="50.5" cy="11.5" r="7.5"/>
			<g>
				<g>
					<path class="st8" d="M46.3,16.8c0,0,0-0.1-0.2-0.1C46,16.8,46,16.8,46,16.8s0,0.1-0.1,0.1c0,0-0.2-0.1-0.2-0.1v-0.2l0-0.2l0-0.2
						l0-0.2l0.1-0.1l0-0.2l0.3-0.2l0.3,0l0.2,0.1l0.2-0.1l0.1-0.1c0,0,0.1,0,0.1,0c0,0,0.1,0.1,0.1,0.1c0.1,0,0.2,0,0.2,0
						c0,0,0.7,0.1,0.7,0.1c0,0,0.2,0,0.2,0c0,0,0.2,0.1,0.2,0.1s0,0.1,0,0.1c0,0.1,0.1,0.1,0.2,0.2c0.1,0,0.1,0.1,0.2,0.1
						c0.1,0,0.1,0,0.2-0.1c0,0,0.2-0.1,0.2-0.1c0,0,0.1,0.1,0.1,0.2c0,0.1,0.1,0.1,0.1,0.1c0.1,0,0.1,0,0.2-0.1c0,0,0.1-0.2,0.1-0.1
						c0,0,0.1,0.1,0.1,0.2c0,0.1,0,0.1,0.1,0.2c0,0,0.1,0.2,0.1,0.2c0,0.1,0,0.1,0.1,0.1c0.1,0,0.2,0.1,0.2,0.1c0,0,0.1,0.1,0.1,0.2
						c0,0.1,0,0.2,0,0.2c0,0.1,0.1,0.1,0.1,0.2c0,0,0.1,0,0.1,0.1c0,0.1,0,0.1,0,0.2c0,0.1,0.1,0.1,0.1,0.2c0,0.1-0.1,0.3-0.1,0.3
						l-0.4,0.1c0,0-0.1,0.1-0.1,0.1c0,0-0.1,0.1-0.1,0.1c0,0-0.2-0.1-0.2-0.2c-0.1,0-0.2-0.1-0.3-0.1c-0.1,0-0.3,0-0.3,0l-0.2,0.1
						c0,0-0.1,0.1-0.1,0.2c0.1,0.1,0.2,0.1,0.3,0.2c0.1,0,0.1,0.1,0.1,0.2c0,0-0.2,0.1-0.2,0.1H49c0,0-0.3,0-0.4,0
						c-0.1,0-0.2-0.1-0.2-0.1c0,0-0.2,0-0.2,0l-0.2,0l-0.2-0.1l-0.5-0.2l-0.1,0l-0.1-0.2c0,0-0.1-0.1-0.1-0.1c-0.1,0-0.1,0-0.2,0
						c-0.1,0-0.1-0.2-0.1-0.2c0-0.1,0.1-0.1,0.1-0.1s0-0.1-0.1-0.1c0,0-0.1-0.1-0.1-0.1s0.1,0,0.2,0c0.1,0,0.1,0,0.2,0.1
						c0.1,0,0.1,0,0.2,0c0.1,0,0.1,0,0.2-0.1c0,0,0.1-0.1,0.1-0.1s0-0.1,0-0.1c-0.1-0.1-0.2,0-0.3-0.1c-0.1,0-0.1-0.1-0.1-0.1
						C47,17,47,16.9,46.9,16.9c-0.1,0-0.1,0-0.2-0.1c-0.1,0-0.3,0-0.3,0H46.3z"/>
					<path class="st8" d="M43.9,12.9c0.1,0,0.3,0,0.3,0l0.3-0.1c0,0,0.1-0.3,0.1-0.3c0-0.1,0-0.1,0-0.2c0-0.1,0-0.1,0-0.2
						c0.1-0.1,0.2-0.1,0.2-0.2c0,0,0.3-0.1,0.3-0.1s0.1,0,0.2,0.1c0.1,0.1,0.1,0.1,0.3,0.1c0.1,0,0.3,0,0.3,0c0.1,0,0.2-0.1,0.3-0.1
						c0,0,0.1-0.1,0.1-0.1c0-0.1,0.1-0.2,0.1-0.2c0-0.1,0.1-0.2,0-0.2c-0.1,0-0.1-0.1-0.1-0.1c0-0.1,0.1-0.1,0.1-0.1
						c0-0.1-0.1-0.2-0.2-0.3c-0.1,0-0.2-0.1-0.3-0.1c-0.1,0-0.2,0-0.2,0c-0.1,0-0.2-0.1-0.2-0.1c0-0.1,0-0.1-0.1-0.2
						c0,0-0.1-0.1-0.2-0.1c-0.1,0-0.2,0-0.2,0c0,0,0,0.2-0.1,0.2c0,0-0.1-0.1-0.1-0.1c0,0,0-0.1-0.1-0.1c-0.1,0-0.3,0-0.3,0
						c0,0.1-0.1,0.1-0.1,0.2c0,0,0,0.1,0,0.2c-0.1,0.1-0.1,0.1-0.2,0.2c-0.1,0.1-0.2,0.1-0.2,0.1c0,0-0.1,0-0.1-0.1
						c0-0.1-0.1-0.2-0.2-0.1c-0.1,0-0.2,0.2-0.2,0.3c0,0.1,0.1,0.2,0.1,0.2c0,0,0.1,0.1,0,0.2c-0.1,0-0.1,0.1-0.1,0.1
						c-0.1,0-0.1,0.1-0.2,0.2c0,0.1,0,0.2,0.1,0.3c0,0.1,0.1,0.1,0.1,0.2c0,0.1-0.1,0.1-0.1,0.1c-0.1,0.1-0.2,0-0.1,0.1
						c0.1,0.1,0.1,0.1,0.2,0.2c0.1,0,0.2,0.1,0.1,0.1c0,0.1-0.1,0.1,0,0.2c0,0.1,0,0.1,0,0.1L43.9,12.9z"/>
					<path class="st8" d="M43.3,10.3c0,0,0,0,0.2-0.2c0.1-0.2,0.1-0.2,0.1-0.2l0.1,0l0.1,0.1l0,0.1l0.1,0c0,0,0.1,0.1,0.1,0.1
						c0,0.1-0.1,0.1-0.1,0.1c0.1,0,0.2,0.1,0.2,0.1h0.1c0,0,0.2-0.2,0.2-0.2c0,0-0.1-0.2-0.1-0.2c0,0,0.1-0.1,0.1-0.2
						c0-0.1,0.1-0.1,0.1-0.2c0,0,0.1-0.1,0.1-0.1c0-0.1-0.1-0.1-0.1-0.1s-0.1-0.1,0-0.1c0.1,0,0.1-0.1,0.1-0.1s0.1-0.1,0-0.1
						c0,0-0.2,0-0.3,0c-0.1,0-0.2,0.1-0.2,0.2c0,0-0.2,0.1-0.2,0.1c-0.1,0-0.2,0.1-0.2,0.1c0,0.1,0,0.2,0,0.2c0,0-0.1,0.1-0.2,0.1
						c0,0-0.1,0.1-0.1,0.1C43.4,10.1,43.3,10.3,43.3,10.3z"/>
					<path class="st8" d="M46,9.1c0,0-0.1,0.2-0.1,0.2l-0.2,0.2l0.1,0c0,0,0.1,0,0.1-0.1c0,0,0.1-0.1,0.1-0.2c0-0.1,0.1-0.1,0.1-0.1
						c0-0.1,0.1-0.1,0.1-0.1l0.1,0l0.1,0.1l0.1,0.1c0,0,0.1,0,0.2,0c0,0,0.1,0,0.1,0L47,9.3c0,0,0,0,0.1,0c0,0,0.1-0.1,0.1-0.1
						c0-0.1,0-0.1-0.1-0.2c-0.1-0.1-0.1-0.1-0.2-0.2c-0.1,0-0.1-0.1-0.2-0.1c0,0,0-0.1-0.1-0.1c-0.1-0.1-0.2-0.2-0.2-0.1
						c0,0.1-0.1,0.2-0.1,0.3c0,0.1,0,0.1,0,0.2c0,0.1-0.1,0.1-0.2,0.1c-0.1,0-0.1,0.1-0.1,0c0,0-0.1-0.1-0.2-0.1
						c-0.1,0-0.2,0-0.2,0.1C45.7,9,45.8,9,45.8,9L46,9.1L46,9.1z"/>
					<path class="st8" d="M45.7,8.2L45.7,8.2l0,0.2c0,0.1,0.1,0.1,0.1,0.1s0.1,0,0.1-0.1c0,0-0.1,0,0,0c0.1,0,0.1,0,0.1,0
						s0.1,0,0.1,0c0,0,0,0,0,0l0-0.1l-0.1,0l-0.1,0l-0.1,0L45.7,8.2C45.7,8.2,45.7,8.2,45.7,8.2z"/>
					<path class="st8" d="M46.4,7.6C46.4,7.6,46.4,7.6,46.4,7.6L46.4,7.6v0.2l-0.1,0.1l0,0.1l0,0.1L46.2,8c0,0-0.1,0-0.1,0
						c-0.1,0,0,0,0,0c0,0-0.1,0,0-0.1l0.1,0l0.1-0.1l0.1-0.1c0,0,0,0,0-0.1c0-0.1,0,0.1,0-0.1c0-0.2,0.1-0.1,0.1-0.1L46.4,7.6z"/>
					<path class="st8" d="M56.2,8.8c0,0,0.1,0.1-0.3-0.1c-0.5-0.2,0.1,0.1-0.2-0.1c-0.3-0.2-0.2-0.1-0.3-0.1c-0.1,0-0.2,0-0.2,0
						c0,0,0,0.3,0.1,0.3c0.1,0,0.2,0.2,0.2,0.2s-0.2,0.2-0.3,0.2c0,0-0.3,0.1-0.3,0.1c-0.1,0-0.1,0.1-0.2,0.1c-0.1,0-0.1,0.1-0.2,0.1
						c-0.1,0-0.2,0.1-0.2,0.3c0,0.2,0,0.4,0,0.5c0.1,0.1,0.1,0.2,0.1,0.3c0,0.1-0.1,0.2-0.1,0.2c0,0.1,0.1,0.1,0.2,0.1
						c0.1,0,0.1-0.1,0.2-0.1c0.1,0,0.1,0.1,0.2,0.2c0,0.1-0.1,0.2,0.1,0.2c0.1,0,0.2,0,0.2,0.1c0,0.1,0,0.2,0,0.3
						c0,0.1-0.1,0.2-0.2,0.2c-0.1,0-0.2,0-0.2,0.1c0,0.1,0,0.2,0,0.3c0,0.1-0.2,0.2-0.3,0.2c-0.1,0-0.2,0.1-0.3,0.1
						c-0.1,0-0.2,0.1-0.1,0.2c0,0.1,0,0.2,0,0.3c0,0.1-0.1,0.1,0,0.2c0.1,0.1,0.2,0.1,0.2,0.2S54,13.3,54,13.4
						c-0.1,0.1-0.1,0.1-0.1,0.2c0,0.1,0.1,0.3,0.1,0.3c0,0.1,0.1,0.2,0.1,0.2c0,0.1,0.2,0.2,0.2,0.2c0,0,0,0.1,0.1,0.1
						c0.1,0,0.3-0.1,0.3-0.1s0.1-0.1,0.2-0.2c0.1-0.1,0.4-0.3,0.4-0.3c0,0,0.2-0.1,0.2-0.1c0,0,0.2,0,0.2-0.1c0-0.1,0.1-0.2,0.1-0.2
						s0-0.2,0-0.2c0,0,0-0.1,0-0.2c0-0.1,0.1-0.2,0.2-0.3c0,0,0.1-0.1,0.1-0.1c0,0,0.1-0.1,0.1-0.2c0-0.1,0.1-0.3,0.1-0.3
						c0,0,0.3-0.2,0.3-0.2l0.1,0c0,0,0.1-0.1,0.2,0c0.1,0.1,0.1,0.1,0.2,0.1c0.1,0,0.1-0.1,0.1-0.1c0,0,0.1-0.1,0.1-0.1
						c0,0,0-0.1,0.1-0.2c0-0.1,0.1-0.1,0.1-0.2c0-0.1,0-0.2,0-0.2s0-0.9-0.6-2.1l-0.3-0.1c0,0-0.1,0.1-0.1,0.1c0,0-0.2-0.1-0.2-0.1
						c0-0.1-0.1-0.1-0.1-0.2c0,0-0.1-0.1-0.1-0.1L56.2,8.8z"/>
					<path class="st8" d="M54.7,6c0,0,1.1,0.9,1.6,1.8c0,0,0,0.1,0,0.1c0,0.1-0.2,0.1-0.2,0c-0.1,0-0.3-0.3-0.3-0.3l-0.3-0.2
						c0,0-0.3-0.1-0.3-0.1c-0.1,0-0.1,0.1-0.2,0c-0.1-0.1,0-0.2-0.1-0.3C54.8,7,54.6,6.9,54.6,7c0,0.1-0.2,0.3,0,0.3
						c0.2,0,0.1,0.1,0.3,0.1c0.2,0,0.3,0.1,0.3,0.1c0.1,0,0.2,0,0.3,0.1c0.1,0.1,0.1,0.1,0.1,0.3c0,0.1-0.2,0.1,0,0.1
						c0.2,0.1,0.2,0,0.2,0.2c0,0.1-0.1,0.2-0.1,0.2c-0.1,0-0.5-0.2-0.5-0.2S55,8,55,8.1c0,0.1,0,0.2,0,0.2l-0.2,0.1
						c0,0-0.2-0.1-0.3-0.1c-0.1,0-0.4-0.1-0.5-0.2c-0.1,0-0.4,0-0.4,0l-0.5,0c0,0-0.3,0.2-0.3,0.3c0,0.1-0.3,0.2-0.3,0.2
						c0-0.1-0.2-0.1-0.2-0.2c0-0.1-1.5-0.8-1.5-0.8c-0.1,0-0.9-0.2-0.9-0.2S48.4,7,48.4,7.1c0,0.1-0.5-0.2-0.6-0.1
						c-0.1,0-0.3,0.1-0.3,0.1l-0.4,0.2c0,0-0.2-0.1-0.2-0.2c0-0.1-0.1-0.2,0-0.3c0.1-0.1,0.1-0.2,0.2-0.3c0.1-0.1,0.3-0.2,0.3-0.3
						c0.1,0,0.2-0.2,0.2-0.2c0-0.1-0.1-0.2-0.1-0.2c-0.1,0-0.3,0.1-0.3,0.1L47,5.9c0,0-0.1-0.1-0.1-0.1c-0.1,0-0.2,0.1-0.2,0.2
						c0,0.1-0.1,0.1-0.1,0.2c-0.1,0-0.1,0.1-0.1,0.1c0,0.1,0,0.2-0.1,0.2c-0.1,0-0.1-0.2-0.1-0.2c0-0.1,0.1-0.1,0.1-0.1l0.1,0L46.6,6
						l0-0.1l-0.1-0.1h-0.1l-0.2,0L46,5.8l0.1-0.2l0.2-0.1l-0.1-0.1c0,0-0.1,0.1-0.1,0c0-0.1-0.1,0.1,0-0.1c0.1-0.1,0.1-0.2,0.1-0.2
						l0.5-0.3c0,0,1.7-0.9,4.7-0.3C51.4,4.5,53,4.7,54.7,6z"/>
					<path class="st8" d="M45.7,6.2c0,0,0-0.1,0.2,0c0.1,0.1,0,0,0.1,0.1c0.1,0.1,0.2,0.2,0.2,0.2l-0.1,0.2l-0.1,0l-0.1-0.1
						c0-0.1-0.1-0.1-0.1-0.1l-0.1,0.1l-0.1,0l0.1-0.1L45.7,6.2z"/>
					<path class="st8" d="M45.3,9.7c0.1,0,0.3,0.1,0.3,0.1l0.1,0.1l0,0.1L45.3,9.7z"/>
				</g>
			</g>
			<g>
				<path class="st9" d="M52.7,4.6c0,0,1.4,0.3,2.7,1.4l0.2,0.2c0,0,0,0.2,0.1,0.3c0.1,0.1,0.1,0.2,0.2,0.2c0.1,0,0.1,0.2,0.1,0.2
					L55.8,7l-0.1-0.1l-0.3-0.2l-0.2-0.2l-0.1-0.2l-0.2-0.2l-0.2-0.2l-0.2-0.2c0,0,0-0.2-0.1-0.2c-0.1,0-0.3,0-0.3,0l-0.2-0.2
					l-0.2-0.1c0,0-0.2-0.1-0.2-0.1c-0.1,0-0.3,0.1-0.3,0.1L53.2,5l-0.1-0.2L53,4.7l-0.1,0.1c0,0,0.1,0.2,0.1,0.2
					c0.1,0.1,0.1,0.1,0.1,0.2c0,0.1,0,0.2,0.1,0.2c0.1,0,0.2-0.1,0.2,0c0,0.1,0,0.1,0.1,0.2c0.1,0.1,0.2,0.2,0.3,0.2
					C53.9,5.8,54,5.9,54,5.9C54,6,54.1,6,54.1,6s0.2,0,0.2,0c0,0.1,0.1,0.1,0.1,0.2c0,0.1,0.1,0.1,0,0.1c0,0.1-0.1,0-0.1-0.1
					c0-0.1-0.1-0.1-0.1-0.1s0,0.2,0,0.2c0,0,0,0,0.1,0c0,0,0.1,0.1,0.1,0.1s0.1,0,0.1,0.1c0,0.1-0.1,0.2-0.1,0.2l-0.1,0L54,6.6
					c0,0,0-0.1,0-0.1c0.1,0,0.2,0.1,0.2,0.1l-0.2-0.2L54,6.3c0,0-0.1-0.1,0-0.1c0-0.1,0-0.2-0.1-0.2c-0.1,0-0.2,0-0.1,0.1
					c0,0.1,0.1,0.2,0.1,0.2l0,0.1h-0.1c0,0-0.1-0.1-0.1-0.2c0-0.1,0.1-0.2,0.1-0.3c0-0.1,0-0.2,0-0.2l-0.1-0.1l-0.2-0.1l-0.2-0.1
					l-0.1,0c0,0-0.1,0.1,0,0.1c0.1,0,0.1,0.1,0.1,0.2c0,0.1,0.1,0.2,0,0.2c-0.1,0-0.2,0-0.2,0C53,6,53,5.8,53,5.8l0-0.1
					c0,0-0.1-0.1-0.1-0.1c-0.1,0-0.1-0.2-0.1-0.2c0-0.1,0.1-0.1,0.1-0.1c0-0.1-0.1-0.1-0.1-0.1l-0.2-0.1c0,0-0.2-0.1-0.2-0.2
					c0-0.1,0.1-0.1,0.1-0.2c0.1,0,0.1,0,0.1,0l-0.1-0.2L52.7,4.6z"/>
				<path class="st9" d="M51.2,4.8c-0.1,0-0.4,0-0.2,0.1C51.2,5,51.1,5,51.2,5c0.1,0,0.1,0,0.1,0l0.2-0.1L51.4,5
					c-0.2,0.1-0.3,0-0.2,0.1c0.1,0,0.2,0.1,0.2,0.1l0.1,0c0,0-0.1,0.1-0.1,0.1c-0.1,0-0.3-0.1-0.3-0.1s-0.1,0.1,0,0.1
					c0.1,0,0.1,0.1,0.2,0.1c0.1,0,0.1,0.1,0.2,0.1c0.1,0,0.1,0.1,0.1,0.1s0.2,0.1,0.2,0c0.1,0,0.1,0,0.1,0s0-0.1,0.1-0.1
					c0.1,0,0.1-0.1,0.1-0.1L52,5.1L51.9,5L51.8,5l-0.1,0l-0.1-0.1l-0.1,0h-0.1L51.2,4.8z"/>
				<g>
					<path class="st9" d="M52.4,5.4C52.4,5.4,52.4,5.4,52.4,5.4C52.4,5.4,52.4,5.4,52.4,5.4z"/>
					<path class="st9" d="M52.4,5.4C52.4,5.4,52.4,5.4,52.4,5.4C52.4,5.4,52.4,5.4,52.4,5.4z"/>
					<path class="st9" d="M53.3,14.6C53.3,14.6,53.3,14.6,53.3,14.6C53.3,14.6,53.3,14.6,53.3,14.6z"/>
					<path class="st9" d="M55.8,8.3c-0.1-0.1-0.2,0-0.2,0s-0.1,0.1-0.1,0c0-0.1,0-0.1,0-0.1l0.1-0.1c0,0,0,0-0.1-0.1
						c-0.1-0.1-0.3-0.2-0.3-0.2l-0.1-0.2c0,0-0.1-0.1-0.1-0.2c0-0.1-0.2-0.2-0.2-0.2s-0.1,0-0.1,0.1c0,0.1-0.1,0.1-0.1,0.1l-0.2-0.2
						l-0.1-0.1c0,0,0,0-0.1-0.1C54.2,7.1,54,7,54,7S54,7,53.9,6.9c-0.1-0.1-0.1-0.1-0.1,0.1c0,0.2,0,0.2,0.1,0.3
						C54,7.4,54.1,7.5,54,7.6c-0.1,0.1-0.1,0.1-0.1,0.2c0,0.1,0.1,0.1,0.1,0.2c0,0.1,0,0.3,0,0.3c-0.1,0.1-0.2,0.1-0.2,0.1
						c0-0.1-0.1-0.1-0.1-0.1s-0.2-0.1-0.2-0.1c0-0.1,0-0.3,0-0.3s0-0.1-0.1-0.1c-0.1,0-0.3,0-0.3,0l-0.1-0.1c0,0-0.1-0.1-0.1-0.1
						c-0.1,0-0.1-0.1-0.1-0.1l-0.3-0.1l0-0.2l0-0.2c0,0-0.1,0-0.1-0.1c0-0.1,0.1-0.2,0.2-0.2c0.1-0.1,0.2-0.1,0.2-0.2
						c0-0.1,0.1-0.2,0.1-0.2c0.1,0,0.1,0,0.1,0l0.1-0.2l-0.1-0.2c0,0-0.1-0.1-0.1-0.1c0-0.1,0-0.1,0-0.1s-0.1-0.1-0.1-0.2
						c0-0.1-0.1-0.1-0.1-0.1l-0.2-0.2c0,0-0.2-0.1-0.1,0.1c0.2,0.2,0.1,0,0.2,0.1c0,0.1,0,0.1,0,0.1c0.1,0.1,0.1,0.2,0.1,0.2
						s-0.2,0.2-0.2,0.1c0-0.1-0.2-0.1-0.3-0.1c-0.1,0-0.2,0-0.2,0l-0.2,0.1l-0.1-0.1l-0.1,0l-0.1-0.1l-0.2,0l-0.1-0.1l-0.2-0.3
						l-0.3,0c0,0-0.2,0-0.1-0.1c0-0.1-0.1-0.1-0.1-0.1l-0.2,0.1l-0.3-0.2l-0.1-0.2l-0.2-0.1l-0.2,0l-0.3,0.1c0,0-0.1,0-0.2,0
						c-0.1,0-0.2,0.1-0.2,0.1l-0.1-0.1c0,0-0.1,0,0-0.1c0.1-0.1,0.2-0.2,0.2-0.2l-0.4,0.1l-0.3,0.1l-0.1,0.1c0,0,0.1,0.1,0.2,0
						c0.1-0.1,0.2-0.1,0.2-0.1l0.1,0l0.1,0.1l0,0.1L48.3,5c0,0-0.1,0-0.2,0c-0.1,0-0.1,0.1-0.2,0.1c-0.1,0.1-0.1,0.1-0.1,0.1
						s-0.1,0.1,0,0.1c0.1,0,0.1,0.1,0.2,0.1c0.1,0,0.1,0,0.2-0.1c0.1-0.1,0.2,0,0.2,0s0.1,0.1,0.2,0.1c0,0.1,0.1,0.1,0.1,0.2
						c0.1,0,0.1,0,0.2,0.1c0,0.1,0,0.2,0,0.2l0,0.1c0,0,0.1,0.1,0.1,0.2c-0.1,0.1-0.1,0.1-0.1,0.2c0,0.1,0,0.1,0,0.2
						c0,0.1-0.1,0.1-0.1,0.1c0,0.1,0,0.2,0,0.2l0.1,0.2c0,0,0.1,0.1,0.1,0.2c0,0.1,0,0.2,0,0.2c-0.1-0.2-0.1-0.2-0.2-0.3
						c-0.1-0.1-0.1-0.1-0.1-0.1l-0.1,0.1l0.1,0.1l0.1,0.1l0,0.1c-0.1,0-0.2-0.2-0.2-0.2c-0.1,0-0.1,0.1-0.1,0.1l0,0.1l-0.1,0.2
						l-0.1,0.1l-0.2,0.3l-0.1,0.3c0,0-0.1,0.2-0.1,0.3c0,0.1-0.1,0.3-0.1,0.4c0,0.1,0,0.3,0.1,0.3c0,0.1,0,0.2,0.1,0.2
						c0.1,0,0.2,0.2,0.2,0.2l0.1,0.2l0,0.3l0.1,0.3l0,0.1l-0.1,0.1l-0.1,0.1l0.1,0.2l0.1,0.1c0,0,0.1,0.1,0.1,0.2
						c0,0.1,0.1,0.2,0.1,0.2c0.1,0.1,0.1,0.2,0.1,0.2l-0.1-0.5c0,0-0.1-0.2-0.1-0.2c0-0.1-0.1-0.2-0.1-0.2l-0.1,0c0,0,0-0.1,0-0.1
						c0-0.1,0-0.2,0-0.2c-0.1-0.1-0.1-0.2-0.1-0.3c0-0.1,0.1-0.1,0.1-0.1c0.1,0,0.1,0.1,0.2,0.1c0,0.1,0.1,0.2,0.1,0.2
						c0,0.1-0.1,0.1,0,0.2c0.1,0.1,0.1,0.2,0.2,0.3c0.1,0.1,0.1,0.2,0.1,0.3c0,0.1-0.1,0.1,0,0.1c0,0.1,0.1,0.1,0.1,0.2
						c0,0.1,0.2,0.1,0.2,0.2c0,0.1,0.1,0.2,0.1,0.2c0,0.1,0,0.1,0,0.2c0,0,0,0.1,0,0.2c0,0.1,0,0.1,0,0.2c0.1,0.1,0.1,0.1,0.2,0.2
						c0,0.1,0.2,0.1,0.2,0.1c0.1,0,0.1,0.2,0.2,0.2c0.1,0,0.2,0.2,0.3,0.2c0.1,0,0.1,0.1,0.2,0.1c0.1,0,0.2,0.1,0.2,0.1H51
						c0,0,0.2,0,0.3,0.1c0.1,0,0.1,0.1,0.2,0.1c0,0.1,0.1,0.2,0.2,0.2c0.1,0,0.2,0.1,0.3,0.1c0.1,0,0.2,0,0.2,0s0.1,0.1,0.1,0.1
						c0,0.1,0.2,0.1,0.2,0.1s0.1,0,0.1,0c0,0.1,0.1,0,0.1,0.1c0,0.1,0,0.1,0,0.1l-0.2-0.1l-0.1,0c0,0,0,0.2,0,0.2
						c0.1,0,0.2,0.1,0.2,0.1s0.1,0.1,0.1,0.1c0.1,0,0.1,0.1,0.2,0.1c0.1,0.1,0.1,0.1,0.2,0.1c0.1,0,0.2,0,0.2,0s0,0,0.1,0
						c0.1,0,0.1,0,0.1,0s0,0,0,0c0,0,0,0,0,0c0,0,0,0,0,0c0,0,0,0,0,0c0,0,0,0,0,0c0,0,0,0,0,0c0.1,0.1,0.2,0.1,0.2,0.1l0-0.2
						l-0.1-0.1h-0.2l-0.2,0l-0.1,0l-0.1-0.1c0,0,0,0,0-0.1c0-0.1,0-0.1,0-0.1s0-0.1,0-0.1c0-0.1,0-0.1,0-0.1c0.1-0.1,0,0,0.1-0.1
						c0.1-0.1,0.1-0.1,0.1-0.1l-0.1-0.1l-0.1-0.1l-0.1-0.1l-0.3,0l-0.2,0l-0.2,0L52,13.5l0.1-0.1l0.1,0l0-0.2l0.1-0.1
						c0.1,0,0.1-0.2,0.1-0.2s0-0.1,0-0.1c0-0.1,0-0.2,0-0.2l-0.2,0l-0.2,0.1L51.9,13l-0.2,0.1l-0.2,0l-0.3,0L51.1,13
						c0,0-0.1-0.2-0.1-0.2c0-0.1-0.1-0.1-0.1-0.1c-0.1,0-0.1-0.2-0.1-0.2s-0.1-0.1,0-0.2c0-0.1,0.1-0.1,0.1-0.2
						c0-0.1,0.1-0.2,0.1-0.2s-0.1-0.1-0.1-0.1c0-0.1,0-0.1,0.1-0.1c0.1,0,0.1-0.1,0.1-0.1s-0.1-0.1-0.1-0.1c0-0.1,0-0.1,0.1-0.1
						c0.1,0,0.1,0,0.2-0.1c0.1-0.1,0.3-0.1,0.3-0.1h0.2c0,0,0.1,0,0.2,0c0.1,0.1,0.2,0.1,0.2,0.1c0.1,0,0.1,0,0.2-0.1
						c0.1-0.1,0.1-0.1,0.2-0.1c0.1,0,0.2,0,0.3,0.1c0.1,0.1,0.2,0.1,0.3,0.1c0.1,0,0.2,0,0.2,0s0,0.2,0.1,0.2c0,0.1,0.1,0.2,0.2,0.2
						c0,0.1,0.1,0.1,0.1,0.2c0,0.1,0.1,0.2,0.1,0.2s0.1,0,0.1-0.1c0-0.1,0-0.2-0.1-0.3c-0.1-0.1-0.1-0.2-0.1-0.3c0-0.1-0.1-0.1,0-0.2
						c0-0.1,0-0.1,0.1-0.2c0.1-0.1,0.2-0.1,0.2-0.2c0.1,0,0.2,0,0.2-0.1c0-0.1,0.1-0.1,0.1-0.1s0.1-0.2,0-0.2c0-0.1,0-0.2,0-0.2
						s0-0.2,0-0.3c0-0.1,0.1-0.1,0.1-0.1s0.1,0,0.1,0.1c0,0.1,0.2-0.2,0.2-0.2s0-0.1,0-0.2c0-0.1,0-0.2,0.1-0.2c0.1,0,0.2,0,0.2-0.1
						c0-0.1,0-0.2,0-0.2c0-0.1,0.1-0.1,0.1-0.1l0.2-0.1l0.2-0.2c0,0,0-0.1-0.1-0.2c-0.1,0,0-0.2,0-0.2s0-0.2-0.1-0.1
						C55,8.8,55,8.9,54.9,9c-0.1,0.1-0.1,0.2-0.1,0.1c0-0.1,0-0.2,0-0.3C54.9,8.7,55,8.7,55,8.7s0.1-0.1,0.2-0.1
						c0.1,0,0.2,0.1,0.2,0.1c0.1,0,0.1,0.1,0.1,0c0.1,0,0.1-0.1,0.1-0.1l0.1-0.1C55.7,8.4,55.8,8.3,55.8,8.3z M50.4,5.5l0.1,0l0.1,0
						l0.1,0.1l-0.1,0.1h-0.1l-0.2-0.1C50.1,5.6,50.4,5.5,50.4,5.5z M51.1,6.2c-0.1,0.1-0.1,0.1-0.2,0.1c-0.1,0-0.2,0-0.3,0
						c-0.1,0-0.2,0-0.2,0c-0.1,0,0-0.1,0-0.1c0.1,0,0,0,0.2-0.1C50.7,6,50.6,6,50.7,6c0.1,0,0.1,0,0.1,0c0,0,0.1,0.1,0.1,0.1
						s0.1,0,0.2,0c0.1,0,0.1,0,0.1,0S51.2,6.1,51.1,6.2z M51.9,8.1L51.9,8.1l-0.1-0.2l-0.1-0.1l0-0.2l0.2,0c0,0,0,0,0,0.1l0.1,0.2
						L51.9,8L51.9,8.1z M54.3,9.5c0.1,0.1-0.1,0.2-0.1,0.2h-0.1l-0.1,0h-0.1c0,0-0.1-0.1-0.1-0.1c-0.1,0-0.1,0-0.1,0.1
						c0,0.1,0,0.1,0,0.1s-0.1,0-0.2,0c-0.1,0-0.1-0.1-0.1-0.1c0-0.1,0.1-0.2,0.1-0.2c0-0.1-0.1-0.1-0.1-0.1s-0.1-0.1-0.2-0.1
						c-0.1,0-0.1,0-0.2,0.1c-0.1,0.1,0,0.1,0.1,0.2c0,0.1-0.1,0.2-0.1,0.2s-0.1-0.2-0.1-0.2c-0.1-0.1,0-0.1,0-0.2
						c0-0.1,0-0.1,0.1-0.2c0.1-0.1-0.1-0.2-0.1-0.2s0,0-0.1,0c-0.1,0-0.2,0-0.2,0c-0.1,0-0.2-0.1-0.2-0.1s0,0,0.1-0.2
						c0.1-0.2-0.1,0.2,0.3-0.1c0.4-0.2,0.2-0.1,0.3-0.1c0,0,0.1,0,0.2,0.1c0,0,0.1,0.1,0.1,0.2c0,0.1,0,0-0.1,0.1C53,9,53,9.1,53,9.1
						l0.1,0h0.2l0.1,0c0,0,0.2,0,0.2,0c0.1,0,0.1,0.1,0.1,0.1s0,0.1-0.1,0.2c-0.1,0-0.1,0-0.2,0.1c-0.1,0.1,0,0.2,0,0.2s0,0,0.1,0
						c0.1,0,0.1,0,0.1,0c0.1,0,0,0.1,0.1,0.1c0,0,0.1,0,0.1,0S54,9.6,54,9.5C54.1,9.5,54.1,9.5,54.3,9.5C54.4,9.5,54.3,9.5,54.3,9.5z
						"/>
					<path class="st9" d="M52.4,5.5C52.4,5.4,52.4,5.4,52.4,5.5C52.4,5.4,52.4,5.4,52.4,5.5z"/>
					<path class="st9" d="M52.4,5.5C52.4,5.5,52.4,5.5,52.4,5.5C52.4,5.5,52.4,5.5,52.4,5.5z"/>
					<path class="st9" d="M51.5,7.5c0,0.1-0.2-0.2,0,0.2c0.2,0.4,0.1,0,0.2,0.2c0,0,0,0,0,0c0-0.1-0.1-0.2-0.1-0.2L51.5,7.5z"/>
					<path class="st9" d="M51.7,7.9C51.7,7.9,51.7,7.9,51.7,7.9C51.7,7.9,51.7,7.9,51.7,7.9z"/>
					<path class="st9" d="M51.7,8C51.7,8,51.7,8,51.7,8C51.7,8,51.7,8,51.7,8z"/>
					<path class="st9" d="M51.7,8C51.7,8,51.7,8,51.7,8C51.7,8,51.7,8,51.7,8z"/>
					<path class="st9" d="M51.7,8C51.7,8,51.7,8,51.7,8C51.7,8,51.7,8,51.7,8z"/>
					<path class="st9" d="M51.7,8C51.7,8,51.7,8,51.7,8L51.7,8z"/>
					<path class="st9" d="M51.7,7.9C51.7,7.9,51.7,7.9,51.7,7.9C51.7,7.9,51.7,7.9,51.7,7.9z"/>
					<path class="st9" d="M51.7,8C51.7,8,51.7,8,51.7,8C51.7,8,51.7,8,51.7,8z"/>
					<path class="st9" d="M51.7,7.9C51.7,7.9,51.7,7.9,51.7,7.9C51.7,7.9,51.7,7.9,51.7,7.9z"/>
				</g>
			</g>
			<g>
				
					<radialGradient id="SVGID_7_" cx="761.3329" cy="4.7851" r="11.8373" gradientTransform="matrix(1 0 0 1 -715.4414 0)" gradientUnits="userSpaceOnUse">
					<stop  offset="0" style="stop-color:#FFE064"/>
					<stop  offset="0.2431" style="stop-color:#FFC63C"/>
					<stop  offset="0.5458" style="stop-color:#F79920"/>
					<stop  offset="0.836" style="stop-color:#F37524"/>
					<stop  offset="1" style="stop-color:#EF4D23"/>
				</radialGradient>
				<path class="st10" d="M52.3,4.3c0,0,1.4,0.3,2.7,1.4l0.2,0.2c0,0,0,0.2,0.1,0.3c0.1,0.1,0.1,0.2,0.2,0.2c0.1,0,0.1,0.2,0.1,0.2
					l-0.1,0.1l-0.1-0.1L55,6.5l-0.2-0.2l-0.1-0.2l-0.2-0.2l-0.2-0.2l-0.2-0.2c0,0,0-0.2-0.1-0.2c-0.1,0-0.3,0-0.3,0l-0.2-0.2
					l-0.2-0.1c0,0-0.2-0.1-0.2-0.1c-0.1,0-0.3,0.1-0.3,0.1l-0.2-0.2l-0.1-0.2l-0.1-0.1l-0.1,0.1c0,0,0.1,0.2,0.1,0.2
					c0.1,0.1,0.1,0.1,0.1,0.2c0,0.1,0,0.2,0.1,0.2c0.1,0,0.2-0.1,0.2,0c0,0.1,0,0.1,0.1,0.2c0.1,0.1,0.2,0.2,0.3,0.2
					c0.1,0.1,0.2,0.1,0.2,0.2c0,0.1,0.2,0.1,0.2,0.1s0.2,0,0.2,0C54,5.9,54,5.9,54,6c0,0.1,0.1,0.1,0,0.1c0,0.1-0.1,0-0.1-0.1
					C53.9,6,53.8,6,53.8,6s0,0.2,0,0.2c0,0,0,0,0.1,0c0,0,0.1,0.1,0.1,0.1s0.1,0,0.1,0.1c0,0.1-0.1,0.2-0.1,0.2l-0.1,0l-0.1-0.2
					c0,0,0-0.1,0-0.1c0.1,0,0.2,0.1,0.2,0.1l-0.2-0.2l-0.1-0.1c0,0-0.1-0.1,0-0.1c0-0.1,0-0.2-0.1-0.2c-0.1,0-0.2,0-0.1,0.1
					c0,0.1,0.1,0.2,0.1,0.2l0,0.1h-0.1c0,0-0.1-0.1-0.1-0.2c0-0.1,0.1-0.2,0.1-0.3c0-0.1,0-0.2,0-0.2l-0.1-0.1l-0.2-0.1l-0.2-0.1
					l-0.1,0c0,0-0.1,0.1,0,0.1c0.1,0,0.1,0.1,0.1,0.2c0,0.1,0.1,0.2,0,0.2c-0.1,0-0.2,0-0.2,0c0-0.1-0.1-0.3-0.1-0.3l0-0.1
					c0,0-0.1-0.1-0.1-0.1c-0.1,0-0.1-0.2-0.1-0.2C52.5,5,52.5,5,52.5,5c0-0.1-0.1-0.1-0.1-0.1l-0.2-0.1c0,0-0.2-0.1-0.2-0.2
					c0-0.1,0.1-0.1,0.1-0.2c0.1,0,0.1,0,0.1,0l-0.1-0.2L52.3,4.3z"/>
				
					<radialGradient id="SVGID_8_" cx="761.3329" cy="4.7851" r="11.8373" gradientTransform="matrix(1 0 0 1 -715.4414 0)" gradientUnits="userSpaceOnUse">
					<stop  offset="0" style="stop-color:#FFE064"/>
					<stop  offset="0.2431" style="stop-color:#FFC63C"/>
					<stop  offset="0.5458" style="stop-color:#F79920"/>
					<stop  offset="0.836" style="stop-color:#F37524"/>
					<stop  offset="1" style="stop-color:#EF4D23"/>
				</radialGradient>
				<path class="st11" d="M50.9,4.5c-0.1,0-0.4,0-0.2,0.1c0.2,0.1,0.1,0.1,0.1,0.1c0.1,0,0.1,0,0.1,0L51,4.6l0.1,0.1
					c-0.2,0.1-0.3,0-0.2,0.1c0.1,0,0.2,0.1,0.2,0.1l0.1,0c0,0-0.1,0.1-0.1,0.1c-0.1,0-0.3-0.1-0.3-0.1S50.7,5,50.8,5
					c0.1,0,0.1,0.1,0.2,0.1c0.1,0,0.1,0.1,0.2,0.1c0.1,0,0.1,0.1,0.1,0.1s0.2,0.1,0.2,0c0.1,0,0.1,0,0.1,0s0-0.1,0.1-0.1
					c0.1,0,0.1-0.1,0.1-0.1l-0.1-0.2l-0.1-0.1l-0.1-0.1l-0.1,0l-0.1-0.1l-0.1,0H51L50.9,4.5z"/>
				<g>
					
						<radialGradient id="SVGID_9_" cx="761.3329" cy="4.7851" r="11.8373" gradientTransform="matrix(1 0 0 1 -715.4414 0)" gradientUnits="userSpaceOnUse">
						<stop  offset="0" style="stop-color:#FFE064"/>
						<stop  offset="0.2431" style="stop-color:#FFC63C"/>
						<stop  offset="0.5458" style="stop-color:#F79920"/>
						<stop  offset="0.836" style="stop-color:#F37524"/>
						<stop  offset="1" style="stop-color:#EF4D23"/>
					</radialGradient>
					<path class="st12" d="M52,5.2C52,5.1,52,5.1,52,5.2C52,5.1,52,5.1,52,5.2z"/>
					
						<radialGradient id="SVGID_10_" cx="761.3329" cy="4.7851" r="11.8373" gradientTransform="matrix(1 0 0 1 -715.4414 0)" gradientUnits="userSpaceOnUse">
						<stop  offset="0" style="stop-color:#FFE064"/>
						<stop  offset="0.2431" style="stop-color:#FFC63C"/>
						<stop  offset="0.5458" style="stop-color:#F79920"/>
						<stop  offset="0.836" style="stop-color:#F37524"/>
						<stop  offset="1" style="stop-color:#EF4D23"/>
					</radialGradient>
					<path class="st13" d="M52,5.2C52,5.2,52,5.2,52,5.2C52,5.2,52,5.2,52,5.2z"/>
					
						<radialGradient id="SVGID_11_" cx="761.3329" cy="4.7851" r="11.8373" gradientTransform="matrix(1 0 0 1 -715.4414 0)" gradientUnits="userSpaceOnUse">
						<stop  offset="0" style="stop-color:#FFE064"/>
						<stop  offset="0.2431" style="stop-color:#FFC63C"/>
						<stop  offset="0.5458" style="stop-color:#F79920"/>
						<stop  offset="0.836" style="stop-color:#F37524"/>
						<stop  offset="1" style="stop-color:#EF4D23"/>
					</radialGradient>
					<path class="st14" d="M53,14.3C53,14.3,53,14.3,53,14.3C53,14.3,53,14.3,53,14.3z"/>
					
						<radialGradient id="SVGID_12_" cx="761.3329" cy="4.7851" r="11.8373" gradientTransform="matrix(1 0 0 1 -715.4414 0)" gradientUnits="userSpaceOnUse">
						<stop  offset="0" style="stop-color:#FFE064"/>
						<stop  offset="0.2431" style="stop-color:#FFC63C"/>
						<stop  offset="0.5458" style="stop-color:#F79920"/>
						<stop  offset="0.836" style="stop-color:#F37524"/>
						<stop  offset="1" style="stop-color:#EF4D23"/>
					</radialGradient>
					<path class="st15" d="M55.4,8c-0.1-0.1-0.2,0-0.2,0S55.1,8,55.1,8c0-0.1,0-0.1,0-0.1l0.1-0.1c0,0,0,0-0.1-0.1
						c-0.1-0.1-0.3-0.2-0.3-0.2l-0.1-0.2c0,0-0.1-0.1-0.1-0.2c0-0.1-0.2-0.2-0.2-0.2s-0.1,0-0.1,0.1c0,0.1-0.1,0.1-0.1,0.1L54.1,7
						l-0.1-0.1c0,0,0,0-0.1-0.1c-0.1,0-0.2-0.1-0.2-0.1s-0.1-0.1-0.1-0.1c-0.1-0.1-0.1-0.1-0.1,0.1c0,0.2,0,0.2,0.1,0.3
						c0.1,0.1,0.2,0.2,0.1,0.3c-0.1,0.1-0.1,0.1-0.1,0.2c0,0.1,0.1,0.1,0.1,0.2c0,0.1,0,0.3,0,0.3c-0.1,0.1-0.2,0.1-0.2,0.1
						c0-0.1-0.1-0.1-0.1-0.1S53,7.9,53,7.9c0-0.1,0-0.3,0-0.3s0-0.1-0.1-0.1c-0.1,0-0.3,0-0.3,0l-0.1-0.1c0,0-0.1-0.1-0.1-0.1
						c-0.1,0-0.1-0.1-0.1-0.1L52,7l0-0.2l0-0.2c0,0-0.1,0-0.1-0.1c0-0.1,0.1-0.2,0.2-0.2c0.1-0.1,0.2-0.1,0.2-0.2
						c0-0.1,0.1-0.2,0.1-0.2c0.1,0,0.1,0,0.1,0l0.1-0.2l-0.1-0.2c0,0-0.1-0.1-0.1-0.1c0-0.1,0-0.1,0-0.1s-0.1-0.1-0.1-0.2
						c0-0.1-0.1-0.1-0.1-0.1L51.8,5c0,0-0.2-0.1-0.1,0.1c0.2,0.2,0.1,0,0.2,0.1c0,0.1,0,0.1,0,0.1c0.1,0.1,0.1,0.2,0.1,0.2
						s-0.2,0.2-0.2,0.1c0-0.1-0.2-0.1-0.3-0.1c-0.1,0-0.2,0-0.2,0l-0.2,0.1l-0.1-0.1l-0.1,0l-0.1-0.1l-0.2,0l-0.1-0.1L50.5,5l-0.3,0
						c0,0-0.2,0-0.1-0.1c0-0.1-0.1-0.1-0.1-0.1l-0.2,0.1l-0.3-0.2l-0.1-0.2l-0.2-0.1l-0.2,0l-0.3,0.1c0,0-0.1,0-0.2,0
						c-0.1,0-0.2,0.1-0.2,0.1l-0.1-0.1c0,0-0.1,0,0-0.1c0.1-0.1,0.2-0.2,0.2-0.2L48,4.3l-0.3,0.1l-0.1,0.1c0,0,0.1,0.1,0.2,0
						c0.1-0.1,0.2-0.1,0.2-0.1l0.1,0l0.1,0.1l0,0.1l-0.2,0.1c0,0-0.1,0-0.2,0c-0.1,0-0.1,0.1-0.2,0.1c-0.1,0.1-0.1,0.1-0.1,0.1
						s-0.1,0.1,0,0.1c0.1,0,0.1,0.1,0.2,0.1c0.1,0,0.1,0,0.2-0.1c0.1-0.1,0.2,0,0.2,0s0.1,0.1,0.2,0.1c0,0.1,0.1,0.1,0.1,0.2
						c0.1,0,0.1,0,0.2,0.1c0,0.1,0,0.2,0,0.2l0,0.1c0,0,0.1,0.1,0.1,0.2c-0.1,0.1-0.1,0.1-0.1,0.2c0,0.1,0,0.1,0,0.2
						c0,0.1-0.1,0.1-0.1,0.1c0,0.1,0,0.2,0,0.2l0.1,0.2c0,0,0.1,0.1,0.1,0.2c0,0.1,0,0.2,0,0.2c-0.1-0.2-0.1-0.2-0.2-0.3
						c-0.1-0.1-0.1-0.1-0.1-0.1L48.2,7l0.1,0.1l0.1,0.1l0,0.1c-0.1,0-0.2-0.2-0.2-0.2c-0.1,0-0.1,0.1-0.1,0.1l0,0.1l-0.1,0.2
						l-0.1,0.1l-0.2,0.3l-0.1,0.3c0,0-0.1,0.2-0.1,0.3c0,0.1-0.1,0.3-0.1,0.4c0,0.1,0,0.3,0.1,0.3c0,0.1,0,0.2,0.1,0.2
						c0.1,0,0.2,0.2,0.2,0.2L48,9.8l0,0.3l0.1,0.3l0,0.1l-0.1,0.1l-0.1,0.1l0.1,0.2l0.1,0.1c0,0,0.1,0.1,0.1,0.2
						c0,0.1,0.1,0.2,0.1,0.2c0.1,0.1,0.1,0.2,0.1,0.2l-0.1-0.5c0,0-0.1-0.2-0.1-0.2c0-0.1-0.1-0.2-0.1-0.2l-0.1,0c0,0,0-0.1,0-0.1
						c0-0.1,0-0.2,0-0.2c-0.1-0.1-0.1-0.2-0.1-0.3c0-0.1,0.1-0.1,0.1-0.1c0.1,0,0.1,0.1,0.2,0.1c0,0.1,0.1,0.2,0.1,0.2
						c0,0.1-0.1,0.1,0,0.2c0.1,0.1,0.1,0.2,0.2,0.3c0.1,0.1,0.1,0.2,0.1,0.3c0,0.1-0.1,0.1,0,0.1c0,0.1,0.1,0.1,0.1,0.2
						c0,0.1,0.2,0.1,0.2,0.2c0,0.1,0.1,0.2,0.1,0.2c0,0.1,0,0.1,0,0.2c0,0,0,0.1,0,0.2c0,0.1,0,0.1,0,0.2c0.1,0.1,0.1,0.1,0.2,0.2
						c0,0.1,0.2,0.1,0.2,0.1c0.1,0,0.1,0.2,0.2,0.2c0.1,0,0.2,0.2,0.3,0.2c0.1,0,0.1,0.1,0.2,0.1c0.1,0,0.2,0.1,0.2,0.1h0.2
						c0,0,0.2,0,0.3,0.1c0.1,0,0.1,0.1,0.2,0.1c0,0.1,0.1,0.2,0.2,0.2c0.1,0,0.2,0.1,0.3,0.1c0.1,0,0.2,0,0.2,0s0.1,0.1,0.1,0.1
						c0,0.1,0.2,0.1,0.2,0.1s0.1,0,0.1,0c0,0.1,0.1,0,0.1,0.1c0,0.1,0,0.1,0,0.1L52,14L52,14c0,0,0,0.2,0,0.2c0.1,0,0.2,0.1,0.2,0.1
						s0.1,0.1,0.1,0.1c0.1,0,0.1,0.1,0.2,0.1c0.1,0.1,0.1,0.1,0.2,0.1c0.1,0,0.2,0,0.2,0s0,0,0.1,0c0.1,0,0.1,0,0.1,0s0,0,0,0
						c0,0,0,0,0,0c0,0,0,0,0,0c0,0,0,0,0,0c0,0,0,0,0,0c0,0,0,0,0,0c0.1,0.1,0.2,0.1,0.2,0.1l0-0.2L53,14.3h-0.2l-0.2,0l-0.1,0
						l-0.1-0.1c0,0,0,0,0-0.1c0-0.1,0-0.1,0-0.1s0-0.1,0-0.1c0-0.1,0-0.1,0-0.1c0.1-0.1,0,0,0.1-0.1c0.1-0.1,0.1-0.1,0.1-0.1
						l-0.1-0.1l-0.1-0.1l-0.1-0.1l-0.3,0l-0.2,0l-0.2,0l-0.1-0.2l0.1-0.1l0.1,0l0-0.2l0.1-0.1c0.1,0,0.1-0.2,0.1-0.2s0-0.1,0-0.1
						c0-0.1,0-0.2,0-0.2l-0.2,0l-0.2,0.1l-0.2,0.1l-0.2,0.1l-0.2,0l-0.3,0l-0.2-0.1c0,0-0.1-0.2-0.1-0.2c0-0.1-0.1-0.1-0.1-0.1
						c-0.1,0-0.1-0.2-0.1-0.2s-0.1-0.1,0-0.2c0-0.1,0.1-0.1,0.1-0.2c0-0.1,0.1-0.2,0.1-0.2s-0.1-0.1-0.1-0.1c0-0.1,0-0.1,0.1-0.1
						c0.1,0,0.1-0.1,0.1-0.1s-0.1-0.1-0.1-0.1c0-0.1,0-0.1,0.1-0.1c0.1,0,0.1,0,0.2-0.1c0.1-0.1,0.3-0.1,0.3-0.1h0.2c0,0,0.1,0,0.2,0
						c0.1,0.1,0.2,0.1,0.2,0.1c0.1,0,0.1,0,0.2-0.1c0.1-0.1,0.1-0.1,0.2-0.1c0.1,0,0.2,0,0.3,0.1c0.1,0.1,0.2,0.1,0.3,0.1
						c0.1,0,0.2,0,0.2,0s0,0.2,0.1,0.2c0,0.1,0.1,0.2,0.2,0.2c0,0.1,0.1,0.1,0.1,0.2c0,0.1,0.1,0.2,0.1,0.2s0.1,0,0.1-0.1
						c0-0.1,0-0.2-0.1-0.3c-0.1-0.1-0.1-0.2-0.1-0.3c0-0.1-0.1-0.1,0-0.2c0-0.1,0-0.1,0.1-0.2c0.1-0.1,0.2-0.1,0.2-0.2
						c0.1,0,0.2,0,0.2-0.1c0-0.1,0.1-0.1,0.1-0.1s0.1-0.2,0-0.2c0-0.1,0-0.2,0-0.2s0-0.2,0-0.3c0-0.1,0.1-0.1,0.1-0.1s0.1,0,0.1,0.1
						c0,0.1,0.2-0.2,0.2-0.2s0-0.1,0-0.2c0-0.1,0-0.2,0.1-0.2c0.1,0,0.2,0,0.2-0.1c0-0.1,0-0.2,0-0.2c0-0.1,0.1-0.1,0.1-0.1l0.2-0.1
						l0.2-0.2c0,0,0-0.1-0.1-0.2c-0.1,0,0-0.2,0-0.2s0-0.2-0.1-0.1c-0.1,0.1-0.1,0.2-0.2,0.3c-0.1,0.1-0.1,0.2-0.1,0.1
						c0-0.1,0-0.2,0-0.3c0.1-0.1,0.2-0.1,0.2-0.1s0.1-0.1,0.2-0.1c0.1,0,0.2,0.1,0.2,0.1c0.1,0,0.1,0.1,0.1,0c0.1,0,0.1-0.1,0.1-0.1
						l0.1-0.1C55.3,8.1,55.5,8,55.4,8z M50,5.3l0.1,0l0.1,0l0.1,0.1l-0.1,0.1h-0.1L50,5.4C49.7,5.3,50,5.3,50,5.3z M50.7,5.9
						c-0.1,0.1-0.1,0.1-0.2,0.1c-0.1,0-0.2,0-0.3,0c-0.1,0-0.2,0-0.2,0c-0.1,0,0-0.1,0-0.1c0.1,0,0,0,0.2-0.1c0.2-0.1,0-0.1,0.1-0.1
						c0.1,0,0.1,0,0.1,0c0,0,0.1,0.1,0.1,0.1s0.1,0,0.2,0c0.1,0,0.1,0,0.1,0S50.8,5.9,50.7,5.9z M51.5,7.9L51.5,7.9l-0.1-0.2
						l-0.1-0.1l0-0.2l0.2,0c0,0,0,0,0,0.1l0.1,0.2l0.1,0.1L51.5,7.9z M53.9,9.3c0.1,0.1-0.1,0.2-0.1,0.2h-0.1l-0.1,0h-0.1
						c0,0-0.1-0.1-0.1-0.1c-0.1,0-0.1,0-0.1,0.1c0,0.1,0,0.1,0,0.1s-0.1,0-0.2,0C53,9.6,53,9.5,53,9.5c0-0.1,0.1-0.2,0.1-0.2
						c0-0.1-0.1-0.1-0.1-0.1S52.8,9,52.8,9c-0.1,0-0.1,0-0.2,0.1c-0.1,0.1,0,0.1,0.1,0.2c0,0.1-0.1,0.2-0.1,0.2s-0.1-0.2-0.1-0.2
						c-0.1-0.1,0-0.1,0-0.2c0-0.1,0-0.1,0.1-0.2c0.1-0.1-0.1-0.2-0.1-0.2s0,0-0.1,0c-0.1,0-0.2,0-0.2,0c-0.1,0-0.2-0.1-0.2-0.1
						s0,0,0.1-0.2c0.1-0.2-0.1,0.2,0.3-0.1c0.4-0.2,0.2-0.1,0.3-0.1c0,0,0.1,0,0.2,0.1c0,0,0.1,0.1,0.1,0.2c0,0.1,0,0-0.1,0.1
						c-0.1,0.1-0.1,0.2-0.1,0.2l0.1,0h0.2l0.1,0c0,0,0.2,0,0.2,0c0.1,0,0.1,0.1,0.1,0.1s0,0.1-0.1,0.2c-0.1,0-0.1,0-0.2,0.1
						c-0.1,0.1,0,0.2,0,0.2s0,0,0.1,0c0.1,0,0.1,0,0.1,0c0.1,0,0,0.1,0.1,0.1c0,0,0.1,0,0.1,0s0.1-0.1,0.2-0.1
						C53.7,9.2,53.8,9.2,53.9,9.3C54,9.2,53.9,9.2,53.9,9.3z"/>
					
						<radialGradient id="SVGID_13_" cx="761.3329" cy="4.7851" r="11.8373" gradientTransform="matrix(1 0 0 1 -715.4414 0)" gradientUnits="userSpaceOnUse">
						<stop  offset="0" style="stop-color:#FFE064"/>
						<stop  offset="0.2431" style="stop-color:#FFC63C"/>
						<stop  offset="0.5458" style="stop-color:#F79920"/>
						<stop  offset="0.836" style="stop-color:#F37524"/>
						<stop  offset="1" style="stop-color:#EF4D23"/>
					</radialGradient>
					<path class="st16" d="M52,5.2C52,5.2,52,5.2,52,5.2C52,5.2,52,5.2,52,5.2z"/>
					
						<radialGradient id="SVGID_14_" cx="761.3329" cy="4.7851" r="11.8373" gradientTransform="matrix(1 0 0 1 -715.4414 0)" gradientUnits="userSpaceOnUse">
						<stop  offset="0" style="stop-color:#FFE064"/>
						<stop  offset="0.2431" style="stop-color:#FFC63C"/>
						<stop  offset="0.5458" style="stop-color:#F79920"/>
						<stop  offset="0.836" style="stop-color:#F37524"/>
						<stop  offset="1" style="stop-color:#EF4D23"/>
					</radialGradient>
					<path class="st17" d="M52,5.2C52,5.2,52,5.2,52,5.2C52,5.2,52,5.2,52,5.2z"/>
					
						<radialGradient id="SVGID_15_" cx="761.3329" cy="4.7851" r="11.8373" gradientTransform="matrix(1 0 0 1 -715.4414 0)" gradientUnits="userSpaceOnUse">
						<stop  offset="0" style="stop-color:#FFE064"/>
						<stop  offset="0.2431" style="stop-color:#FFC63C"/>
						<stop  offset="0.5458" style="stop-color:#F79920"/>
						<stop  offset="0.836" style="stop-color:#F37524"/>
						<stop  offset="1" style="stop-color:#EF4D23"/>
					</radialGradient>
					<path class="st18" d="M51.1,7.2c0,0.1-0.2-0.2,0,0.2c0.2,0.4,0.1,0,0.2,0.2c0,0,0,0,0,0c0-0.1-0.1-0.2-0.1-0.2L51.1,7.2z"/>
					
						<radialGradient id="SVGID_16_" cx="766.7217" cy="7.6626" r="1.870760e-03" gradientTransform="matrix(1 0 0 1 -715.4414 0)" gradientUnits="userSpaceOnUse">
						<stop  offset="0" style="stop-color:#FFE064"/>
						<stop  offset="0.2431" style="stop-color:#FFC63C"/>
						<stop  offset="0.5458" style="stop-color:#F79920"/>
						<stop  offset="0.836" style="stop-color:#F37524"/>
						<stop  offset="1" style="stop-color:#EF4D23"/>
					</radialGradient>
					<path class="st19" d="M51.3,7.7C51.3,7.7,51.3,7.7,51.3,7.7C51.3,7.7,51.3,7.7,51.3,7.7z"/>
					
						<radialGradient id="SVGID_17_" cx="761.3329" cy="4.7851" r="11.8373" gradientTransform="matrix(1 0 0 1 -715.4414 0)" gradientUnits="userSpaceOnUse">
						<stop  offset="0" style="stop-color:#FFE064"/>
						<stop  offset="0.2431" style="stop-color:#FFC63C"/>
						<stop  offset="0.5458" style="stop-color:#F79920"/>
						<stop  offset="0.836" style="stop-color:#F37524"/>
						<stop  offset="1" style="stop-color:#EF4D23"/>
					</radialGradient>
					<path class="st20" d="M51.3,7.7C51.3,7.7,51.3,7.7,51.3,7.7C51.3,7.7,51.3,7.7,51.3,7.7z"/>
					
						<radialGradient id="SVGID_18_" cx="761.3329" cy="4.7851" r="11.8373" gradientTransform="matrix(1 0 0 1 -715.4414 0)" gradientUnits="userSpaceOnUse">
						<stop  offset="0" style="stop-color:#FFE064"/>
						<stop  offset="0.2431" style="stop-color:#FFC63C"/>
						<stop  offset="0.5458" style="stop-color:#F79920"/>
						<stop  offset="0.836" style="stop-color:#F37524"/>
						<stop  offset="1" style="stop-color:#EF4D23"/>
					</radialGradient>
					<path class="st21" d="M51.3,7.7C51.3,7.7,51.3,7.7,51.3,7.7C51.3,7.7,51.3,7.7,51.3,7.7z"/>
					
						<radialGradient id="SVGID_19_" cx="766.734" cy="7.7124" r="1.286245e-03" gradientTransform="matrix(1 0 0 1 -715.4414 0)" gradientUnits="userSpaceOnUse">
						<stop  offset="0" style="stop-color:#FFE064"/>
						<stop  offset="0.2431" style="stop-color:#FFC63C"/>
						<stop  offset="0.5458" style="stop-color:#F79920"/>
						<stop  offset="0.836" style="stop-color:#F37524"/>
						<stop  offset="1" style="stop-color:#EF4D23"/>
					</radialGradient>
					<path class="st22" d="M51.3,7.7C51.3,7.7,51.3,7.7,51.3,7.7C51.3,7.7,51.3,7.7,51.3,7.7z"/>
					
						<radialGradient id="SVGID_20_" cx="766.7346" cy="7.7147" r="4.112113e-04" gradientTransform="matrix(1 0 0 1 -715.4414 0)" gradientUnits="userSpaceOnUse">
						<stop  offset="0" style="stop-color:#FFE064"/>
						<stop  offset="0.2431" style="stop-color:#FFC63C"/>
						<stop  offset="0.5458" style="stop-color:#F79920"/>
						<stop  offset="0.836" style="stop-color:#F37524"/>
						<stop  offset="1" style="stop-color:#EF4D23"/>
					</radialGradient>
					<path class="st23" d="M51.3,7.7C51.3,7.7,51.3,7.7,51.3,7.7L51.3,7.7z"/>
					
						<radialGradient id="SVGID_21_" cx="761.3329" cy="4.7851" r="11.8373" gradientTransform="matrix(1 0 0 1 -715.4414 0)" gradientUnits="userSpaceOnUse">
						<stop  offset="0" style="stop-color:#FFE064"/>
						<stop  offset="0.2431" style="stop-color:#FFC63C"/>
						<stop  offset="0.5458" style="stop-color:#F79920"/>
						<stop  offset="0.836" style="stop-color:#F37524"/>
						<stop  offset="1" style="stop-color:#EF4D23"/>
					</radialGradient>
					<path class="st24" d="M51.3,7.7C51.3,7.7,51.3,7.7,51.3,7.7C51.3,7.7,51.3,7.7,51.3,7.7z"/>
					
						<radialGradient id="SVGID_22_" cx="761.3329" cy="4.7851" r="11.8373" gradientTransform="matrix(1 0 0 1 -715.4414 0)" gradientUnits="userSpaceOnUse">
						<stop  offset="0" style="stop-color:#FFE064"/>
						<stop  offset="0.2431" style="stop-color:#FFC63C"/>
						<stop  offset="0.5458" style="stop-color:#F79920"/>
						<stop  offset="0.836" style="stop-color:#F37524"/>
						<stop  offset="1" style="stop-color:#EF4D23"/>
					</radialGradient>
					<path class="st25" d="M51.3,7.7C51.3,7.7,51.3,7.7,51.3,7.7C51.3,7.7,51.3,7.7,51.3,7.7z"/>
					
						<radialGradient id="SVGID_23_" cx="761.3329" cy="4.7851" r="11.8373" gradientTransform="matrix(1 0 0 1 -715.4414 0)" gradientUnits="userSpaceOnUse">
						<stop  offset="0" style="stop-color:#FFE064"/>
						<stop  offset="0.2431" style="stop-color:#FFC63C"/>
						<stop  offset="0.5458" style="stop-color:#F79920"/>
						<stop  offset="0.836" style="stop-color:#F37524"/>
						<stop  offset="1" style="stop-color:#EF4D23"/>
					</radialGradient>
					<path class="st26" d="M51.3,7.7C51.3,7.7,51.3,7.7,51.3,7.7C51.3,7.7,51.3,7.7,51.3,7.7z"/>
				</g>
				
					<radialGradient id="SVGID_24_" cx="761.455" cy="4.7851" r="11.731" gradientTransform="matrix(1 0 0 1 -715.4414 0)" gradientUnits="userSpaceOnUse">
					<stop  offset="0" style="stop-color:#FFE064"/>
					<stop  offset="0.2431" style="stop-color:#FFC63C"/>
					<stop  offset="0.5458" style="stop-color:#F79920"/>
					<stop  offset="0.836" style="stop-color:#F37524"/>
					<stop  offset="1" style="stop-color:#EF4D23"/>
				</radialGradient>
				<path class="st27" d="M53.3,14.4l-0.1,0.1l0,0.1l0,0.1l-0.1,0.1l0,0.2c0,0,0,0.1-0.1,0.1c0,0-0.2,0-0.2,0s-0.1,0.1-0.2,0.2
					c-0.1,0.1-0.2,0.2-0.2,0.3c-0.1,0-0.2,0.1-0.2,0.1l0.1,0l0.1-0.1c0,0.1-0.1,0.2-0.1,0.2c-0.1,0.1-0.2,0-0.2,0.1
					c0,0-0.1,0.2,0,0.3c0.1,0,0.1,0.2,0.1,0.2c0.1,0,0.1,0,0.1,0.1c0,0,0.1,0.1,0.1,0.2c0,0.1-0.1,0.1,0,0.2c0.1,0.1,0,0.2,0.1,0.2
					c0.1,0,0.1,0.1,0.2,0.1c0.1,0,0.2,0,0.2,0.1c0,0.1,0.1,0.1,0.1,0.2c0,0.1-0.2,0.2-0.2,0.3c0,0.1-0.3,0.2-0.3,0.2
					s-0.2,0.2-0.2,0.2c-0.1,0-0.2,0.2-0.3,0.2c-0.1,0-0.4,0.1-0.5,0.2c-0.1,0-0.2,0.1-0.3,0.2c0,0.1-0.1,0.1-0.2,0.1
					c-0.1,0-0.4,0.1-0.4,0.1s1.1-0.1,2.6-0.8c0,0,0.7-0.3,1.5-1c0,0,0.9-0.6,1.7-2.2l-0.1,0.1l-0.1,0c0,0-0.1,0-0.2,0.1
					c-0.1,0.1-0.1,0.1-0.2,0.2c-0.1,0.1-0.2,0.2-0.2,0.2c0-0.1,0.1-0.3,0.1-0.3c-0.1,0.1-0.2,0.2-0.2,0.2c-0.1,0.1-0.2,0.2-0.2,0.2
					c-0.1,0-0.2,0-0.2,0s0.1-0.1,0.2-0.2c0.1-0.1,0.1-0.1,0.2-0.2c0-0.1,0.2-0.1,0.2-0.2c0.1-0.1,0.1-0.1,0.2-0.2c0,0,0,0.1,0,0
					c0-0.1,0-0.2,0-0.2c-0.1-0.1-0.3-0.1-0.4-0.1c-0.1,0-0.2,0.1-0.2,0.1l-0.2-0.1c0,0,0-0.1,0.1-0.1c0.1,0,0.1-0.1,0.1-0.1
					c-0.1,0-0.2,0-0.3,0.1c-0.1,0.1-0.2,0.2-0.2,0.1c0-0.1,0-0.1,0-0.2c0.1-0.1,0-0.1,0-0.1c-0.1,0-0.3,0.1-0.3,0.1s-0.1,0.1-0.2,0
					c-0.1-0.1-0.2-0.2-0.2-0.2c-0.1,0-0.2,0-0.2,0.1c0,0.1,0.1,0.1,0.1,0.2s0,0.2-0.1,0.2c-0.1,0-0.2,0-0.2-0.1c0-0.1,0-0.1,0-0.2
					c0.1-0.1,0.1-0.1,0.1-0.1s0-0.1-0.1-0.1C54,14,53.7,14,53.7,14l-0.1,0.1L53.3,14.4z"/>
			</g>
			<g>
				<path class="st28" d="M46,15V8h2v7H46z"/>
				<path class="st28" d="M53.1,15L51,11.1V15h-2V8h2l2,3.3V8h2v7H53.1z"/>
			</g>
		</g>
	</g>
</svg>
