<svg xmlns="http://www.w3.org/2000/svg" class="svgIcon workHarder" viewBox="0 0 83 83">
	<path fill="#3F82FB" d="M41.2,0C18.5,0,0,18.5,0,41.2C0,64,18.5,83,41.2,83C64,83,83,64,83,41.2C83,18.5,64,0,41.2,0z M46.6,17.2l3.4,8.5l-1.4,0.6
		l-3.7-8.5L46.6,17.2z M43.3,16.8L48,27.4l-1.8,0.6l-5.2-10L43.3,16.8z M39,16.9l7.8,13.7l-4,1.9l-7.1-13.4L39,16.9z M15.8,46.2
		l-3.1-5.5l0.9-0.9l4.1,5.6L15.8,46.2z M19.5,45.9l-6.7-9.4l1.3-1.6l6.6,9.8L19.5,45.9z M23,46.1l-9.2-14.5l3.1-2l8.9,14.1L23,46.1z
		 M77,56.9C67.6,74,49.1,78.4,49.1,78.4c7-8.9,7.5-30.1,7.5-30.1l-7.8,17.4l-20.8-28h-2l-0.4-1.1L23.4,38l-2-3.2l3-1.8L24,32v-1.1
		l1.6,0.4L25,29.7l2-1l1.4,0.9v-2.2l3.5-0.5v1.5l5.2-3.2l1.8,3l-6.8,4.3l2.8,0.5l-3,4.5l13.9,12.8L50.5,33l11,1.5
		c4.6-1.1,3.1-6.6,3.1-6.6C57.7,23.5,60.2,12,60.2,12l1.1-4.4c9.1,4.5,15.4,16.2,15.4,16.2c-1.8,3.2-5.1,5-5.1,5l0.1,5.2
		c1.5,1,8.1-1.1,8.1-1.1l0.6,15.6l-2.1,4.8l-3.5-3.1L77,56.9z"/>
</svg>

